<?xml version="1.0" encoding="UTF-8" standalone="no"?>
<!DOCTYPE svg PUBLIC "-//W3C//DTD SVG 1.1//EN" "http://www.w3.org/Graphics/SVG/1.1/DTD/svg11.dtd">
<svg xmlns="http://www.w3.org/2000/svg" xmlns:xlink="http://www.w3.org/1999/xlink" version="1.1">
<metadata>
Created by FontForge 20170731 at Mon Apr  9 18:31:04 2012
 By Aleksey,,,
Copyright (c) 2012 by Brian J. Bonislawsky DBA Astigmatic (AOETI) (astigma@astigmatic.com), with Reserved
Font Name "Marcellus"
</metadata>
<defs>
<font id="Marcellus-Regular" horiz-adv-x="1024">
  <font-face font-family="Marcellus" font-weight="400" font-stretch="normal" units-per-em="2048" panose-1="2 14 6 2 5 2 3 2 3 7" ascent="1638" descent="-410" x-height="1024" cap-height="1434" bbox="-340 -573 2531 1995" underline-thickness="102" underline-position="-307" unicode-range="U+0020-FB02"/>
<missing-glyph horiz-adv-x="512"/>
    <glyph glyph-name="fi" unicode="fi" horiz-adv-x="1128" d="M795 633q0 111 -4.5 187.5t-10.5 125.5h-418v-555q0 -85 2.5 -148.5t6 -109.5t9 -77t11.5 -52v-4h-231v4q6 21 11 52t9 77t6 109.5t2 148.5v555l-168 -6v88q31 -2 74 -3t94 -1v115q0 70 17.5 125t48 96t71 70t85.5 47t92 26t92 8q50 0 93 -4t77 -10t58.5 -12t37.5 -10 l39 -170l-12 -7q-20 25 -48 49t-64.5 43.5t-82.5 31.5t-102 12q-25 0 -63.5 -8t-75 -35.5t-63 -82t-26.5 -147.5v-137q137 1 249 2.5t194.5 3.5t132 4.5t61.5 5.5q-10 -51 -16 -97t-9 -94t-4 -100.5t-1 -115.5v-242q0 -85 2 -148.5t6 -109.5t9 -77t11 -52v-4h-231v4 q6 21 11.5 52t9 77t6 109.5t2.5 148.5v242z"/>
    <glyph glyph-name="fl" unicode="fl" horiz-adv-x="1149" d="M815 1104q0 99 -2.5 163t-7.5 107q-40 25 -93.5 42.5t-121.5 17.5q-25 0 -63.5 -8t-75 -35.5t-63 -82t-26.5 -147.5v-137q61 1 114.5 2.5t95.5 3.5t71 4.5t41 5.5l-18 -102q-40 1 -88 3q-42 2 -97 3t-119 2v-555q0 -85 2.5 -148.5t6 -109.5t9 -77t11.5 -52v-4h-231v4 q6 21 11 52t9 77t6 109.5t2 148.5v555l-168 -6v88q25 -2 71 -3t97 -1v115q0 70 17.5 125t48 96t71 70t85.5 47t92 26t92 8q48 0 85.5 -4.5t71 -10.5t65 -10.5t67.5 -4.5l135 14v-4q-6 -21 -11.5 -52t-9.5 -77t-6 -109.5t-2 -148.5v-713q0 -85 2 -148.5t6 -109.5t9.5 -77 t11.5 -52v-4h-232v4q6 21 11.5 52t9.5 77t6 109.5t2 148.5v713z"/>
    <glyph glyph-name=".notdef" horiz-adv-x="512"/>
    <glyph glyph-name=".null" horiz-adv-x="0"/>
    <glyph glyph-name="nonmarkingreturn" horiz-adv-x="682"/>
    <glyph glyph-name="space" unicode=" " horiz-adv-x="614"/>
    <glyph glyph-name="exclam" unicode="!" horiz-adv-x="502" d="M143 88q0 22 8.5 41.5t22.5 34t33.5 23t42.5 8.5t42.5 -8.5t34 -23t23 -34t8.5 -41.5q0 -46 -31 -77t-77 -31q-23 0 -42.5 8.5t-33.5 23t-22.5 34t-8.5 42.5zM231 328q-19 225 -32.5 390t-23 283t-16.5 194.5t-11.5 124t-8.5 72t-8 38.5v4h238v-4q-4 -14 -8 -38.5t-9 -72 t-11.5 -124t-16.5 -194.5t-23.5 -283t-32.5 -390h-37z"/>
    <glyph glyph-name="quotedbl" unicode="&quot;" horiz-adv-x="672" d="M283 1432q-4 -7 -7.5 -19t-7.5 -35.5t-9 -61t-12.5 -95t-17.5 -138.5t-24 -190h-45q-14 110 -24.5 190.5t-17.5 138t-12.5 95t-9.5 61t-7.5 35.5t-6.5 19v2h201v-2zM590 1432q-4 -7 -7.5 -19t-7.5 -35.5t-9 -61t-12.5 -95t-17.5 -138.5t-24 -190h-45q-14 110 -24 190.5 t-17.5 138t-13 95t-9.5 61t-7.5 35.5t-6.5 19v2h201v-2z"/>
    <glyph glyph-name="numbersign" unicode="#" horiz-adv-x="1085" d="M676 481h-266v-399h-82v399h-226v82h226v389h-226v82h226v338h82v-338h266v338h82v-338h225v-82h-225v-389h225v-82h-225v-399h-82v399zM410 563h266v389h-266v-389z"/>
    <glyph glyph-name="dollar" unicode="$" horiz-adv-x="932" d="M438 0q-57 0 -108 10t-94 25.5t-77.5 33.5t-56.5 33l23 217h16q12 -47 38 -89.5t64 -74.5t86.5 -51.5t104.5 -19.5h4v545q-55 48 -111 98t-101.5 107t-74 123t-28.5 147q0 70 26 127t69.5 99.5t100.5 68.5t119 33v163h62v-161q46 -2 85 -10.5t70 -19t54.5 -21.5t38.5 -17 l-7 -182h-14q-8 22 -25 49.5t-45 52t-67 42t-90 20.5v-527q57 -52 115.5 -105.5t106 -111t77.5 -120.5t30 -134q0 -58 -19 -116t-59.5 -106.5t-102.5 -82.5t-148 -43v-205h-62v203zM655 287q0 42 -12 80t-33 73t-49.5 67.5t-60.5 63.5v-481q72 19 113.5 71.5t41.5 125.5z M281 1151q0 -37 12 -72t33 -68.5t49.5 -66.5t62.5 -65v467q-77 -13 -117 -66.5t-40 -128.5z"/>
    <glyph glyph-name="percent" unicode="%" horiz-adv-x="1780" d="M223 1077q0 -54 20 -101t54.5 -82.5t81 -56t100.5 -20.5q55 0 101.5 20.5t81 56t54 82.5t19.5 101q0 55 -19.5 103t-54 84t-81 56.5t-101.5 20.5q-54 0 -100.5 -20.5t-81 -56.5t-54.5 -84t-20 -103zM102 1079q0 78 30 147t81 120.5t119.5 81.5t146.5 30t147 -30 t120.5 -81.5t81.5 -120.5t30 -147t-30 -146.5t-81.5 -119.5t-120.5 -81t-147 -30t-146.5 30t-119.5 81t-81 119.5t-30 146.5zM1321 1470l82 -53l-963 -1470l-82 53zM1042 344q0 -54 20 -101t54.5 -82.5t81 -56t100.5 -20.5q55 0 101.5 20.5t81 56t54 82.5t19.5 101 t-19.5 102t-54 84t-81 57t-101.5 21q-54 0 -100.5 -21t-81 -57t-54.5 -84t-20 -102zM922 346q0 78 30 147t81 120.5t119.5 81.5t145.5 30q78 0 147 -30t120.5 -81.5t81.5 -120.5t30 -147t-30 -146.5t-81.5 -119.5t-120.5 -81t-147 -30q-77 0 -145.5 30t-119.5 81t-81 119.5 t-30 146.5z"/>
    <glyph glyph-name="ampersand" unicode="&amp;" horiz-adv-x="1575" d="M1284 537q-37 -199 -158 -336q102 -102 209 -188.5t210.5 -150.5t199.5 -100t176 -36q32 0 64 6v-23q-12 -5 -31.5 -14t-48 -17t-67 -14t-87.5 -6q-78 0 -168.5 32.5t-187.5 90t-196.5 136.5t-194.5 173q-87 -59 -191.5 -91t-228.5 -32q-112 0 -201.5 28t-151.5 80 t-95.5 126t-33.5 166q0 88 33 156.5t86.5 123.5t122.5 100t141 87q-29 75 -45 146t-16 136q0 79 25.5 142.5t69.5 107.5t103.5 68t127.5 24q50 0 94 -14t76.5 -41.5t51.5 -68.5t19 -95q0 -68 -28.5 -122t-75 -99t-106.5 -84t-124 -76q32 -75 76.5 -152t97.5 -153.5 t114 -150.5t126 -144q48 65 75.5 148t27.5 182q0 84 -9.5 140.5t-19.5 96.5v4h180v-4q-7 -24 -10.5 -53.5t-7.5 -65t-9 -78t-14 -91.5zM659 57q82 0 156.5 22t136.5 64q-68 72 -132 148.5t-120 156t-103.5 160t-82.5 158.5q-47 -32 -87.5 -67t-70.5 -77t-47.5 -91.5 t-17.5 -108.5q0 -78 27.5 -145t76.5 -116t116.5 -76.5t147.5 -27.5zM584 1169q0 -58 13 -119.5t36 -127.5q49 31 91.5 64t74 71.5t49.5 82.5t18 97q0 30 -7.5 56.5t-22.5 47t-38.5 32t-54.5 11.5q-80 0 -119.5 -57t-39.5 -158z"/>
    <glyph glyph-name="quotesingle" unicode="'" horiz-adv-x="365" d="M283 1432q-4 -7 -7.5 -19t-7.5 -35.5t-9 -61t-12.5 -95t-17.5 -138.5t-24 -190h-45q-14 110 -24.5 190.5t-17.5 138t-12.5 95t-9.5 61t-7.5 35.5t-6.5 19v2h201v-2z"/>
    <glyph glyph-name="parenleft" unicode="(" horiz-adv-x="616" d="M571 -258q-102 73 -188 168t-148.5 207t-97.5 237.5t-35 259.5q0 136 36 263.5t100 240t152 208.5t192 169l26 -27q-95 -74 -160 -168.5t-105.5 -204t-58.5 -231.5t-18 -250q0 -127 17.5 -247t57 -228.5t102.5 -202.5t155 -167z"/>
    <glyph glyph-name="parenright" unicode=")" horiz-adv-x="616" d="M20 -231q91 73 154.5 167t103 202.5t57 228.5t17.5 247q0 128 -18 250t-58.5 231.5t-106 204t-159.5 168.5l27 27q103 -73 191 -169t152 -208.5t100 -240t36 -263.5q0 -134 -35 -259.5t-97.5 -237.5t-148.5 -207t-188 -168z"/>
    <glyph glyph-name="asterisk" unicode="*" horiz-adv-x="733" d="M430 1130l242 -126l-41 -70l-232 139l9 -270h-82l8 272l-232 -141l-41 70l240 126l-240 127l41 70l232 -141l-8 272h82l-9 -272l232 141l41 -70z"/>
    <glyph glyph-name="plus" unicode="+" horiz-adv-x="1331" d="M717 651v-491h-103v491h-491v103h491v491h103v-491h491v-103h-491z"/>
    <glyph glyph-name="comma" unicode="," horiz-adv-x="420" d="M102 88q0 22 8.5 41.5t23 34t34 23t41.5 8.5q23 0 42.5 -9.5t34 -26t23 -38.5t8.5 -47q0 -39 -17.5 -85t-46 -94t-64 -94.5t-72.5 -87.5l-27 23q50 59 80 117t35 127q-44 2 -73.5 32t-29.5 76z"/>
    <glyph glyph-name="hyphen" unicode="-" horiz-adv-x="840" d="M82 457v143h676v-143h-676z"/>
    <glyph glyph-name="period" unicode="." horiz-adv-x="420" d="M102 88q0 22 8.5 41.5t23 34t34 23t41.5 8.5q23 0 42.5 -8.5t34 -23t23 -34t8.5 -41.5q0 -46 -31 -77t-77 -31q-22 0 -41.5 8.5t-34 23t-23 34t-8.5 42.5z"/>
    <glyph glyph-name="slash" unicode="/" horiz-adv-x="893" d="M780 1550l92 -45l-759 -1614l-93 46z"/>
    <glyph glyph-name="zero" unicode="0" horiz-adv-x="1651" d="M238 709q0 -82 21 -158t58.5 -142.5t91 -121.5t119 -94t140.5 -60.5t157 -21.5t157.5 21.5t141 60.5t118.5 94t91 121.5t59 142.5t21 158q0 123 -46 231.5t-125.5 190t-186.5 129t-230 47.5t-230 -47.5t-186.5 -129t-125 -190t-45.5 -231.5zM82 713q0 102 26.5 197 t75 177.5t116.5 150.5t150.5 116.5t177.5 75t197 26.5t197 -26.5t178 -75t151 -116.5t116.5 -150.5t75 -177.5t26.5 -197q0 -103 -26.5 -197.5t-75 -177.5t-116.5 -151t-151 -116.5t-178 -75t-197 -26.5t-197 26.5t-177.5 75t-150.5 116.5t-116.5 151t-75 177.5t-26.5 197.5 z"/>
    <glyph glyph-name="one" unicode="1" horiz-adv-x="604" d="M186 4q6 21 11.5 52t9.5 77t6 109.5t2 148.5v651q0 85 -12 135t-28.5 77t-34 39t-29.5 22v4l307 115v-4q-6 -21 -11.5 -52t-9.5 -77.5t-6 -110t-2 -148.5v-651q0 -85 2 -148.5t6 -109.5t9.5 -77t11.5 -52v-4h-232v4z"/>
    <glyph glyph-name="two" unicode="2" horiz-adv-x="1090" d="M156 20q15 19 47 51.5t74 77t90 99.5t96 119t92.5 136.5t78.5 151.5t54.5 164t20.5 174q0 95 -22.5 164.5t-61.5 115t-91.5 67.5t-113.5 22q-76 0 -137.5 -25.5t-107 -59.5t-74 -68t-38.5 -52l-14 6l68 203q53 24 99.5 41.5t94 28.5t98 16.5t111.5 5.5q41 0 87 -9t91 -29 t85.5 -51.5t72 -77t50 -105.5t18.5 -137q0 -82 -25 -164.5t-66 -162t-94 -155.5t-109 -145t-111 -129.5t-99 -110.5h385q37 0 72.5 1.5t65.5 5t52.5 9.5t34.5 15h4v-213h-878v20v0z"/>
    <glyph glyph-name="three" unicode="3" horiz-adv-x="1032" d="M287 836q54 7 112.5 27.5t108 57.5t81.5 93t32 135q0 45 -13 84.5t-40.5 69.5t-70 47.5t-100.5 17.5q-68 0 -122.5 -19t-97.5 -48t-75 -64.5t-53 -69.5l-14 7l65 206q39 16 79 30.5t84.5 25t95 16.5t110.5 6q31 0 69 -5.5t77.5 -18.5t76.5 -34.5t66.5 -53.5t47 -75.5 t17.5 -99.5q0 -70 -28 -122.5t-69 -91t-87 -63t-82 -38.5q60 -5 122.5 -25t113.5 -60.5t83.5 -105.5t32.5 -159q0 -107 -39.5 -203t-106.5 -179t-155 -153t-185.5 -125t-198 -95t-191.5 -62l-19 51q144 36 268 102t215.5 160.5t144 216.5t52.5 270q0 83 -24 139t-62.5 89.5 t-86 48t-95.5 14.5q-29 0 -54 -3t-44 -7q-22 -4 -41 -10v76v0z"/>
    <glyph glyph-name="four" unicode="4" horiz-adv-x="1174" d="M924 1458v-4q-5 -21 -9 -52t-6.5 -77t-4 -109.5t-1.5 -148.5v-616q91 2 148.5 6t91.5 12h4v-143h-4q-34 6 -91.5 11t-148.5 7q1 -73 3 -128t6 -95.5t9 -69t11 -47.5v-4h-240v4q6 19 11 47.5t8.5 69t6 95.5t3.5 128h-686v45l868 1069h21zM721 451v628l-506 -628h506z"/>
    <glyph glyph-name="five" unicode="5" horiz-adv-x="954" d="M31 -174q144 36 264.5 90t208.5 127.5t137 167.5t49 209q0 114 -46 194t-125.5 131t-187 75t-229.5 26l129 588h191q85 0 148.5 0.5t109.5 1t77 1.5t52 3h4v-217h-4q-21 6 -52 11t-77 9t-109.5 6t-148.5 2h-148l-53 -225q81 -2 160 -15.5t151 -41t133.5 -69t106.5 -98 t70.5 -129t25.5 -161.5q0 -115 -35 -208t-95 -168t-140 -133t-170.5 -102t-186.5 -76t-188 -54z"/>
    <glyph glyph-name="six" unicode="6" horiz-adv-x="1143" d="M1047 1602q-193 -75 -333.5 -181t-231.5 -236t-135 -279q-19 -63 -30 -128q79 57 154 84q106 39 199 39q73 0 148.5 -27.5t136 -84t99 -141.5t38.5 -199q0 -89 -29.5 -175.5t-89 -154t-150 -109t-211.5 -41.5q-104 0 -198.5 36.5t-166.5 111.5t-114.5 189.5t-42.5 271.5 q0 132 34 249.5t96 220.5t148 192.5t190 164.5t222 137t244 111zM303 598q0 -157 24.5 -263t69.5 -170.5t107.5 -92t138.5 -27.5q50 0 97.5 20.5t84.5 61.5t59.5 102t22.5 142q0 88 -27 164t-71.5 131.5t-101 87.5t-115.5 32q-53 0 -97.5 -8.5t-82.5 -23.5t-70 -35 q-19 -12 -35 -24q-4 -48 -4 -97z"/>
    <glyph glyph-name="seven" unicode="7" horiz-adv-x="1001" d="M522 1251q-85 0 -148.5 -2t-109.5 -6t-77 -9t-52 -11h-4v217h4q21 -2 52 -3.5t77 -2t109.5 -0.5h148.5h520v-21l-825 -1413h-115l725 1251h-305z"/>
    <glyph glyph-name="eight" unicode="8" horiz-adv-x="1102" d="M934 1153q0 -54 -21.5 -101t-57 -88.5t-81.5 -78t-96 -68.5q64 -45 125.5 -93.5t109.5 -102t77.5 -114t29.5 -130.5q0 -79 -32 -152.5t-92 -130.5t-147 -91t-198 -34q-124 0 -212.5 32t-145.5 85.5t-84 121.5t-27 140q0 69 25.5 127t70.5 108.5t107.5 94t136.5 82.5 q-52 40 -99.5 81t-83.5 85t-57.5 91.5t-21.5 100.5q0 94 37 158.5t94.5 105t126 58.5t131.5 18q81 0 151 -20t122 -58.5t82 -95.5t30 -131zM821 315q0 59 -30 112t-78 101.5t-109.5 95t-124.5 93.5q-68 -43 -112 -85.5t-70 -86.5t-36.5 -92t-10.5 -103q0 -70 23 -126 t64 -95.5t97 -61t121 -22.5q53 -1 101 15.5t85 50.5t58.5 85t21.5 119zM354 1176q0 -45 21.5 -85.5t57.5 -79t84 -76t101 -75.5q41 25 74 54t56.5 64t36 77.5t12.5 93.5q0 68 -21.5 113.5t-54.5 72.5t-72.5 38t-75.5 11q-42 0 -81.5 -13t-70 -39t-49 -65t-18.5 -91z"/>
    <glyph glyph-name="nine" unicode="9" horiz-adv-x="1135" d="M-102 -156q108 8 211.5 41.5t198.5 88t178.5 128t150 162t114 190t70.5 212.5q-42 -26 -78.5 -44.5t-75 -30.5t-82 -18t-98.5 -6q-69 0 -145.5 26t-140.5 80t-106 137t-42 198q0 78 30 158.5t90.5 145t152.5 105.5t217 41q97 0 187.5 -36t160.5 -109.5t111.5 -184.5 t41.5 -262q0 -132 -41 -260.5t-115 -244.5t-177 -215.5t-228 -174t-267 -119.5t-294 -53zM600 672q59 0 120 17t114 52q5 28 6.5 57t1.5 60q0 125 -27 222.5t-72 164.5t-104.5 102t-124.5 35q-50 0 -98 -19t-86 -58t-61 -99t-23 -143t25 -154.5t71 -124t111.5 -82.5 t146.5 -30z"/>
    <glyph glyph-name="colon" unicode=":" horiz-adv-x="481" d="M133 702q0 22 8.5 42t22.5 34t33.5 22.5t42.5 8.5t42.5 -8.5t34 -22.5t23 -34t8.5 -42q0 -46 -31 -77t-77 -31q-23 0 -42.5 8.5t-33.5 23t-22.5 34t-8.5 42.5zM133 88q0 22 8.5 41.5t22.5 34t33.5 23t42.5 8.5t42.5 -8.5t34 -23t23 -34t8.5 -41.5q0 -46 -31 -77t-77 -31 q-23 0 -42.5 8.5t-33.5 23t-22.5 34t-8.5 42.5z"/>
    <glyph glyph-name="semicolon" unicode=";" horiz-adv-x="481" d="M133 88q0 22 8.5 41.5t22.5 34t33.5 23t42.5 8.5t42.5 -9.5t34 -26t23 -38.5t8.5 -47q0 -39 -17.5 -85t-46 -94t-64.5 -94.5t-73 -87.5l-26 23q49 59 79.5 117t35.5 127q-44 2 -73.5 32t-29.5 76zM133 702q0 22 8.5 42t22.5 34t33.5 22.5t42.5 8.5t42.5 -8.5t34 -22.5 t23 -34t8.5 -42q0 -46 -31 -77t-77 -31q-23 0 -42.5 8.5t-33.5 23t-22.5 34t-8.5 42.5z"/>
    <glyph glyph-name="less" unicode="&lt;" horiz-adv-x="1331" d="M1106 1145l37 -90l-807 -353l807 -352l-37 -90l-924 404v77z"/>
    <glyph glyph-name="equal" unicode="=" horiz-adv-x="1331" d="M164 846v102h1003v-102h-1003zM164 457v102h1003v-102h-1003z"/>
    <glyph glyph-name="greater" unicode="&gt;" horiz-adv-x="1331" d="M1149 739v-73l-924 -406l-37 90l807 352l-807 353l37 90z"/>
    <glyph glyph-name="question" unicode="?" horiz-adv-x="817" d="M225 88q0 22 8.5 41.5t22.5 34t33.5 23t42.5 8.5t42.5 -8.5t34 -23t23 -34t8.5 -41.5q0 -46 -31 -77t-77 -31q-23 0 -42.5 8.5t-33.5 23t-22.5 34t-8.5 42.5zM340 1374q-54 0 -99 -17t-78 -42.5t-54.5 -54.5t-28.5 -52h-19l35 183q16 7 40.5 18t57.5 22t74.5 19t91.5 8 q68 0 135 -17t120.5 -55t86.5 -99t33 -148q0 -73 -28.5 -138.5t-71.5 -128t-92.5 -124t-92.5 -127t-71.5 -138t-28.5 -155.5h-47q0 92 18.5 168t46.5 142.5t61 126t61 118.5t46.5 121t18.5 133q0 64 -18 109t-48 73.5t-68.5 41.5t-80.5 13z"/>
    <glyph glyph-name="at" unicode="@" horiz-adv-x="2013" d="M668 434q0 65 27 113t71 81t101.5 54t118 33t120 17t108.5 7v41q0 55 -14 94.5t-39 65.5t-60.5 38.5t-78.5 12.5q-30 0 -59 -4.5t-60 -16t-65 -31t-74 -50.5l-8 4l55 117q56 24 108 33.5t115 9.5q86 0 147.5 -21.5t100.5 -58t57.5 -86t18.5 -105.5v-430q0 -48 32 -75 t85 -27q65 0 123 38t101.5 105t69 159t25.5 200q0 139 -51.5 255.5t-144 200t-220 130t-280.5 46.5q-180 0 -329 -61t-256.5 -170.5t-166.5 -260t-59 -329.5q0 -169 60.5 -307t168.5 -236.5t256.5 -152t325.5 -53.5q77 0 153 11t151 35.5t148.5 64.5t145.5 98l49 -58 q-150 -112 -313 -168.5t-340 -56.5q-219 0 -396 64t-302.5 176.5t-193 267t-67.5 336.5q0 117 33 227.5t94 207.5t147 178t193 139t231.5 90t262.5 32q175 0 320 -52t248.5 -146.5t160.5 -226.5t57 -292q0 -113 -31 -215.5t-86.5 -180.5t-132.5 -124.5t-170 -46.5 q-86 0 -141.5 32t-77.5 77q-18 -17 -46 -36t-63 -34.5t-76.5 -26t-86.5 -10.5q-144 0 -222.5 67t-78.5 191zM1214 674q-75 -1 -144 -9t-122.5 -32.5t-85 -70.5t-31.5 -122q0 -96 49 -147t134 -51q40 0 72.5 11t57.5 27.5t42.5 37t27.5 38.5v318z"/>
    <glyph glyph-name="A" unicode="A" horiz-adv-x="1389" d="M1135 0v4q2 5 3 15t1 18q0 31 -8.5 68.5t-32.5 93.5l-121 272q-56 2 -149 2h-201h-152.5t-132.5 -2l-115 -264q-15 -37 -32 -81t-17 -89q0 -13 2 -21.5t4 -11.5v-4h-204v4q18 19 45 67.5t59 121.5l573 1271h80l543 -1222q19 -43 39.5 -83.5t38.5 -72.5t32 -54t19 -28v-4 h-274zM487 559q58 0 119 0.5t119.5 1t112.5 1t98 1.5l-281 635l-276 -639h108z"/>
    <glyph glyph-name="B" unicode="B" horiz-adv-x="1149" d="M172 1042q0 85 -2 148.5t-6 110t-9.5 77.5t-11.5 52v4q20 -1 42 -1q19 -1 42.5 -1h48.5q36 0 97.5 7t158.5 7q90 0 166 -23.5t131.5 -67.5t87 -108.5t31.5 -146.5q0 -69 -19 -123.5t-53.5 -95t-83 -68t-106.5 -43.5q85 -13 155 -43.5t120.5 -76.5t78 -107.5t27.5 -136.5 q0 -211 -139 -316.5t-416 -105.5q-30 0 -70 2.5t-81.5 5.5t-81.5 5.5t-70 2.5h-66v4q6 21 11.5 52t9.5 77t6 109.5t2 148.5v651zM539 709q-68 0 -114 -5t-71 -10v-303q0 -117 4 -193t11 -124q38 -5 76 -9t61 -4q187 0 273.5 83.5t86.5 256.5q0 68 -20.5 124.5t-61 97.5 t-102 63.5t-143.5 22.5zM354 784q28 -3 50 -3.5t47 -0.5q68 0 124 19.5t95.5 58.5t61.5 97.5t22 136.5q0 65 -16 118t-47.5 90.5t-77.5 57.5t-105 20q-38 0 -66.5 -3t-48.5 -7q-23 -4 -39 -10v-574z"/>
    <glyph glyph-name="C" unicode="C" horiz-adv-x="1386" d="M1303 1214l-9 -4q-78 72 -187.5 115t-240.5 43q-126 0 -231 -39.5t-180.5 -114.5t-117.5 -184t-42 -248q0 -153 40 -285.5t119 -229.5t197.5 -152.5t276.5 -55.5q57 0 114 12t109.5 35.5t99 57t84.5 76.5l11 -7l-80 -204q-75 -29 -165.5 -44.5t-182.5 -15.5 q-185 0 -338.5 53.5t-264 151.5t-172 235.5t-61.5 305.5q0 95 24.5 187t71.5 175t116 152.5t157.5 120.5t195 79.5t230.5 28.5q193 0 358 -59z"/>
    <glyph glyph-name="D" unicode="D" horiz-adv-x="1462" d="M362 1348q-2 -112 -4 -217q-1 -45 -1.5 -92t-1 -92.5t-1 -87t-0.5 -73.5q0 -67 1 -162t2.5 -195t4.5 -192t7 -153q14 -2 37.5 -4.5t49.5 -4t51 -2.5t42 -1q70 0 143.5 9.5t142 35.5t129 71.5t106 117.5t71.5 173.5t26 239.5q0 153 -37 272.5t-108.5 201.5t-177 124.5 t-242.5 42.5q-27 0 -61 -1.5t-67.5 -3t-63 -4t-48.5 -3.5zM143 1438q23 -1 43 -2q17 -1 35 -1.5t29 -0.5q19 0 63.5 2t101.5 4t118.5 4t115.5 2q145 0 276 -36t230 -118t157 -215t58 -327q0 -139 -30.5 -250t-85.5 -196t-131.5 -145.5t-169 -99.5t-197.5 -57t-217 -18 q-40 0 -96.5 2.5t-113.5 5.5t-107.5 5.5t-78.5 2.5v4q6 21 11.5 52t9.5 77t6 109.5t2 148.5v651q0 85 -2 149.5t-6 111t-9.5 78.5t-11.5 53v4z"/>
    <glyph glyph-name="E" unicode="E" horiz-adv-x="1004" d="M143 1434q125 0 248.5 1t226.5 2.5t176 4.5t99 8l-49 -133q-33 9 -77 16q-38 6 -92.5 11.5t-125.5 5.5q-24 0 -57.5 -1.5t-64.5 -3.5q-36 -2 -73 -4v-546q103 1 186 6t141 10q68 6 120 14l-31 -145q-69 9 -141 17q-62 7 -135 12.5t-140 5.5v-627q118 0 217 10t173 23 q86 14 157 33l-29 -162q-12 1 -36 2t-53.5 2t-62 1.5t-61.5 1t-51.5 1t-32.5 0.5h-432v4q6 21 11.5 52t9.5 77t6 109.5t2 148.5v651q0 85 -2 148.5t-6 110t-9.5 77.5t-11.5 52v4v0z"/>
    <glyph glyph-name="F" unicode="F" horiz-adv-x="954" d="M354 391q0 -85 2.5 -148.5t6 -109.5t9 -77t11.5 -52v-4h-240v4q6 21 11.5 52t9.5 77t6 109.5t2 148.5v651q0 85 -2 148.5t-6 110t-9.5 77.5t-11.5 52v4q83 0 168 0.5t165 1t152 2t130 3t98 4t57 5.5l-49 -133q-33 9 -77 16q-38 6 -92.5 11.5t-125.5 5.5q-24 0 -60 -1.5 t-71 -3.5q-40 -2 -84 -4v-505q103 1 189 6t148 10q72 6 130 14l-30 -145q-75 9 -152 17q-66 7 -142 12.5t-143 5.5v-365z"/>
    <glyph glyph-name="G" unicode="G" horiz-adv-x="1520" d="M1405 168q0 -11 -2.5 -23t-11.5 -20q-45 -34 -97.5 -62.5t-113.5 -49.5t-131.5 -32.5t-151.5 -11.5q-182 0 -332 53.5t-257.5 151.5t-166.5 235.5t-59 305.5q0 95 24.5 187t71.5 175t116 152.5t157.5 120.5t195 79.5t230.5 28.5q48 0 98 -4.5t99 -13t94.5 -20.5t86.5 -27 l68 -185l-8 -4q-39 35 -90 65t-109 52t-121.5 34.5t-128.5 12.5q-126 0 -231 -39.5t-180.5 -114.5t-117.5 -184t-42 -248q0 -153 40 -284t119 -227t197.5 -150.5t276.5 -54.5q70 0 125 11t93 27.5t57.5 36t19.5 35.5v39q0 70 -2 121t-6 88.5t-9 64.5t-12 50v4h240v-4 q-6 -21 -11.5 -49.5t-9.5 -67.5t-6 -91.5t-2 -121.5v-41z"/>
    <glyph glyph-name="H" unicode="H" horiz-adv-x="1489" d="M1135 686q-40 1 -100 1.5t-130.5 1.5t-147 1.5t-149.5 1t-139 -0.5t-115 -3v-297q0 -85 2.5 -148.5t6 -109.5t9 -77t11.5 -52v-4h-240v4q6 21 11.5 52t9.5 77t6 109.5t2 148.5v651q0 85 -2 148.5t-6 110t-9.5 77.5t-11.5 52v4h240v-4q-6 -21 -11.5 -52t-9 -77.5t-6 -110 t-2.5 -148.5v-256q52 -2 118 -2.5t138 0t146.5 1.5t144 2.5t130 3.5t104.5 4v247q0 85 -2.5 148.5t-6 110t-9 77.5t-11.5 52v4h240v-4q-6 -21 -11.5 -52t-9.5 -77.5t-6 -110t-2 -148.5v-651q0 -85 2 -148.5t6 -109.5t9.5 -77t11.5 -52v-4h-240v4q6 21 11.5 52t9 77t6 109.5 t2.5 148.5v295z"/>
    <glyph glyph-name="I" unicode="I" horiz-adv-x="543" d="M152 4q6 21 11 52t9 77t6 109.5t2 148.5v651q0 85 -2 148.5t-6 110t-9 77.5t-11 52v4h239v-4q-6 -21 -11.5 -52t-9 -77.5t-6 -110t-2.5 -148.5v-651q0 -85 2.5 -148.5t6 -109.5t9 -77t11.5 -52v-4h-239v4z"/>
    <glyph glyph-name="J" unicode="J" horiz-adv-x="510" d="M346 207q0 -135 -27.5 -234t-77 -175.5t-117 -136.5t-147.5 -118l-18 25q69 63 109.5 131t62 145.5t27.5 167t6 195.5v835q0 85 -2 148.5t-6 110t-9.5 77.5t-11.5 52v4h240v-4q-6 -21 -11.5 -52t-9.5 -77.5t-6 -110t-2 -148.5v-835z"/>
    <glyph glyph-name="K" unicode="K" horiz-adv-x="1323" d="M143 4q6 21 11.5 52t9.5 77t6 109.5t2 148.5v651q0 85 -2 148.5t-6 110t-9.5 77.5t-11.5 52v4h240v-4q-6 -21 -11.5 -52t-9 -77.5t-6 -110t-2.5 -148.5v-223l584 477q98 80 98 138h281v-4q-59 -14 -119.5 -53.5t-128.5 -96.5l-516 -432l621 -682q39 -40 66.5 -66.5 t48.5 -44t38.5 -29t36.5 -22.5v-4h-293q-4 9 -13.5 23t-22 29t-27 31t-27.5 30l-627 688v-410q0 -85 2.5 -148.5t6 -109.5t9 -77t11.5 -52v-4h-240v4z"/>
    <glyph glyph-name="L" unicode="L" horiz-adv-x="942" d="M354 88q118 0 217 10t173 23q86 14 157 33l-29 -162q-12 1 -36 2t-53.5 2t-62 1.5t-61.5 1t-51.5 1t-32.5 0.5h-432v4q6 21 11.5 52t9.5 77t6 109.5t2 148.5v651q0 85 -2 148.5t-6 110t-9.5 77.5t-11.5 52v4h240v-4q-6 -21 -11.5 -52t-9 -77.5t-6 -110t-2.5 -148.5v-954z "/>
    <glyph glyph-name="M" unicode="M" horiz-adv-x="2085" d="M72 4q11 16 25 47.5t22 79.5q11 70 24.5 157.5t28 183.5t29 196.5t28 198t26 188t22.5 165.5t16.5 130.5t9.5 83.5h127l629 -1176l624 1176h95l164 -1188q7 -56 15 -96t16 -68.5t15.5 -47t14.5 -30.5v-4h-252v4q5 11 9.5 36t4.5 60q0 13 -1 26.5t-3 29.5l-127 958 l-590 -1110l-69 8l-594 1112q-35 -237 -61 -438q-11 -86 -22 -171.5t-19.5 -159.5t-13.5 -130.5t-5 -83.5q0 -34 2 -60t4 -44q3 -21 6 -37h-200v4z"/>
    <glyph glyph-name="N" unicode="N" horiz-adv-x="1513" d="M199 1434l1030 -1096v704q0 85 -2 148.5t-6 110t-9.5 77.5t-11.5 52v4h178v-4q-6 -21 -11 -52t-9 -77.5t-6 -110t-2 -148.5v-1062h-35l-1030 1095v-684q0 -85 2 -148.5t6 -109.5t9 -77t11 -52v-4h-178v4q6 21 11.5 52t9.5 77t6 109.5t2 148.5v651q0 85 -2 148.5t-6 110 t-9.5 77.5t-11.5 52v4h64z"/>
    <glyph glyph-name="O" unicode="O" horiz-adv-x="1651" d="M797 1458q167 0 308.5 -54.5t244.5 -153t161 -236.5t58 -305q0 -95 -22 -187t-64.5 -174t-104.5 -151.5t-141.5 -120t-175.5 -79t-207 -28.5q-167 0 -308.5 53.5t-244.5 151.5t-161 235.5t-58 305.5q0 95 22 187t64.5 175t104 152.5t141 120.5t176 79.5t207.5 28.5z M854 59q111 0 203 40t158.5 116t103.5 185.5t37 248.5q0 154 -35.5 285.5t-105.5 228t-174.5 151t-243.5 54.5q-111 0 -203 -39.5t-158.5 -114.5t-103.5 -184t-37 -248q0 -153 35 -285.5t105 -229.5t175 -152.5t244 -55.5z"/>
    <glyph glyph-name="P" unicode="P" horiz-adv-x="1049" d="M354 635q98 -18 179.5 -3.5t140 62t91 128.5t32.5 198q0 81 -17 147.5t-50.5 113t-84.5 72t-119 25.5q-43 0 -75 -3.5t-54 -7.5q-26 -5 -43 -11v-721zM143 1434q20 -2 42 -4q19 -2 42.5 -2.5t48.5 -0.5q39 0 105.5 9.5t169.5 9.5q96 0 177.5 -28t141.5 -82t93.5 -131.5 t33.5 -176.5q0 -133 -53 -230t-142 -157t-205 -81.5t-243 -2.5v-166q0 -85 2.5 -148.5t6 -109.5t9 -77t11.5 -52v-4h-240v4q6 21 11.5 52t9.5 77t6 109.5t2 148.5v651q0 85 -2 148.5t-6 110t-9.5 77.5t-11.5 52v4z"/>
    <glyph glyph-name="Q" unicode="Q" horiz-adv-x="1651" d="M797 1458q167 0 308.5 -54.5t244.5 -153t161 -236.5t58 -305q0 -113 -31 -220.5t-90 -200t-144.5 -164t-193.5 -112.5q30 -56 62.5 -114.5t73 -115t92.5 -108.5t120 -95t156 -76t201 -50q-1 -3 -3 -7t-4 -8.5t-4 -10.5q-131 4 -242.5 32.5t-205 73t-170.5 100.5 t-138.5 114.5t-108.5 116t-81 105.5q-169 0 -311 53.5t-245.5 151.5t-161.5 235.5t-58 305.5q0 95 22 187t64.5 175t104 152.5t141 120.5t176 79.5t207.5 28.5zM854 59q111 0 203 40t158.5 116t103.5 185.5t37 248.5q0 154 -35.5 285.5t-105.5 228t-174.5 151t-243.5 54.5 q-111 0 -203 -39.5t-158.5 -114.5t-103.5 -184t-37 -248q0 -153 35 -285.5t105 -229.5t175 -152.5t244 -55.5z"/>
    <glyph glyph-name="R" unicode="R" horiz-adv-x="1210" d="M354 391q0 -85 2.5 -148.5t6 -109.5t9 -77t11.5 -52v-4h-240v4q6 21 11.5 52t9 77t6 109t2.5 149v651q0 85 -2.5 148.5t-6 109.5t-9 77.5t-11.5 52.5v4l42 -4q19 -2 42.5 -2.5t48.5 -0.5q39 0 105.5 9.5t169.5 9.5q96 0 177.5 -26t141.5 -76t93.5 -122.5t33.5 -164.5 q0 -72 -18.5 -133.5t-52 -111.5t-80.5 -88.5t-105 -64.5l351 -493q26 -37 48.5 -64t43 -46.5t39.5 -32t39 -19.5v-4h-289q-3 19 -19.5 50.5t-38.5 62.5l-354 499q-23 -2 -46 -3.5t-47 -1.5q-28 0 -56.5 2t-57.5 7v-225zM354 694q27 -6 55 -8.5t54 -2.5q75 0 137 22.5 t105.5 68.5t67.5 114.5t24 160.5q0 75 -17 136t-50.5 103.5t-84.5 66t-119 23.5q-69 0 -110 -7t-62 -15v-662z"/>
    <glyph glyph-name="S" unicode="S" horiz-adv-x="932" d="M741 1206h-22q-8 23 -25.5 52t-46 54.5t-69 42.5t-95.5 17q-49 0 -87 -15t-63.5 -42t-38.5 -64t-13 -82q0 -72 40.5 -137.5t101.5 -129.5t132 -128t132 -133t101.5 -144.5t40.5 -162.5q0 -65 -22.5 -130.5t-69.5 -117.5t-121 -84.5t-176 -32.5q-57 0 -108.5 10.5t-95 26 t-78 33.5t-56.5 33l23 221h25q11 -47 36 -89.5t61.5 -75t83.5 -52t103 -19.5q51 0 91.5 15.5t69.5 43t44.5 65.5t15.5 83q0 63 -23 116.5t-60.5 101.5t-85 93t-97.5 90.5t-97.5 93.5t-85 102.5t-60.5 117t-23 137.5q0 79 30.5 142.5t81 108.5t114.5 69t132 24q50 0 92 -8 t75.5 -19t58.5 -22t41 -18z"/>
    <glyph glyph-name="T" unicode="T" horiz-adv-x="1223" d="M520 1346q-118 0 -213 -10.5t-164 -22.5q-80 -15 -143 -33l29 162q12 -1 36 -2t53.5 -2t62 -1.5t61.5 -1t51.5 -1t32.5 -0.5h571q10 0 32.5 0.5t51.5 1t61.5 1t62 1.5t53.5 2t36 2l29 -162q-64 18 -144 33q-69 12 -164 22.5t-213 10.5v-955q0 -85 2.5 -148.5t6 -109.5 t9 -77t11.5 -52v-4h-239v4q6 21 11 52t9 77t6 109.5t2 148.5v955z"/>
    <glyph glyph-name="U" unicode="U" horiz-adv-x="1454" d="M1169 1042q0 85 -2 148.5t-6 110t-9 77.5t-11 52v4h178v-4q-6 -21 -11.5 -52t-9 -77.5t-6 -110t-2.5 -148.5v-540q0 -143 -41 -244t-114 -165.5t-175 -94t-223 -29.5t-225.5 28t-182 90.5t-121.5 162t-44 242.5v550q0 85 -2 148.5t-6 110t-9.5 77.5t-11.5 52v4h240v-4 q-6 -21 -11.5 -52t-9.5 -77.5t-6 -110t-2 -148.5v-561q0 -119 35.5 -196.5t93.5 -123t132 -63.5t151 -18t151 18t131.5 63.5t93 123t35.5 196.5v561z"/>
    <glyph glyph-name="V" unicode="V" horiz-adv-x="1348" d="M233 1434v-4q-2 -5 -3 -15t-1 -18q0 -31 8.5 -68.5t32.5 -93.5l443 -999l428 991q15 37 32 81t17 89q0 12 -2 20.5t-4 12.5v4h205v-4q-19 -19 -46 -68t-59 -121l-573 -1272h-80l-543 1223q-19 43 -39.5 83t-38.5 72.5t-32 54.5t-19 28v4h274z"/>
    <glyph glyph-name="W" unicode="W" horiz-adv-x="2077" d="M1079 1245l400 -971l389 953q23 59 34 100t11 70q0 9 -1 18.5t-3 14.5v4h198v-4q-20 -22 -43.5 -70t-54.5 -119l-534 -1272h-76l-389 944l-355 -944h-75l-490 1223q-18 43 -36.5 83t-35 72t-30 54t-19.5 29v4h277v-4q-2 -11 -2 -17v-14q0 -34 7.5 -72t29.5 -92l376 -950 l359 956z"/>
    <glyph glyph-name="X" unicode="X" horiz-adv-x="1430" d="M678 627l-354 -449q-20 -24 -39 -49.5t-34 -49.5t-24.5 -44.5t-9.5 -34.5h-194v4q22 19 62.5 58t86.5 98l440 553l-452 594q-37 48 -73 80.5t-54 42.5v4h313q0 -12 3.5 -31t13.5 -44.5t27.5 -56.5t45.5 -67l289 -379l319 399q18 22 35.5 48t31 50.5t22 45.5t8.5 35h194 v-4q-10 -8 -22 -19t-27.5 -27t-34.5 -38t-43 -52l-417 -526l466 -610q48 -62 89.5 -102.5t60.5 -51.5v-4h-311q0 23 -19 76t-71 123z"/>
    <glyph glyph-name="Y" unicode="Y" horiz-adv-x="1272" d="M727 688v-297q0 -85 2 -148.5t6 -109.5t9.5 -77t11.5 -52v-4h-240v4q6 21 11.5 52t9 77t6 109.5t2.5 148.5v277l-447 608q-23 31 -45.5 57t-42.5 45.5t-36 32.5t-25 19v4h303q0 -23 19.5 -75.5t70.5 -123.5l328 -449l321 469q17 25 34 51t31 50t22.5 44t8.5 34h195v-4 q-22 -19 -59 -56.5t-80 -99.5z"/>
    <glyph glyph-name="Z" unicode="Z" horiz-adv-x="1315" d="M297 88h428q117 0 216.5 10t173.5 23q86 14 157 33l-49 -162q-12 1 -36 2t-53.5 2t-62 1.5t-61.5 1t-51.5 1t-32.5 0.5h-903v25l974 1321h-376q-118 0 -217.5 -10.5t-173.5 -22.5q-86 -15 -156 -33l69 162q12 -1 36.5 -2t54 -2t61.5 -1.5t61 -1t51.5 -1t32.5 -0.5h832 v-27z"/>
    <glyph glyph-name="bracketleft" unicode="[" horiz-adv-x="637" d="M152 -252q6 21 11 52t9 77t6 109.5t2 148.5v969q0 85 -2 148.5t-6 109.5t-9 77t-11 52v4h28q84 0 145.5 0.5t106.5 1t76.5 2t54 3t40 4t34.5 5.5l-49 -133q-31 9 -72 16q-35 6 -86 11t-117 6v-1583q63 1 108 3t77 5t52.5 7t35 8.5t24.5 9.5t21 10l-23 -135q-12 1 -36 2 t-53.5 2t-62 1.5t-61.5 1t-51.5 1t-32.5 0.5h-159v4z"/>
    <glyph glyph-name="backslash" unicode="\" horiz-adv-x="893" d="M872 -63l-92 -46l-760 1614l93 45z"/>
    <glyph glyph-name="bracketright" unicode="]" horiz-adv-x="637" d="M324 1495h161v-4q-6 -21 -11 -52t-9 -77t-6 -109.5t-2 -148.5v-969q0 -85 2 -148.5t6 -109.5t9 -77t11 -52v-4h-159q-10 0 -35 -0.5t-57 -1t-68 -1t-69 -1.5t-59 -2t-38 -2l41 135q16 -9 35 -16t50 -12.5t78.5 -9.5t119.5 -5v1583q-69 -1 -127.5 -6t-102.5 -11 q-51 -7 -94 -16l41 133q21 -4 39 -7t46.5 -5t74.5 -3t123 -1z"/>
    <glyph glyph-name="asciicircum" unicode="^" d="M510 1290l-326 -342l-34 25l307 461h112l308 -461l-35 -25l-326 342h-6z"/>
    <glyph glyph-name="underscore" unicode="_" d="M0 -365h1024v-118h-1024v118z"/>
    <glyph glyph-name="grave" unicode="`" d="M375 1477q57 -53 119 -105q53 -45 118.5 -96t130.5 -94l-22 -37q-35 18 -72 34.5t-74.5 32.5t-73.5 30t-68 26q-77 28 -150 53z"/>
    <glyph glyph-name="a" unicode="a" horiz-adv-x="1059" d="M74 295q0 79 32.5 137t86.5 99t123 66.5t143 40t146 20t132 6.5v51q0 66 -17 114t-48 79.5t-74.5 47t-95.5 15.5q-36 0 -71 -6t-72.5 -20t-79 -38t-89.5 -61l-10 6l68 141q33 15 65 24.5t65 15.5t67.5 8.5t72.5 2.5q105 0 179.5 -25.5t122 -70t69.5 -104t22 -127.5v-326 q0 -85 2.5 -148.5t6 -109.5t9 -77t11.5 -52v-4h-221v4q5 16 7.5 36t4.5 48q-21 -18 -49.5 -37t-65 -34.5t-81 -25t-97.5 -9.5q-174 0 -269 81.5t-95 231.5zM737 586q-91 -1 -175 -10.5t-148.5 -39.5t-103 -85.5t-38.5 -147.5q0 -118 59 -180t163 -62q48 0 87.5 13.5t70 34 t51.5 45t32 47.5q2 38 2 84.5v105.5v195z"/>
    <glyph glyph-name="b" unicode="b" horiz-adv-x="1196" d="M328 973q63 34 135 51.5t147 17.5q111 0 205.5 -37.5t163.5 -106.5t108 -168t39 -222q0 -103 -35.5 -198t-106 -168t-175 -116.5t-242.5 -43.5q-16 0 -42.5 1t-58.5 4t-68 8t-70 13q-48 11 -96.5 24.5t-92.5 30.5q4 15 7 50.5t4.5 76.5t2.5 80.5t1 63.5v770 q0 85 -2.5 148.5t-6 109.5t-9 77t-11.5 52v4h231v-4q-6 -21 -11 -52t-9 -77t-6 -109.5t-2 -148.5v-131zM328 350q0 -81 1.5 -134t4.5 -85q42 -32 114 -54t158 -22q71 0 130 28t101 81t65.5 129t23.5 172q0 108 -20 200.5t-62 160t-107 105.5t-155 38q-76 0 -142 -31 t-112 -90v-498z"/>
    <glyph glyph-name="c" unicode="c" horiz-adv-x="1034" d="M985 213l-74 -178q-27 -12 -62 -22t-72.5 -17t-75.5 -10.5t-72 -3.5q-121 0 -223.5 35.5t-177 103.5t-116.5 167t-42 226q0 113 43.5 209.5t121 167.5t182.5 111t228 40q56 0 120 -9.5t114 -24.5l71 -170l-12 -7q-25 31 -59.5 56.5t-76 43.5t-87.5 28t-94 10 q-78 0 -142 -27.5t-110 -79.5t-71.5 -127.5t-25.5 -171.5q0 -108 24.5 -201t73 -161.5t122 -107t172.5 -38.5q46 0 91.5 11.5t86 33t74.5 51.5t57 68z"/>
    <glyph glyph-name="d" unicode="d" horiz-adv-x="1237" d="M610 1042q41 0 82 -7t80 -20t74 -32t63 -43v164q0 85 -2 148.5t-6 109.5t-9 77t-11 52v4h231v-4q-6 -21 -11.5 -52t-9 -77t-6 -109.5t-2.5 -148.5v-713q0 -85 2.5 -148.5t6 -109.5t9 -77t11.5 -52v-4h-221v4q3 8 5 23.5t5 38.5q-51 -32 -128 -58t-179 -26q-119 0 -216 37 t-165.5 106t-105.5 167.5t-37 221.5q0 113 40 209.5t112 167.5t171 111t217 40zM909 764q-40 105 -114.5 155t-167.5 50q-78 0 -144 -27.5t-113 -79.5t-73.5 -127.5t-26.5 -171.5q0 -108 24 -201t70.5 -161.5t115.5 -107t159 -38.5q47 0 88 11t75 28t60 37.5t43 40.5 q2 43 3 98t1 121v373z"/>
    <glyph glyph-name="e" unicode="e" horiz-adv-x="1110" d="M602 -18q-111 0 -208 35t-169 102.5t-113.5 167t-41.5 227.5q0 113 38 209.5t105 167.5t156.5 111t193.5 40q103 0 191 -35.5t152.5 -103t102 -167t40.5 -226.5q-113 2 -226 3t-235 1q-87 0 -169.5 -1t-148.5 -3q6 -104 32.5 -188t73 -143.5t113 -91.5t150.5 -32 q58 0 109.5 13.5t93.5 37.5t75 56.5t56 70.5l12 -6l-74 -178q-54 -28 -129 -47.5t-180 -19.5zM469 592q100 0 200.5 0.5t182.5 3.5q-9 87 -34 156t-64 117t-92 74t-117 26q-58 0 -106.5 -25.5t-84.5 -73.5t-58 -117.5t-26 -158.5q45 -2 95 -2h104z"/>
    <glyph glyph-name="f" unicode="f" horiz-adv-x="655" d="M524 1432q-25 0 -53.5 -9t-52.5 -33t-40 -66.5t-16 -109.5v-190q53 1 99.5 3t83.5 4t62 4.5t36 4.5l-18 -102q-35 1 -76 3q-35 2 -83 3t-104 2v-555q0 -85 2.5 -148.5t6 -109.5t9 -77t11.5 -52v-4h-231v4q6 21 11 52t9 77t6 109.5t2 148.5v555l-168 -6v88q31 -2 74 -3 t94 -1v168q0 77 22.5 136.5t62.5 100t96 61.5t123 21q37 0 69 -5t57.5 -12t45 -14.5t32.5 -13.5l39 -172l-12 -6q-16 24 -35 49.5t-43 46.5t-53.5 34.5t-67.5 13.5z"/>
    <glyph glyph-name="g" unicode="g" horiz-adv-x="1196" d="M541 -457q81 0 137 17.5t92.5 48.5t56 74.5t29 95.5t11 111t1.5 122v33q-49 -26 -118 -44.5t-156 -18.5q-119 0 -216 37t-165.5 106t-105.5 167.5t-37 221.5q0 113 36.5 210t103 168t159 111.5t204.5 40.5q48 0 88 -8t74.5 -21.5t65 -31t59.5 -37.5l-10 74v4h221v-4 q-6 -21 -11.5 -52t-9 -77t-6 -109.5t-2.5 -148.5v-680q0 -92 -24.5 -179.5t-83 -155.5t-154.5 -109t-239 -41q-50 0 -101 9.5t-97 23t-83 29.5t-59 28l-31 192l16 4q24 -52 65.5 -91.5t90.5 -66t101.5 -40t97.5 -13.5zM639 55q72 0 130.5 24t98.5 56v498q0 56 -1 101.5 t-1 82.5q-24 37 -55.5 65.5t-67 48t-72.5 30t-73 10.5q-76 0 -137 -28t-103.5 -80.5t-65 -128t-22.5 -171.5q0 -108 24 -201t70.5 -161.5t115.5 -107t159 -38.5z"/>
    <glyph glyph-name="h" unicode="h" horiz-adv-x="1163" d="M842 674q0 132 -53 194t-142 62q-33 0 -73.5 -13.5t-83 -36.5t-84.5 -53.5t-78 -64.5v-371q0 -85 2 -148.5t6 -109.5t9 -77t11 -52v-4h-231v4q6 21 11.5 52t9 77t6 109.5t2.5 148.5v713q0 85 -2.5 148.5t-6 109.5t-9 77t-11.5 52v4h231v-4q-6 -21 -11 -52t-9 -77 t-6 -109.5t-2 -148.5v-256q40 36 88.5 71t100.5 63t106 45t106 17q78 0 132.5 -27t89 -71t50 -100.5t15.5 -114.5v-340q0 -85 2 -148.5t6 -109.5t9 -77t11 -52v-4h-231v4q6 21 11.5 52t9 77t6 109.5t2.5 148.5v283z"/>
    <glyph glyph-name="i" unicode="i" horiz-adv-x="494" d="M160 633q0 85 -2.5 148.5t-6 109.5t-9 77t-11.5 52v4h231v-4q-6 -21 -11 -52t-9 -77t-6 -109.5t-2 -148.5v-242q0 -85 2 -148.5t6 -109.5t9 -77t11 -52v-4h-231v4q6 21 11.5 52t9 77t6 109.5t2.5 148.5v242zM139 1327q0 22 8.5 41.5t22.5 34t33.5 23t42.5 8.5t42.5 -8.5 t34 -23t23 -34t8.5 -41.5q0 -46 -31 -77t-77 -31q-23 0 -42.5 8.5t-33.5 23t-22.5 34t-8.5 42.5z"/>
    <glyph glyph-name="j" unicode="j" horiz-adv-x="485" d="M156 633q0 85 -2.5 148.5t-6 109.5t-9 77t-11.5 52v4h231v-4q-6 -21 -11 -52t-9 -77t-6 -109.5t-2 -148.5v-529q0 -135 -29.5 -234t-81 -175t-121 -136.5t-149.5 -117.5l-19 24q69 63 113 131t69 145.5t34.5 167t9.5 195.5v529zM135 1327q0 22 8.5 41.5t22.5 34t33.5 23 t42.5 8.5t42.5 -8.5t34 -23t23 -34t8.5 -41.5q0 -46 -31 -77t-77 -31q-23 0 -42.5 8.5t-33.5 23t-22.5 34t-8.5 42.5z"/>
    <glyph glyph-name="k" unicode="k" horiz-adv-x="995" d="M154 1104q0 85 -2.5 148.5t-6 109.5t-9 77t-11.5 52v4h231v-4q-6 -21 -11 -52t-9 -77t-6 -109.5t-2 -148.5v-498l327 293q86 75 86 125h232v-4q-26 -8 -49.5 -20.5t-47 -29.5t-49 -38.5t-55.5 -48.5l-293 -267l402 -475q18 -22 39 -44.5t42 -41.5t41 -33t37 -18v-4h-290 q0 26 -13.5 54t-48.5 71l-360 428v-162q0 -85 2 -148.5t6 -109.5t9 -77t11 -52v-4h-231v4q6 21 11.5 52t9 77t6 109.5t2.5 148.5v713z"/>
    <glyph glyph-name="l" unicode="l" horiz-adv-x="494" d="M160 1104q0 85 -2.5 148.5t-6 109.5t-9 77t-11.5 52v4h231v-4q-6 -21 -11 -52t-9 -77t-6 -109.5t-2 -148.5v-713q0 -85 2 -148.5t6 -109.5t9 -77t11 -52v-4h-231v4q6 21 11.5 52t9 77t6 109.5t2.5 148.5v713z"/>
    <glyph glyph-name="m" unicode="m" horiz-adv-x="1810" d="M821 674q0 66 -13.5 114t-39 79.5t-61.5 47t-80 15.5q-30 0 -67 -12t-76.5 -32.5t-79 -47.5t-74.5 -58q-2 -32 -2 -68.5v-78.5v-242q0 -85 2 -148.5t6 -109.5t9 -77t11 -52v-4h-231v4q6 21 11.5 52t9 77t6 109.5t2.5 148.5v242q0 85 -2.5 148.5t-6 109.5t-9 77t-11.5 52 v4h231v-4q-8 -23 -12.5 -58.5t-9.5 -89.5q40 32 86 63t94.5 55t97.5 39t97 15q57 0 101 -15t77 -41t55.5 -61t34.5 -75q41 35 89.5 69.5t100 61.5t105 44t104.5 17q78 0 132.5 -27t89 -71t50 -100.5t15.5 -114.5v-340q0 -85 2 -148.5t6 -109.5t9.5 -77t11.5 -52v-4h-232v4 q6 21 11.5 52t9.5 77t6 109.5t2 148.5v283q0 132 -53 194t-142 62q-31 0 -68.5 -12t-77.5 -33t-80 -48.5t-75 -58.5q2 -12 2 -24v-23v-340q0 -85 2.5 -148.5t6 -109.5t9 -77t11.5 -52v-4h-231v4q6 21 11 52t9 77t6 109.5t2 148.5v283z"/>
    <glyph glyph-name="n" unicode="n" horiz-adv-x="1163" d="M842 674q0 132 -53 194t-142 62q-32 0 -72 -13.5t-82 -36t-84 -52.5t-79 -64l-2 -131v-242q0 -85 2 -148.5t6 -109.5t9 -77t11 -52v-4h-231v4q6 21 11.5 52t9 77t6 109.5t2.5 148.5v242q0 85 -2.5 148.5t-6 109.5t-9 77t-11.5 52v4h231v-4q-8 -25 -12.5 -63.5 t-9.5 -100.5q41 34 88.5 68t98.5 60.5t104 43t104 16.5q78 0 132.5 -27t89 -71t50 -100.5t15.5 -114.5v-340q0 -85 2 -148.5t6 -109.5t9 -77t11 -52v-4h-231v4q6 21 11.5 52t9 77t6 109.5t2.5 148.5v283z"/>
    <glyph glyph-name="o" unicode="o" horiz-adv-x="1231" d="M70 514q0 113 42 209.5t115.5 167.5t173.5 111t215 40q113 0 212.5 -37.5t173.5 -106.5t116.5 -168t42.5 -222q0 -103 -36 -198t-106 -168t-171.5 -116.5t-233.5 -43.5q-112 0 -211 37t-173 106t-117 167.5t-43 221.5zM637 55q71 0 130.5 28t102.5 81t67 129t24 172 q0 108 -23 200.5t-68.5 160t-114.5 105.5t-161 38q-71 0 -130 -27.5t-102.5 -79.5t-67.5 -127.5t-24 -171.5q0 -108 23.5 -201t69.5 -161.5t114.5 -107t159.5 -38.5z"/>
    <glyph glyph-name="p" unicode="p" horiz-adv-x="1196" d="M154 653q0 85 -2.5 148.5t-6 109.5t-9 77t-11.5 52v4h231v-4q-5 -15 -9 -34t-7 -43q59 34 130.5 57.5t158.5 23.5q111 0 202.5 -37.5t157 -107.5t101.5 -169t36 -222q0 -103 -35.5 -198t-104 -168t-168.5 -116.5t-230 -43.5q-78 0 -142 12t-118 31v-146q0 -85 2 -148.5 t6 -109.5t9 -77t11 -52v-4h-231v4q6 21 11.5 52t9 77t6 109.5t2.5 148.5v774zM594 969q-34 0 -69.5 -8.5t-70 -24t-66 -39t-56.5 -53.5q-2 -38 -3 -86t-1 -105v-524q20 -15 45 -28t56.5 -23.5t71 -16.5t87.5 -6q78 0 141 28t106.5 81t67 129t23.5 172q0 108 -18 200.5 t-57.5 160t-102.5 105.5t-154 38z"/>
    <glyph glyph-name="q" unicode="q" horiz-adv-x="1196" d="M868 18q-27 -8 -57 -15t-61.5 -11.5t-62.5 -7t-58 -2.5q-121 0 -223.5 35.5t-177 103.5t-116.5 167t-42 226q0 113 43.5 209.5t121 167.5t182.5 111t228 40q53 0 112.5 -7t108.5 -19q47 -11 97 -23.5t94 -29.5q-4 -15 -6.5 -50.5t-4.5 -76.5t-3 -80.5t-1 -63.5v-813 q0 -85 2.5 -148.5t6 -109.5t9 -77t11.5 -52v-4h-231v4q6 21 11 52t9 77t6 109.5t2 148.5v139zM868 676q0 83 -1.5 136t-4.5 87q-51 32 -113 51t-128 19q-78 0 -142 -27.5t-110 -79.5t-71.5 -127.5t-25.5 -171.5q0 -108 24.5 -201t73 -161.5t122 -107t172.5 -38.5 q54 0 106.5 15.5t97.5 44.5v561z"/>
    <glyph glyph-name="r" unicode="r" horiz-adv-x="803" d="M154 633q0 85 -2.5 148.5t-6 109.5t-9 77t-11.5 52v4h231v-4q-8 -23 -13.5 -56t-8.5 -85q37 31 77 61t82 53t85.5 37t87.5 14q27 0 47 -2.5t36 -7t29 -10t25 -10.5l-49 -191l-17 4q-12 44 -45 70.5t-90 26.5q-31 0 -65 -11t-69 -30.5t-70 -45t-68 -53.5q-2 -29 -2 -63 v-72v-258q0 -85 2 -148.5t6 -109.5t9 -77t11 -52v-4h-231v4q6 21 11.5 52t9 77t6 109.5t2.5 148.5v242z"/>
    <glyph glyph-name="s" unicode="s" horiz-adv-x="725" d="M606 823l-14 -2q-7 23 -22.5 49t-40 48t-59 36.5t-79.5 14.5q-31 0 -58.5 -9t-48 -26.5t-32.5 -43.5t-12 -61q0 -49 30.5 -93.5t76.5 -88t99.5 -87.5t99.5 -92t76.5 -102.5t30.5 -117.5q0 -51 -18 -99.5t-55.5 -86.5t-96 -61.5t-139.5 -23.5q-48 0 -89.5 9t-76 22.5 t-62 30t-48.5 31.5l10 190h16q10 -47 30 -86t49.5 -66.5t67.5 -43t83 -15.5q74 0 117.5 41t43.5 107q0 53 -29.5 97.5t-74.5 85.5t-96.5 82t-96.5 87.5t-74.5 102t-29.5 126.5q0 58 21.5 106.5t60 83t91.5 53.5t116 19q83 0 138.5 -17.5t84.5 -33.5z"/>
    <glyph glyph-name="t" unicode="t" horiz-adv-x="786" d="M516 59q30 0 59.5 11t57 30t53 43.5t47.5 51.5l10 -5l-65 -161q-12 -6 -29.5 -14.5t-42 -16t-57.5 -13t-78 -5.5q-134 0 -208.5 72.5t-74.5 226.5v667l-168 -6v88q31 -2 74 -3t94 -1q-1 71 -3.5 125.5t-6 95t-8.5 68.5t-10 47v4h231v-4q-6 -19 -11 -47t-8.5 -68t-6 -94.5 t-3.5 -126.5q63 1 123.5 2.5t110 4t84 5t45.5 4.5l-18 -102q-51 1 -107 3q-48 2 -110 3t-128 2v-688q0 -62 13.5 -100.5t35 -60.5t49 -30t56.5 -8z"/>
    <glyph glyph-name="u" unicode="u" horiz-adv-x="1163" d="M322 350q0 -132 52.5 -194t141.5 -62q32 0 72 13.5t82.5 36t85 52.5t78.5 64q2 29 2 61.5v69.5v242q0 85 -2.5 148.5t-6 109.5t-9 77t-11.5 52v4h231v-4q-6 -21 -11 -52t-9 -77t-6 -109.5t-2 -148.5v-242q0 -85 2 -148.5t6 -109.5t9 -77t11 -52v-4h-231v4q6 25 12.5 64 t9.5 102q-41 -35 -88.5 -69t-99 -61t-104 -43.5t-103.5 -16.5q-78 0 -132.5 27t-89 71t-50 100t-15.5 115v340q0 85 -2 148.5t-6 109.5t-9 77t-11 52v4h231v-4q-6 -21 -11 -52t-9 -77t-6 -109.5t-2 -148.5v-283z"/>
    <glyph glyph-name="v" unicode="v" horiz-adv-x="975" d="M248 1024v-4q-2 -5 -3 -15t-1 -18q0 -31 9 -68.5t32 -93.5l239 -569l242 561q15 37 32 81t17 89q0 13 -2 21.5t-4 11.5v4h180v-4q-18 -19 -45.5 -67.5t-58.5 -121.5l-369 -845h-59l-342 796q-18 44 -38.5 84.5t-39 72.5t-32.5 53.5t-19 27.5v4h262z"/>
    <glyph glyph-name="w" unicode="w" horiz-adv-x="1538" d="M829 932l267 -672l223 557q7 18 16 40.5t16 46t12 45t5 38.5q0 13 -2 21.5t-4 11.5v4h180v-4q-18 -19 -43.5 -62.5t-60.5 -126.5l-355 -845h-57l-258 626l-258 -626h-57l-328 796q-18 44 -38.5 84.5t-39 72.5t-32.5 53.5t-19 27.5v4h266v-4q-2 -5 -3 -15t-1 -18 q0 -31 9.5 -68.5t31.5 -93.5l223 -565l269 672h38z"/>
    <glyph glyph-name="x" unicode="x" horiz-adv-x="1071" d="M502 430l-240 -303q-13 -17 -26.5 -35t-24 -35t-17 -32t-6.5 -25h-168v4q16 14 44.5 42t60.5 69l315 399l-309 418q-26 34 -51 58t-37 30v4h274q0 -17 12.5 -53.5t49.5 -87.5l170 -232l194 246q12 16 24.5 34t22 35.5t15.5 32.5t6 25h168v-4q-14 -11 -35 -32t-55 -64 l-279 -355l336 -454q34 -45 63 -74t42 -37v-4h-273q0 17 -13 54.5t-48 86.5z"/>
    <glyph glyph-name="y" unicode="y" horiz-adv-x="1026" d="M475 12l-352 770q-19 44 -41 84.5t-41.5 72.5t-34.5 53.5t-20 27.5v4h262v-4q-2 -5 -3 -15t-1 -18q0 -31 9.5 -68.5t35.5 -93.5l276 -600l252 592q16 37 32.5 81t16.5 89q0 13 -2 21.5t-4 11.5v4h180v-4q-18 -19 -45.5 -67.5t-58.5 -121.5l-477 -1136q-16 -37 -32.5 -81 t-16.5 -89q0 -13 2 -21.5t4 -11.5v-4h-187v4q19 19 46.5 66.5t58.5 119.5z"/>
    <glyph glyph-name="z" unicode="z" horiz-adv-x="954" d="M256 78h297q78 0 144 8.5t114 19.5q56 12 102 29l-45 -143q-12 1 -41.5 2.5t-62 3t-61.5 2t-39 0.5h-648v25l646 921h-209q-83 0 -152.5 -9t-120.5 -20q-60 -12 -108 -28l65 143q12 -2 41.5 -3t62.5 -2.5t61.5 -2t39.5 -0.5h563v-18z"/>
    <glyph glyph-name="braceleft" unicode="{" horiz-adv-x="637" d="M250 418q0 37 -8.5 68.5t-28.5 55.5t-52.5 39t-80.5 19v41q48 4 80.5 19t52.5 39t28.5 55.5t8.5 68.5q0 36 -6.5 85.5t-14 104t-14 109.5t-6.5 101q0 78 25 130.5t68.5 84t103.5 44.5t129 13l14 -37q-33 0 -70 -3t-67.5 -22t-51 -60t-20.5 -116q0 -41 5.5 -91.5t12 -105 t12 -110t5.5 -106.5q0 -55 -15.5 -93t-42.5 -63.5t-62.5 -41t-74.5 -25.5q39 -10 74.5 -26t62.5 -42t42.5 -64t15.5 -92q0 -51 -5.5 -106.5t-12 -110t-12 -105t-5.5 -91.5q0 -75 20.5 -116t51 -60t67.5 -22t70 -3l-14 -37q-69 0 -129 13t-103.5 44.5t-68.5 84t-25 130.5 q0 46 6.5 101t14 110t14 104.5t6.5 84.5z"/>
    <glyph glyph-name="bar" unicode="|" d="M459 1565h106v-2048h-106v2048z"/>
    <glyph glyph-name="braceright" unicode="}" horiz-adv-x="637" d="M387 823q0 -37 8.5 -68.5t28.5 -55.5t52.5 -39t80.5 -19v-41q-48 -4 -80.5 -19t-52.5 -39t-28.5 -55.5t-8.5 -68.5q0 -35 6.5 -84.5t14 -104.5t14 -110t6.5 -101q0 -78 -25 -130.5t-68.5 -84t-103.5 -44.5t-129 -13l-14 37q33 0 70 3t67.5 22t51 60t20.5 116 q0 41 -5.5 91.5t-12 105t-12 110t-5.5 106.5q0 55 15.5 93t42.5 63.5t62.5 41.5t74.5 26q-39 10 -74.5 25.5t-62.5 41.5t-42.5 64t-15.5 92q0 51 5.5 106.5t12 110t12 105t5.5 91.5q0 75 -20.5 116t-51 60t-67.5 22t-70 3l14 37q69 0 129 -13t103.5 -44.5t68.5 -84 t25 -130.5q0 -46 -6.5 -101t-14 -109.5t-14 -104t-6.5 -85.5z"/>
    <glyph glyph-name="asciitilde" unicode="~" horiz-adv-x="1331" d="M915 690q41 0 72 11t55 29t41 40t29 43l72 -49q-45 -87 -114.5 -129.5t-160.5 -42.5q-55 0 -120 19t-131 42.5t-128.5 42.5t-113.5 19q-41 0 -72 -11t-55 -29t-41 -40t-29 -43l-72 49q45 87 114.5 129.5t160.5 42.5q55 0 120 -19t131 -42.5t128.5 -42.5t113.5 -19z"/>
    <glyph glyph-name="nonbreakingspace" unicode=" " horiz-adv-x="614"/>
    <glyph glyph-name="exclamdown" unicode="¡" horiz-adv-x="502" d="M356 1346q0 -23 -8.5 -42.5t-22.5 -33.5t-33.5 -22.5t-41.5 -8.5q-23 0 -43 8.5t-34.5 22.5t-23 33.5t-8.5 42.5q0 46 31 77t78 31q22 0 41.5 -8.5t33.5 -23t22.5 -34t8.5 -42.5zM268 1106q19 -225 32.5 -390t23.5 -283t16.5 -194.5t11.5 -124t9 -72t8 -38.5v-4h-238v4 q4 14 8 38.5t8.5 72t11.5 124t16.5 194.5t23 283t32.5 390h37z"/>
    <glyph glyph-name="cent" unicode="¢" horiz-adv-x="973" d="M532 102q-98 6 -180.5 40.5t-142.5 94.5t-93.5 144.5t-33.5 191.5q0 94 33.5 176t93.5 144t142.5 100.5t180.5 46.5v226h62v-224q48 -2 100 -11t94 -23l72 -170l-12 -7q-20 29 -48 54t-61.5 43t-70.5 28.5t-74 12.5v-793h24q40 0 79 11.5t73.5 33t63.5 51.5t49 68l12 -6 l-74 -178q-23 -12 -51 -21.5t-58 -16.5t-60 -11t-58 -5v-243h-62v243zM274 616q0 -81 16 -153t48.5 -128.5t80.5 -95.5t113 -55v781q-58 -8 -105.5 -35t-81.5 -71.5t-52.5 -105.5t-18.5 -137z"/>
    <glyph glyph-name="sterling" unicode="£" horiz-adv-x="1130" d="M172 610q34 -2 92.5 -3t120.5 -1q-13 57 -36 110t-45 108.5t-38 117t-16 135.5q0 70 18.5 125t49.5 97.5t71 72.5t83 49t86 28t79 9q56 0 99.5 -5t80.5 -14.5t69.5 -23t67.5 -29.5l47 -202l-14 -6q-8 18 -29 49t-56.5 61t-87.5 52t-122 22q-45 0 -88 -14.5t-76 -47.5 t-53 -86t-20 -129q0 -61 11 -118t24 -115t24 -118.5t12 -127.5q109 2 183 7t96 10l-19 -103q-34 1 -75 3q-35 2 -83.5 3t-107.5 2q-11 -74 -48 -161t-112 -195h447q32 0 62.5 1.5t56 5t44 9.5t27.5 15h4v-203h-878v20q79 73 132 139t84.5 125.5t44.5 114t13 105.5q0 6 -1 12 t-1 12q-32 0 -65 -0.5t-62.5 -1t-54.5 -2t-41 -2.5v88z"/>
    <glyph glyph-name="currency" unicode="¤" horiz-adv-x="1241" d="M623 1208q-65 0 -123.5 -25.5t-102.5 -69.5t-70 -102.5t-26 -123.5q0 -68 25 -127t68.5 -102.5t102.5 -69t126 -25.5q66 0 124.5 26t102 70.5t69 103.5t25.5 124q0 64 -25 122.5t-68 102.5t-102 70t-126 26zM158 1407l204 -205q63 47 126 69.5t133 22.5q140 0 262 -92 l202 205l60 -61l-203 -203q88 -116 88 -258q0 -146 -88 -258l203 -203l-60 -62l-202 205q-115 -90 -262 -90q-75 0 -137.5 22t-121.5 68l-204 -205l-60 62l205 203q-90 119 -90 258t90 258l-205 203z"/>
    <glyph glyph-name="yen" unicode="¥" horiz-adv-x="1292" d="M184 772q56 -2 137.5 -3t178.5 -1h2l-344 508q-21 31 -42 57t-39.5 45.5t-33 32.5t-23.5 19v4h304q0 -23 16.5 -75.5t62.5 -123.5l287 -438l281 458q15 25 30.5 51t28 50t20 44t7.5 34h194v-4q-20 -19 -53 -56.5t-74 -99.5l-329 -506q67 1 125 2t103.5 2.5t76.5 3.5t45 4 l-29 -84q-45 1 -101 2q-48 1 -114.5 2t-146.5 2l-6 -8v-151q76 1 141.5 2t117.5 2.5t87.5 3.5t50.5 4l-29 -84q-46 1 -103 2q-49 1 -116.5 2t-148.5 2v-86q0 -85 2 -148.5t6 -109.5t9 -77t11 -52v-4h-239v4q6 21 11 52t9 77t6 109.5t2 148.5v88h-24q-54 0 -107.5 -0.5 t-101.5 -1t-88 -2t-68 -2.5l8 74q56 -2 137.5 -3t178.5 -1h65v133l-20 29h-4q-54 0 -107.5 -0.5t-101.5 -1.5t-88 -2.5t-68 -2.5z"/>
    <glyph glyph-name="brokenbar" unicode="¦" d="M459 408h106v-758h-106v758zM459 1432h106v-758h-106v758z"/>
    <glyph glyph-name="section" unicode="§" d="M811 498q0 -63 -26.5 -124.5t-82.5 -105.5q35 -46 55.5 -97.5t20.5 -111.5q0 -52 -15.5 -104t-50 -93t-91 -67t-138.5 -26q-43 0 -83 8t-75 21t-62.5 28t-45.5 29l6 215h25q13 -45 33.5 -87.5t50.5 -75.5t71 -53t95 -20q44 0 77 14.5t55 40t33 60t11 74.5q0 55 -20 100.5 t-52 85.5t-73.5 76.5t-85 73.5t-85 76.5t-73.5 85t-52 100t-20 120.5q0 75 28 128.5t76 88.5q-32 47 -51.5 100.5t-19.5 121.5q0 69 25.5 121t68 87t96.5 52.5t111 17.5q62 0 108.5 -13t75.5 -26v-182h-22q-9 21 -25 48t-40.5 51t-58 40.5t-77.5 16.5q-42 0 -74.5 -14.5 t-54.5 -39.5t-33.5 -58t-11.5 -69q0 -48 20.5 -91.5t54 -84.5t76.5 -80t87.5 -79t87.5 -82t76.5 -88t54 -98t20.5 -111zM707 461q0 51 -17.5 94t-46.5 81.5t-67 73t-78 69.5t-80 70.5t-74 76.5q-25 -29 -34 -69.5t-9 -82.5q0 -45 17.5 -85t46.5 -78t66.5 -74.5t78.5 -73 t81.5 -74.5t76.5 -78q21 31 30 71.5t9 78.5z"/>
    <glyph glyph-name="dieresis" unicode="¨" d="M236 1313q0 19 7 36t19.5 29.5t29 19.5t36.5 7q19 0 36 -7t29.5 -19.5t19.5 -29.5t7 -36t-7 -36t-19.5 -29.5t-29.5 -19.5t-36 -7q-20 0 -36.5 7t-29 19.5t-19.5 29.5t-7 36zM604 1313q0 19 7 36t19.5 29.5t29.5 19.5t36 7t36 -7t29.5 -19.5t19.5 -29.5t7 -36t-7 -36 t-19.5 -29.5t-29.5 -19.5t-36 -7t-36 7t-29.5 19.5t-19.5 29.5t-7 36z"/>
    <glyph glyph-name="copyright" unicode="©" horiz-adv-x="1733" d="M164 680q0 97 25 186.5t71 167.5t110 142t142 110t167.5 71t186.5 25t186.5 -25t167.5 -71t142.5 -110t110.5 -142t71 -167.5t25 -186.5q0 -145 -55.5 -273t-151 -223.5t-223.5 -151t-273 -55.5q-97 0 -186.5 25t-167.5 71t-142 110.5t-110 142.5t-71 167.5t-25 186.5z M1161 948l-10 -6q-43 40 -100.5 67t-128.5 27q-69 0 -126 -21.5t-98 -63t-63.5 -101.5t-22.5 -137q0 -86 21.5 -159.5t64.5 -127.5t107 -84.5t149 -30.5q63 0 121 29.5t99 79.5l12 -6l-47 -125q-42 -22 -96.5 -33.5t-108.5 -11.5q-107 0 -196 31t-152.5 87.5t-99 136 t-35.5 177.5q0 82 31.5 159.5t91 137.5t144 96.5t191.5 36.5q57 0 111 -11.5t102 -33.5zM260 680q0 -125 47.5 -235.5t130 -193t193 -130t235.5 -47.5q83 0 160.5 21.5t145 61t123 95t95 123t61.5 144.5t22 161q0 83 -22 160.5t-61.5 145t-95 123t-123 95t-145 61 t-160.5 21.5q-125 0 -235.5 -47.5t-193 -130t-130 -193t-47.5 -235.5z"/>
    <glyph glyph-name="ordfeminine" unicode="ª" horiz-adv-x="760" d="M66 969q0 52 21.5 89.5t57.5 64.5t82 43.5t95 26t96.5 13t87.5 4.5v21q0 87 -43.5 129.5t-112.5 42.5q-47 0 -101 -18t-106 -68l-10 8l47 100q45 19 87 26t93 7q69 0 122 -16.5t89 -45.5t54 -67.5t18 -83.5v-213q0 -56 1.5 -97.5t4 -71.5t6 -50t7.5 -33v-4h-168v4 q3 10 5.5 24.5t4.5 33.5q-15 -12 -35 -25.5t-44.5 -24t-54 -17.5t-63.5 -7q-115 0 -178 54t-63 151zM506 1153q-61 -1 -113.5 -6.5t-91.5 -23.5t-61.5 -53t-22.5 -95q0 -77 38 -112.5t97 -35.5q28 0 52.5 8.5t44 22t34 28.5t23.5 29v117v121z"/>
    <glyph glyph-name="guillemotleft" unicode="«" horiz-adv-x="911" d="M82 537q8 6 28.5 24.5t49 45.5t63.5 61.5t72 73t74 79t69 80.5l37 -27q-30 -43 -59 -89t-55 -91t-48 -86.5t-39 -75.5q17 -34 39 -75t47.5 -86t54.5 -91t60 -90l-37 -26q-32 39 -69 80t-74 79t-72 72.5t-63.5 61.5t-49 45.5t-28.5 25.5v9zM430 537q8 6 28.5 24.5t49 45.5 t63.5 61.5t72 73t74 79t69 80.5l37 -27q-30 -43 -58.5 -89t-54.5 -91t-48 -86.5t-39 -75.5q17 -34 39 -75t47.5 -86t54 -91t59.5 -90l-37 -26q-32 39 -69 80t-74 79t-72 72.5t-63.5 61.5t-49 45.5t-28.5 25.5v9z"/>
    <glyph glyph-name="logicalnot" unicode="¬" horiz-adv-x="1331" d="M1065 303v451h-922v102h1024v-553h-102z"/>
    <glyph glyph-name="uni00AD" unicode="­" horiz-adv-x="840" d="M82 457v143h676v-143h-676z"/>
    <glyph glyph-name="registered" unicode="®" horiz-adv-x="1352" d="M678 1374q-92 0 -172.5 -36t-141.5 -97.5t-96 -143.5t-35 -173t34.5 -172t94 -142t140.5 -97t174 -36q95 0 176.5 36.5t141 98.5t93 142.5t33.5 169.5q0 94 -36 176.5t-97 143t-141 95.5t-168 35zM678 1458q107 0 203 -41.5t169 -113.5t115.5 -170t42.5 -211 q0 -102 -40.5 -198t-112.5 -170t-170 -118.5t-213 -44.5q-106 0 -202 42t-168.5 114.5t-115.5 169.5t-43 207q0 109 42 206t115 170t170 115.5t208 42.5zM592 793q0 -73 3 -110t9 -54v-4h-135v4q6 17 9 54t3 110v284q0 74 -4.5 111.5t-7.5 52.5v4q17 -1 34 -1q14 -1 28.5 -1 h25.5q17 0 45.5 4t73.5 4t82.5 -11t65.5 -32.5t43.5 -53t15.5 -71.5q0 -41 -12.5 -71.5t-31 -51.5t-39.5 -34t-38 -19l145 -211q23 -32 40 -46.5t34 -20.5v-4h-156q0 8 -6.5 21.5t-15.5 27.5l-146 211q-2 0 -10.5 0.5t-18.5 1l-20 1t-16 1.5v-96zM592 936q9 -2 19 -3t20 -1 q29 0 54 8t43.5 26t29 46t10.5 69q0 65 -31.5 96t-81.5 31q-12 0 -23.5 -1.5t-20.5 -3.5q-11 -3 -19 -5v-262z"/>
    <glyph glyph-name="macron" unicode="¯" d="M246 1364h532v-98h-532v98z"/>
    <glyph glyph-name="degree" unicode="°" horiz-adv-x="586" d="M61 1227q0 48 18.5 90t50 73.5t73.5 49.5t90 18t90 -18t73.5 -49.5t49.5 -73.5t18 -90t-18 -90t-49.5 -73.5t-73.5 -50t-90 -18.5t-90 18.5t-73.5 50t-50 73.5t-18.5 90zM143 1227q0 -31 12 -58t32.5 -47.5t47.5 -32.5t58 -12t58 12t47 32.5t32 47.5t12 58t-12 58t-32 47 t-47 32t-58 12t-58 -12t-47.5 -32t-32.5 -47t-12 -58z"/>
    <glyph glyph-name="plusminus" unicode="±" horiz-adv-x="1331" d="M717 692v-450h-103v450h-471v103h471v450h103v-450h471v-103h-471zM143 37v102h1045v-102h-1045z"/>
    <glyph glyph-name="twosuperior" unicode="²" horiz-adv-x="733" d="M113 645q12 14 41.5 41.5t66 65.5t75.5 86.5t71.5 104.5t53.5 118.5t21 130.5q0 54 -13 91.5t-34.5 60t-51 32.5t-62.5 10q-48 0 -86.5 -12.5t-66.5 -29.5t-45.5 -34.5t-23.5 -27.5l-12 8l41 115q34 14 63.5 24t59.5 16.5t62.5 9.5t70.5 3q42 0 90 -12t89 -39.5t68 -72 t27 -109.5q0 -68 -31.5 -133t-78 -124.5t-100 -111.5t-97.5 -94h211q24 0 50 1t48.5 3.5t39.5 6.5t24 9h4v-155h-575v18v0z"/>
    <glyph glyph-name="threesuperior" unicode="³" horiz-adv-x="672" d="M180 1110q31 4 64.5 14t61.5 30t46.5 51.5t18.5 76.5q0 51 -29 80t-92 29q-42 0 -76 -8.5t-60 -23t-45.5 -32.5t-33.5 -37l-12 6l40 117q48 19 102.5 32t129.5 13q31 0 73.5 -7.5t80 -26t64 -50.5t26.5 -80q0 -40 -17.5 -70t-43.5 -52t-55 -36t-52 -22q37 -2 77 -13.5 t72 -34.5t53 -60t21 -91q0 -61 -26 -115.5t-69.5 -102t-101.5 -87.5t-121.5 -71.5t-129.5 -54t-126 -35.5l-16 36q86 20 161.5 56.5t131.5 89t88.5 121.5t32.5 153q0 48 -13.5 79t-35 49t-48.5 25t-53 7q-18 0 -34 -2t-28 -4q-14 -3 -26 -6v57v0z"/>
    <glyph glyph-name="acute" unicode="´" d="M741 1321q-74 -25 -150 -53q-33 -12 -69 -26t-73 -30t-74.5 -32.5t-71.5 -34.5l-22 37q65 43 129.5 94t118.5 96q62 52 120 105z"/>
    <glyph glyph-name="micro" unicode="µ" horiz-adv-x="1169" d="M573 109q50 0 98.5 14.5t86.5 45t61 77.5t23 112v275q0 85 -2.5 148.5t-6 109.5t-9 77t-11.5 52v4h231v-4q-6 -21 -11 -52t-9 -77t-6 -109.5t-2 -148.5v-242q0 -85 2 -148.5t6 -109.5t9 -77t11 -52v-4h-231v4q6 22 11.5 57t9.5 89q-36 -82 -102 -131.5t-159 -49.5 q-48 0 -86 13t-68 35.5t-52.5 52t-38.5 61.5v-88q0 -85 2 -148.5t6 -109.5t9 -77t11 -52v-4h-231v4q6 21 11.5 52t9 77t6 109.5t2.5 148.5v590q0 85 -2.5 148.5t-6 109.5t-9 77t-11.5 52v4h231v-4q-6 -21 -11 -52t-9 -77t-6 -109.5t-2 -148.5v-268q0 -65 18.5 -113 t51.5 -79.5t78 -47.5t97 -16z"/>
    <glyph glyph-name="paragraph" unicode="¶" horiz-adv-x="963" d="M770 1331v-4q-6 -21 -9.5 -52t-5.5 -77t-2.5 -109.5t-0.5 -148.5v-651q0 -86 0.5 -149t2.5 -109t5.5 -77t9.5 -52v-4h-123v4q2 7 5.5 40t6.5 85t5 119.5t2 142.5v966h-119v-966q0 -86 0.5 -149t2.5 -109t5.5 -77t9.5 -52v-4h-123v4q6 21 10 52t6 77t2.5 109t0.5 149v344 q-77 2 -146 26t-120.5 70.5t-82 115.5t-30.5 161q0 80 23 142.5t66 106t104 66t137 22.5q39 0 66.5 -2t56 -4.5t65.5 -4.5t94 -1h76z"/>
    <glyph glyph-name="periodcentered" unicode="·" horiz-adv-x="420" d="M102 707q0 22 8.5 41.5t23 33.5t34 22.5t41.5 8.5q23 0 42.5 -8.5t34 -22.5t23 -33.5t8.5 -41.5q0 -47 -31 -78t-77 -31q-22 0 -41.5 8.5t-34 23t-23 34.5t-8.5 43z"/>
    <glyph glyph-name="cedilla" unicode="¸" d="M741 -285q0 -39 -19 -71t-52.5 -54.5t-79 -34.5t-98.5 -12q-62 0 -116.5 13.5t-101.5 37.5l19 46q13 -6 29 -13.5t35.5 -13.5t44 -10t55.5 -4q66 0 107.5 32t41.5 84q0 57 -39 84t-96 27q-9 0 -24 -1t-23 -3l65 178h46l-48 -129q13 2 24.5 3t25.5 1q56 0 95 -14.5t63 -37 t35 -51.5t11 -57z"/>
    <glyph glyph-name="onesuperior" unicode="¹" horiz-adv-x="422" d="M117 631q4 12 7 30t5.5 43.5t4 61.5t1.5 84v371q0 48 -7.5 76.5t-17.5 44.5t-21.5 22t-18.5 10v4l235 66v-4q-5 -12 -8 -30t-5.5 -43.5t-3.5 -61.5t-1 -84v-371q0 -48 1 -84t3.5 -61.5t5.5 -43.5t8 -30v-4h-188v4z"/>
    <glyph glyph-name="ordmasculine" unicode="º" horiz-adv-x="866" d="M63 1110q0 75 28.5 138.5t78.5 110t118 73t146 26.5q77 0 144 -25t117 -70.5t79 -110.5t29 -146q0 -68 -24.5 -130.5t-72 -110.5t-116.5 -76.5t-158 -28.5q-76 0 -143 24.5t-117.5 70t-79.5 110t-29 145.5zM444 823q45 0 81.5 18t62.5 51.5t40.5 81t14.5 105.5 q0 67 -13.5 124.5t-41 100t-69 67t-97.5 24.5q-44 0 -80.5 -18t-63 -51t-41 -80t-14.5 -105q0 -67 14.5 -125t42.5 -101t69 -67.5t95 -24.5z"/>
    <glyph glyph-name="guillemotright" unicode="»" horiz-adv-x="911" d="M829 528q-8 -7 -28 -25t-49 -45t-64 -61.5t-72 -73t-74 -79t-69 -80.5l-37 26q30 43 59 89t55 91t48 86.5t39 75.5q-17 34 -39 75.5t-47.5 86t-54.5 90.5t-60 90l37 27q32 -40 69 -80.5t74 -78.5t72 -72.5t64 -61.5t49 -46t28 -25v-9zM481 528q-8 -7 -28 -25t-49 -45 t-64 -61.5t-72 -73t-74 -79t-69 -80.5l-37 26q30 43 59 89t55 91t48 86.5t39 75.5q-17 34 -39 75.5t-47.5 86t-54.5 90.5t-60 90l37 27q32 -40 69 -80.5t74 -78.5t72 -72.5t64 -61.5t49 -46t28 -25v-9z"/>
    <glyph glyph-name="onequarter" unicode="¼" horiz-adv-x="1440" d="M137 631q4 12 7.5 30t6 43.5t4 61.5t1.5 84v371q0 48 -7.5 76.5t-18 44.5t-21.5 22t-19 10v4l236 66v-4q-5 -12 -8.5 -30t-6 -43.5t-3.5 -61.5t-1 -84v-371q0 -48 1 -84t3.5 -61.5t6 -43.5t8.5 -30v-4h-189v4zM1241 831v-4q-3 -12 -5.5 -29.5t-4 -43.5t-2 -62t-0.5 -84 v-344q57 0 92.5 3.5t56.5 8.5h4v-100h-4q-21 3 -56.5 5.5t-92.5 4.5q0 -41 1 -70.5t3.5 -50.5t5.5 -35t8 -26v-4h-192v4q3 12 6 26t5.5 35t4 50.5t2.5 70.5h-411v35l563 610h16zM1073 264v297l-274 -297h274zM1106 1458l82 -53l-938 -1436l-82 54z"/>
    <glyph glyph-name="onehalf" unicode="½" horiz-adv-x="1559" d="M137 631q4 12 7.5 30t6 43.5t4 61.5t1.5 84v371q0 48 -7.5 76.5t-18 44.5t-21.5 22t-19 10v4l236 66v-4q-5 -12 -8.5 -30t-6 -43.5t-3.5 -61.5t-1 -84v-371q0 -48 1 -84t3.5 -61.5t6 -43.5t8.5 -30v-4h-189v4zM1106 1458l82 -53l-938 -1436l-82 54zM901 18q14 12 45 40 t70 67.5t80.5 89.5t76 108.5t56.5 122.5t22 132q0 46 -12 80.5t-32.5 57t-49 33.5t-61.5 11q-48 0 -85.5 -15t-64.5 -35.5t-43 -40.5t-22 -30l-13 8l50 131q34 14 60.5 24t52.5 16.5t55 9.5t67 3q42 0 90 -12t89 -39.5t68 -72t27 -109.5q0 -68 -34.5 -132.5t-85 -124 t-107 -112t-100.5 -94.5h211q24 0 49.5 1t48 3.5t40 6.5t24.5 10h4v-156h-576v18z"/>
    <glyph glyph-name="threequarters" unicode="¾" horiz-adv-x="1583" d="M1384 831v-4q-3 -12 -5.5 -29.5t-4 -43.5t-2 -62t-0.5 -84v-344q57 0 92.5 3.5t57.5 8.5h4v-100h-4q-22 3 -57.5 5.5t-92.5 4.5q0 -41 1 -70.5t3.5 -50.5t6 -35t8.5 -26v-4h-193v4q3 12 6 26t5.5 35t4.5 50.5t3 70.5h-412v35l563 610h16zM1217 264v297l-275 -297h275z M1249 1458l82 -53l-938 -1436l-82 54zM201 1110q31 4 64.5 14t61.5 30t46 51.5t18 76.5q0 51 -29 80t-92 29q-42 0 -75.5 -8.5t-60 -23t-46 -32.5t-33.5 -37l-12 6l41 117q47 19 101.5 32t129.5 13q31 0 73.5 -7.5t80 -26t64 -50.5t26.5 -80q0 -40 -17.5 -70t-43 -52 t-55 -36t-52.5 -22q38 -2 77.5 -13.5t72 -34.5t53 -60t20.5 -91t-24.5 -103t-67 -91t-98 -78t-118 -64t-127 -48t-124.5 -31l-16 37q86 18 159 49.5t126.5 77.5t83.5 106.5t30 134.5q0 48 -13.5 79t-35 49t-48 25t-52.5 7q-18 0 -34 -2t-28 -4q-14 -3 -26 -6v57z"/>
    <glyph glyph-name="questiondown" unicode="¿" horiz-adv-x="817" d="M592 1339q0 -22 -8.5 -41.5t-22.5 -33.5t-34 -22.5t-42 -8.5q-23 0 -42.5 8.5t-34 22.5t-23 33.5t-8.5 41.5q0 47 31 78t77 31q22 0 42 -8.5t34 -23t22.5 -34.5t8.5 -43zM477 53q55 0 99.5 17.5t77.5 43t54 54t29 51.5h19l-35 -182q-16 -7 -40.5 -18.5t-57.5 -22.5 t-74.5 -19t-91.5 -8q-68 0 -135 17t-120.5 55t-86.5 99t-33 149q0 73 28.5 138.5t71.5 128t92.5 124t92.5 127t71.5 138t28.5 155.5h47q0 -92 -18.5 -168.5t-46.5 -142.5t-61 -126t-61 -119t-46.5 -121t-18.5 -132q0 -64 18 -109t48 -73.5t69 -42t80 -13.5z"/>
    <glyph glyph-name="Agrave" unicode="À" horiz-adv-x="1389" d="M1135 0v4q2 5 3 15t1 18q0 31 -8.5 68.5t-32.5 93.5l-121 272q-56 2 -149 2h-201h-152.5t-132.5 -2l-115 -264q-15 -37 -32 -81t-17 -89q0 -13 2 -21.5t4 -11.5v-4h-204v4q18 19 45 67.5t59 121.5l573 1271h80l543 -1222q19 -43 39.5 -83.5t38.5 -72.5t32 -54t19 -28v-4 h-274zM487 559q58 0 119 0.5t119.5 1t112.5 1t98 1.5l-281 635l-276 -639h108zM453 1887q57 -53 119 -105q53 -45 118.5 -96t130.5 -94l-22 -37q-35 18 -72 34.5t-74.5 32.5t-73.5 30t-68 26q-77 28 -150 53z"/>
    <glyph glyph-name="Aacute" unicode="Á" horiz-adv-x="1389" d="M1135 0v4q2 5 3 15t1 18q0 31 -8.5 68.5t-32.5 93.5l-121 272q-56 2 -149 2h-201h-152.5t-132.5 -2l-115 -264q-15 -37 -32 -81t-17 -89q0 -13 2 -21.5t4 -11.5v-4h-204v4q18 19 45 67.5t59 121.5l573 1271h80l543 -1222q19 -43 39.5 -83.5t38.5 -72.5t32 -54t19 -28v-4 h-274zM487 559q58 0 119 0.5t119.5 1t112.5 1t98 1.5l-281 635l-276 -639h108zM1026 1731q-74 -25 -150 -53q-33 -12 -69 -26t-73 -30t-74.5 -32.5t-71.5 -34.5l-22 37q65 43 129.5 94t118.5 96q62 52 120 105z"/>
    <glyph glyph-name="Acircumflex" unicode="Â" horiz-adv-x="1389" d="M1135 0v4q2 5 3 15t1 18q0 31 -8.5 68.5t-32.5 93.5l-121 272q-56 2 -149 2h-201h-152.5t-132.5 -2l-115 -264q-15 -37 -32 -81t-17 -89q0 -13 2 -21.5t4 -11.5v-4h-204v4q18 19 45 67.5t59 121.5l573 1271h80l543 -1222q19 -43 39.5 -83.5t38.5 -72.5t32 -54t19 -28v-4 h-274zM487 559q58 0 119 0.5t119.5 1t112.5 1t98 1.5l-281 635l-276 -639h108zM694 1887q58 -53 120 -105q54 -45 119 -96t130 -94l-23 -37q-43 21 -90 43.5t-92.5 43.5t-87.5 38.5t-76 29.5q-34 -12 -75.5 -29.5t-87 -38t-92.5 -43t-91 -44.5l-23 37q65 43 130 94t119 96 q62 52 120 105z"/>
    <glyph glyph-name="Atilde" unicode="Ã" horiz-adv-x="1389" d="M1135 0v4q2 5 3 15t1 18q0 31 -8.5 68.5t-32.5 93.5l-121 272q-56 2 -149 2h-201h-152.5t-132.5 -2l-115 -264q-15 -37 -32 -81t-17 -89q0 -13 2 -21.5t4 -11.5v-4h-204v4q18 19 45 67.5t59 121.5l573 1271h80l543 -1222q19 -43 39.5 -83.5t38.5 -72.5t32 -54t19 -28v-4 h-274zM487 559q58 0 119 0.5t119.5 1t112.5 1t98 1.5l-281 635l-276 -639h108zM987 1805q-23 -43 -43 -74.5t-41 -52.5t-45.5 -31t-54.5 -10q-26 0 -62 11.5t-74 25t-72 25t-55 11.5q-35 0 -61 -18t-51 -61l-29 16q22 43 42 74.5t41.5 52.5t45.5 31t55 10q25 0 61.5 -11.5 t74.5 -25.5t72 -25.5t55 -11.5q35 0 61 18.5t51 61.5l29 -16v0z"/>
    <glyph glyph-name="Adieresis" unicode="Ä" horiz-adv-x="1389" d="M1135 0v4q2 5 3 15t1 18q0 31 -8.5 68.5t-32.5 93.5l-121 272q-56 2 -149 2h-201h-152.5t-132.5 -2l-115 -264q-15 -37 -32 -81t-17 -89q0 -13 2 -21.5t4 -11.5v-4h-204v4q18 19 45 67.5t59 121.5l573 1271h80l543 -1222q19 -43 39.5 -83.5t38.5 -72.5t32 -54t19 -28v-4 h-274zM487 559q58 0 119 0.5t119.5 1t112.5 1t98 1.5l-281 635l-276 -639h108zM418 1723q0 19 7 36t19.5 29.5t29 19.5t36.5 7q19 0 36 -7t29.5 -19.5t19.5 -29.5t7 -36t-7 -36t-19.5 -29.5t-29.5 -19.5t-36 -7q-20 0 -36.5 7t-29 19.5t-19.5 29.5t-7 36zM786 1723 q0 19 7 36t19.5 29.5t29.5 19.5t36 7t36 -7t29.5 -19.5t19.5 -29.5t7 -36t-7 -36t-19.5 -29.5t-29.5 -19.5t-36 -7t-36 7t-29.5 19.5t-19.5 29.5t-7 36z"/>
    <glyph glyph-name="Aring" unicode="Å" horiz-adv-x="1389" d="M1135 0v4q2 5 3 15t1 18q0 31 -8.5 68.5t-32.5 93.5l-121 272q-56 2 -149 2h-201h-152.5t-132.5 -2l-115 -264q-15 -37 -32 -81t-17 -89q0 -13 2 -21.5t4 -11.5v-4h-204v4q18 19 45 67.5t59 121.5l573 1271h80l543 -1222q19 -43 39.5 -83.5t38.5 -72.5t32 -54t19 -28v-4 h-274zM487 559q58 0 119 0.5t119.5 1t112.5 1t98 1.5l-281 635l-276 -639h108zM559 1766q0 -29 10.5 -53.5t29.5 -43.5t43.5 -29.5t53.5 -10.5q28 0 53 10.5t44 29.5t29.5 43.5t10.5 53.5q0 28 -10.5 53t-29.5 44t-44 29.5t-53 10.5q-29 0 -53.5 -10.5t-43.5 -29.5 t-29.5 -44t-10.5 -53zM467 1766q0 48 18 89.5t49 72.5t72.5 49t89.5 18t89.5 -18t72.5 -49t49 -72.5t18 -89.5t-18 -89.5t-49 -73t-72.5 -49.5t-89.5 -18t-89.5 18t-72.5 49.5t-49 73t-18 89.5z"/>
    <glyph glyph-name="AE" unicode="Æ" horiz-adv-x="1710" d="M774 715h-158.5t-136.5 -2l-295 -510q-10 -18 -21 -38.5t-20.5 -41.5t-15.5 -43t-6 -43q0 -13 2 -21.5t4 -11.5v-4h-250v4q32 20 75 66.5t85 117.5l508 850q46 78 82 143.5t62 116t42.5 85.5t22.5 51h137q121 0 237.5 1t213 2.5t165 4.5t92.5 8l-49 -133q-33 9 -77 16 q-38 6 -92.5 11.5t-125.5 5.5q-24 0 -57 -1.5t-64 -3.5q-36 -2 -73 -4v-546q103 1 185.5 6t140.5 10q68 6 120 14l-30 -145q-69 9 -141 17q-62 7 -135 12.5t-140 5.5v-627q117 0 216.5 10t173.5 23q86 14 157 33l-29 -162q-12 1 -36 2t-53.5 2t-62 1.5t-61.5 1t-51.5 1 t-32.5 0.5h-432v4q6 21 11.5 52t9 77t6 109.5t2.5 148.5v324h-105zM524 791h355v251v159t-2 114h-50z"/>
    <glyph glyph-name="Ccedilla" unicode="Ç" horiz-adv-x="1386" d="M1079 -285q0 -39 -19 -71t-52.5 -54.5t-79.5 -34.5t-99 -12q-61 0 -115.5 13.5t-101.5 37.5l19 46q13 -6 29 -13.5t35.5 -13.5t44 -10t55.5 -4q66 0 107.5 32t41.5 84q0 57 -39 84t-96 27q-9 0 -24 -1t-23 -3l55 151q-164 14 -299 73t-232 156t-150.5 227t-53.5 286 q0 95 24.5 187t71.5 175t116 152.5t157.5 120.5t195 79.5t230.5 28.5q193 0 358 -59l68 -185l-9 -4q-78 72 -187.5 115t-240.5 43q-126 0 -231 -39.5t-180.5 -114.5t-117.5 -184t-42 -248q0 -153 40 -285.5t119 -229.5t197.5 -152.5t276.5 -55.5q57 0 114 12t109.5 35.5 t99 57t84.5 76.5l11 -7l-80 -204q-75 -29 -165.5 -44.5t-182.5 -15.5q-14 0 -28 1t-28 1l-37 -100q13 2 24 3t25 1q56 0 95 -14.5t63.5 -37t35.5 -51.5t11 -57z"/>
    <glyph glyph-name="Egrave" unicode="È" horiz-adv-x="1004" d="M143 1434q125 0 248.5 1t226.5 2.5t176 4.5t99 8l-49 -133q-33 9 -77 16q-38 6 -92.5 11.5t-125.5 5.5q-24 0 -57.5 -1.5t-64.5 -3.5q-36 -2 -73 -4v-546q103 1 186 6t141 10q68 6 120 14l-31 -145q-69 9 -141 17q-62 7 -135 12.5t-140 5.5v-627q118 0 217 10t173 23 q86 14 157 33l-29 -162q-12 1 -36 2t-53.5 2t-62 1.5t-61.5 1t-51.5 1t-32.5 0.5h-432v4q6 21 11.5 52t9.5 77t6 109.5t2 148.5v651q0 85 -2 148.5t-6 110t-9.5 77.5t-11.5 52v4v0zM364 1887q57 -53 119 -105q53 -45 118.5 -96t130.5 -94l-22 -37q-35 18 -72 34.5 t-74.5 32.5t-73.5 30t-68 26q-77 28 -150 53z"/>
    <glyph glyph-name="Eacute" unicode="É" horiz-adv-x="1004" d="M143 1434q125 0 248.5 1t226.5 2.5t176 4.5t99 8l-49 -133q-33 9 -77 16q-38 6 -92.5 11.5t-125.5 5.5q-24 0 -57.5 -1.5t-64.5 -3.5q-36 -2 -73 -4v-546q103 1 186 6t141 10q68 6 120 14l-31 -145q-69 9 -141 17q-62 7 -135 12.5t-140 5.5v-627q118 0 217 10t173 23 q86 14 157 33l-29 -162q-12 1 -36 2t-53.5 2t-62 1.5t-61.5 1t-51.5 1t-32.5 0.5h-432v4q6 21 11.5 52t9.5 77t6 109.5t2 148.5v651q0 85 -2 148.5t-6 110t-9.5 77.5t-11.5 52v4v0zM774 1731q-74 -25 -150 -53q-33 -12 -69 -26t-73 -30t-74.5 -32.5t-71.5 -34.5l-22 37 q65 43 129.5 94t118.5 96q62 52 120 105z"/>
    <glyph glyph-name="Ecircumflex" unicode="Ê" horiz-adv-x="1004" d="M143 1434q125 0 248.5 1t226.5 2.5t176 4.5t99 8l-49 -133q-33 9 -77 16q-38 6 -92.5 11.5t-125.5 5.5q-24 0 -57.5 -1.5t-64.5 -3.5q-36 -2 -73 -4v-546q103 1 186 6t141 10q68 6 120 14l-31 -145q-69 9 -141 17q-62 7 -135 12.5t-140 5.5v-627q118 0 217 10t173 23 q86 14 157 33l-29 -162q-12 1 -36 2t-53.5 2t-62 1.5t-61.5 1t-51.5 1t-32.5 0.5h-432v4q6 21 11.5 52t9.5 77t6 109.5t2 148.5v651q0 85 -2 148.5t-6 110t-9.5 77.5t-11.5 52v4v0zM503 1887q58 -53 120 -105q54 -45 119 -96t130 -94l-23 -37q-43 21 -90 43.5t-92.5 43.5 t-87.5 38.5t-76 29.5q-34 -12 -75.5 -29.5t-87 -38t-92.5 -43t-91 -44.5l-23 37q65 43 130 94t119 96q62 52 120 105z"/>
    <glyph glyph-name="Edieresis" unicode="Ë" horiz-adv-x="1004" d="M143 1434q125 0 248.5 1t226.5 2.5t176 4.5t99 8l-49 -133q-33 9 -77 16q-38 6 -92.5 11.5t-125.5 5.5q-24 0 -57.5 -1.5t-64.5 -3.5q-36 -2 -73 -4v-546q103 1 186 6t141 10q68 6 120 14l-31 -145q-69 9 -141 17q-62 7 -135 12.5t-140 5.5v-627q118 0 217 10t173 23 q86 14 157 33l-29 -162q-12 1 -36 2t-53.5 2t-62 1.5t-61.5 1t-51.5 1t-32.5 0.5h-432v4q6 21 11.5 52t9.5 77t6 109.5t2 148.5v651q0 85 -2 148.5t-6 110t-9.5 77.5t-11.5 52v4v0zM227 1723q0 19 7 36t19.5 29.5t29 19.5t36.5 7q19 0 36 -7t29.5 -19.5t19.5 -29.5t7 -36 t-7 -36t-19.5 -29.5t-29.5 -19.5t-36 -7q-20 0 -36.5 7t-29 19.5t-19.5 29.5t-7 36zM595 1723q0 19 7 36t19.5 29.5t29.5 19.5t36 7t36 -7t29.5 -19.5t19.5 -29.5t7 -36t-7 -36t-19.5 -29.5t-29.5 -19.5t-36 -7t-36 7t-29.5 19.5t-19.5 29.5t-7 36z"/>
    <glyph glyph-name="Igrave" unicode="Ì" horiz-adv-x="543" d="M152 4q6 21 11 52t9 77t6 109.5t2 148.5v651q0 85 -2 148.5t-6 110t-9 77.5t-11 52v4h239v-4q-6 -21 -11.5 -52t-9 -77.5t-6 -110t-2.5 -148.5v-651q0 -85 2.5 -148.5t6 -109.5t9 -77t11.5 -52v-4h-239v4zM93 1887q57 -53 119 -105q53 -45 118.5 -96t130.5 -94l-22 -37 q-35 18 -72 34.5t-74.5 32.5t-73.5 30t-68 26q-77 28 -150 53z"/>
    <glyph glyph-name="Iacute" unicode="Í" horiz-adv-x="543" d="M152 4q6 21 11 52t9 77t6 109.5t2 148.5v651q0 85 -2 148.5t-6 110t-9 77.5t-11 52v4h239v-4q-6 -21 -11.5 -52t-9 -77.5t-6 -110t-2.5 -148.5v-651q0 -85 2.5 -148.5t6 -109.5t9 -77t11.5 -52v-4h-239v4zM543 1731q-74 -25 -150 -53q-33 -12 -69 -26t-73 -30 t-74.5 -32.5t-71.5 -34.5l-22 37q65 43 129.5 94t118.5 96q62 52 120 105z"/>
    <glyph glyph-name="Icircumflex" unicode="Î" horiz-adv-x="543" d="M152 4q6 21 11 52t9 77t6 109.5t2 148.5v651q0 85 -2 148.5t-6 110t-9 77.5t-11 52v4h239v-4q-6 -21 -11.5 -52t-9 -77.5t-6 -110t-2.5 -148.5v-651q0 -85 2.5 -148.5t6 -109.5t9 -77t11.5 -52v-4h-239v4zM273 1887q58 -53 120 -105q54 -45 119 -96t130 -94l-23 -37 q-43 21 -90 43.5t-92.5 43.5t-87.5 38.5t-76 29.5q-34 -12 -75.5 -29.5t-87 -38t-92.5 -43t-91 -44.5l-23 37q65 43 130 94t119 96q62 52 120 105z"/>
    <glyph glyph-name="Idieresis" unicode="Ï" horiz-adv-x="543" d="M152 4q6 21 11 52t9 77t6 109.5t2 148.5v651q0 85 -2 148.5t-6 110t-9 77.5t-11 52v4h239v-4q-6 -21 -11.5 -52t-9 -77.5t-6 -110t-2.5 -148.5v-651q0 -85 2.5 -148.5t6 -109.5t9 -77t11.5 -52v-4h-239v4zM-3 1723q0 19 7 36t19.5 29.5t29 19.5t36.5 7q19 0 36 -7 t29.5 -19.5t19.5 -29.5t7 -36t-7 -36t-19.5 -29.5t-29.5 -19.5t-36 -7q-20 0 -36.5 7t-29 19.5t-19.5 29.5t-7 36zM365 1723q0 19 7 36t19.5 29.5t29.5 19.5t36 7t36 -7t29.5 -19.5t19.5 -29.5t7 -36t-7 -36t-19.5 -29.5t-29.5 -19.5t-36 -7t-36 7t-29.5 19.5t-19.5 29.5 t-7 36z"/>
    <glyph glyph-name="Eth" unicode="Ð" horiz-adv-x="1462" d="M-6 791q28 -4 76.5 -4.5t101.5 -0.5v256q0 85 -2 149.5t-6 111t-9.5 78.5t-11.5 53v4q23 -1 43 -2q17 -1 35 -1.5t29 -0.5q19 0 63.5 2t101.5 4t118.5 4t115.5 2q145 0 276 -36t230 -118t157 -215t58 -327q0 -139 -30.5 -250t-85.5 -196t-131.5 -145.5t-169 -99.5 t-197.5 -57t-217 -18q-40 0 -96.5 2.5t-113.5 5.5t-107.5 5.5t-78.5 2.5v4q6 21 11.5 52t9.5 77t6 109.5t2 148.5v303l-190 -6zM362 1348q-2 -108 -4 -210q-1 -44 -1.5 -90t-1 -90.5t-1 -85.5t-0.5 -73v-13q110 2 184.5 6t96.5 9l-19 -115q-33 1 -73 3q-35 2 -83 3t-106 2 q0 -73 1 -158.5t3 -169t5 -157.5t6 -125q14 -2 37.5 -4.5t49.5 -4t51 -2.5t42 -1q70 0 143.5 9.5t142 35.5t129 71.5t106 117.5t71.5 173.5t26 239.5q0 153 -37 272.5t-108.5 201.5t-177 124.5t-242.5 42.5q-27 0 -61 -1.5t-67.5 -3t-63 -4t-48.5 -3.5z"/>
    <glyph glyph-name="Ntilde" unicode="Ñ" horiz-adv-x="1513" d="M199 1434l1030 -1096v704q0 85 -2 148.5t-6 110t-9.5 77.5t-11.5 52v4h178v-4q-6 -21 -11 -52t-9 -77.5t-6 -110t-2 -148.5v-1062h-35l-1030 1095v-684q0 -85 2 -148.5t6 -109.5t9 -77t11 -52v-4h-178v4q6 21 11.5 52t9.5 77t6 109.5t2 148.5v651q0 85 -2 148.5t-6 110 t-9.5 77.5t-11.5 52v4h64zM1063 1805q-23 -43 -43 -74.5t-41 -52.5t-45.5 -31t-54.5 -10q-26 0 -62 11.5t-74 25t-72 25t-55 11.5q-35 0 -61 -18t-51 -61l-29 16q22 43 42 74.5t41.5 52.5t45.5 31t55 10q25 0 61.5 -11.5t74.5 -25.5t72 -25.5t55 -11.5q35 0 61 18.5t51 61.5 l29 -16v0z"/>
    <glyph glyph-name="Ograve" unicode="Ò" horiz-adv-x="1651" d="M797 1458q167 0 308.5 -54.5t244.5 -153t161 -236.5t58 -305q0 -95 -22 -187t-64.5 -174t-104.5 -151.5t-141.5 -120t-175.5 -79t-207 -28.5q-167 0 -308.5 53.5t-244.5 151.5t-161 235.5t-58 305.5q0 95 22 187t64.5 175t104 152.5t141 120.5t176 79.5t207.5 28.5z M854 59q111 0 203 40t158.5 116t103.5 185.5t37 248.5q0 154 -35.5 285.5t-105.5 228t-174.5 151t-243.5 54.5q-111 0 -203 -39.5t-158.5 -114.5t-103.5 -184t-37 -248q0 -153 35 -285.5t105 -229.5t175 -152.5t244 -55.5zM651 1887q57 -53 119 -105q53 -45 118.5 -96 t130.5 -94l-22 -37q-35 18 -72 34.5t-74.5 32.5t-73.5 30t-68 26q-77 28 -150 53z"/>
    <glyph glyph-name="Oacute" unicode="Ó" horiz-adv-x="1651" d="M797 1458q167 0 308.5 -54.5t244.5 -153t161 -236.5t58 -305q0 -95 -22 -187t-64.5 -174t-104.5 -151.5t-141.5 -120t-175.5 -79t-207 -28.5q-167 0 -308.5 53.5t-244.5 151.5t-161 235.5t-58 305.5q0 95 22 187t64.5 175t104 152.5t141 120.5t176 79.5t207.5 28.5z M854 59q111 0 203 40t158.5 116t103.5 185.5t37 248.5q0 154 -35.5 285.5t-105.5 228t-174.5 151t-243.5 54.5q-111 0 -203 -39.5t-158.5 -114.5t-103.5 -184t-37 -248q0 -153 35 -285.5t105 -229.5t175 -152.5t244 -55.5zM1054 1731q-74 -25 -150 -53q-33 -12 -69 -26 t-73 -30t-74.5 -32.5t-71.5 -34.5l-22 37q65 43 129.5 94t118.5 96q62 52 120 105z"/>
    <glyph glyph-name="Ocircumflex" unicode="Ô" horiz-adv-x="1651" d="M797 1458q167 0 308.5 -54.5t244.5 -153t161 -236.5t58 -305q0 -95 -22 -187t-64.5 -174t-104.5 -151.5t-141.5 -120t-175.5 -79t-207 -28.5q-167 0 -308.5 53.5t-244.5 151.5t-161 235.5t-58 305.5q0 95 22 187t64.5 175t104 152.5t141 120.5t176 79.5t207.5 28.5z M854 59q111 0 203 40t158.5 116t103.5 185.5t37 248.5q0 154 -35.5 285.5t-105.5 228t-174.5 151t-243.5 54.5q-111 0 -203 -39.5t-158.5 -114.5t-103.5 -184t-37 -248q0 -153 35 -285.5t105 -229.5t175 -152.5t244 -55.5zM825 1887q58 -53 120 -105q54 -45 119 -96t130 -94 l-23 -37q-43 21 -90 43.5t-92.5 43.5t-87.5 38.5t-76 29.5q-34 -12 -75.5 -29.5t-87 -38t-92.5 -43t-91 -44.5l-23 37q65 43 130 94t119 96q62 52 120 105z"/>
    <glyph glyph-name="Otilde" unicode="Õ" horiz-adv-x="1651" d="M797 1458q167 0 308.5 -54.5t244.5 -153t161 -236.5t58 -305q0 -95 -22 -187t-64.5 -174t-104.5 -151.5t-141.5 -120t-175.5 -79t-207 -28.5q-167 0 -308.5 53.5t-244.5 151.5t-161 235.5t-58 305.5q0 95 22 187t64.5 175t104 152.5t141 120.5t176 79.5t207.5 28.5z M854 59q111 0 203 40t158.5 116t103.5 185.5t37 248.5q0 154 -35.5 285.5t-105.5 228t-174.5 151t-243.5 54.5q-111 0 -203 -39.5t-158.5 -114.5t-103.5 -184t-37 -248q0 -153 35 -285.5t105 -229.5t175 -152.5t244 -55.5zM1118 1805q-23 -43 -43 -74.5t-41 -52.5t-45.5 -31 t-54.5 -10q-26 0 -62 11.5t-74 25t-72 25t-55 11.5q-35 0 -61 -18t-51 -61l-29 16q22 43 42 74.5t41.5 52.5t45.5 31t55 10q25 0 61.5 -11.5t74.5 -25.5t72 -25.5t55 -11.5q35 0 61 18.5t51 61.5l29 -16v0z"/>
    <glyph glyph-name="Odieresis" unicode="Ö" horiz-adv-x="1651" d="M797 1458q167 0 308.5 -54.5t244.5 -153t161 -236.5t58 -305q0 -95 -22 -187t-64.5 -174t-104.5 -151.5t-141.5 -120t-175.5 -79t-207 -28.5q-167 0 -308.5 53.5t-244.5 151.5t-161 235.5t-58 305.5q0 95 22 187t64.5 175t104 152.5t141 120.5t176 79.5t207.5 28.5z M854 59q111 0 203 40t158.5 116t103.5 185.5t37 248.5q0 154 -35.5 285.5t-105.5 228t-174.5 151t-243.5 54.5q-111 0 -203 -39.5t-158.5 -114.5t-103.5 -184t-37 -248q0 -153 35 -285.5t105 -229.5t175 -152.5t244 -55.5zM549 1723q0 19 7 36t19.5 29.5t29 19.5t36.5 7 q19 0 36 -7t29.5 -19.5t19.5 -29.5t7 -36t-7 -36t-19.5 -29.5t-29.5 -19.5t-36 -7q-20 0 -36.5 7t-29 19.5t-19.5 29.5t-7 36zM917 1723q0 19 7 36t19.5 29.5t29.5 19.5t36 7t36 -7t29.5 -19.5t19.5 -29.5t7 -36t-7 -36t-19.5 -29.5t-29.5 -19.5t-36 -7t-36 7t-29.5 19.5 t-19.5 29.5t-7 36z"/>
    <glyph glyph-name="multiply" unicode="×" horiz-adv-x="1331" d="M737 702l391 -391l-71 -71l-391 391l-392 -391l-71 71l391 391l-391 392l71 71l392 -391l391 391l71 -71z"/>
    <glyph glyph-name="Oslash" unicode="Ø" horiz-adv-x="1651" d="M367 119q-135 99 -210 250t-75 346q0 95 22 187t64.5 175t104 152.5t141 120.5t176 79.5t207.5 28.5q108 0 205.5 -22.5t181.5 -67.5l131 201l82 -53l-129 -197q70 -49 125.5 -113.5t94.5 -141.5t60 -166.5t21 -188.5q0 -95 -22 -187t-64.5 -174t-104.5 -151.5 t-141.5 -120t-175.5 -79t-207 -28.5q-115 0 -217 24.5t-188 72.5l-146 -222l-82 54zM854 59q111 0 203 40t158.5 116t103.5 185.5t37 248.5q0 168 -42.5 308t-125.5 239l-668 -1022q65 -56 148 -85.5t186 -29.5zM295 782q0 -162 38 -299.5t116 -236.5l667 1018 q-65 49 -143.5 76.5t-175.5 27.5q-111 0 -203 -39.5t-158.5 -114.5t-103.5 -184t-37 -248z"/>
    <glyph glyph-name="Ugrave" unicode="Ù" horiz-adv-x="1454" d="M1169 1042q0 85 -2 148.5t-6 110t-9 77.5t-11 52v4h178v-4q-6 -21 -11.5 -52t-9 -77.5t-6 -110t-2.5 -148.5v-540q0 -143 -41 -244t-114 -165.5t-175 -94t-223 -29.5t-225.5 28t-182 90.5t-121.5 162t-44 242.5v550q0 85 -2 148.5t-6 110t-9.5 77.5t-11.5 52v4h240v-4 q-6 -21 -11.5 -52t-9.5 -77.5t-6 -110t-2 -148.5v-561q0 -119 35.5 -196.5t93.5 -123t132 -63.5t151 -18t151 18t131.5 63.5t93 123t35.5 196.5v561zM588 1887q57 -53 119 -105q53 -45 118.5 -96t130.5 -94l-22 -37q-35 18 -72 34.5t-74.5 32.5t-73.5 30t-68 26 q-77 28 -150 53z"/>
    <glyph glyph-name="Uacute" unicode="Ú" horiz-adv-x="1454" d="M1169 1042q0 85 -2 148.5t-6 110t-9 77.5t-11 52v4h178v-4q-6 -21 -11.5 -52t-9 -77.5t-6 -110t-2.5 -148.5v-540q0 -143 -41 -244t-114 -165.5t-175 -94t-223 -29.5t-225.5 28t-182 90.5t-121.5 162t-44 242.5v550q0 85 -2 148.5t-6 110t-9.5 77.5t-11.5 52v4h240v-4 q-6 -21 -11.5 -52t-9.5 -77.5t-6 -110t-2 -148.5v-561q0 -119 35.5 -196.5t93.5 -123t132 -63.5t151 -18t151 18t131.5 63.5t93 123t35.5 196.5v561zM997 1731q-74 -25 -150 -53q-33 -12 -69 -26t-73 -30t-74.5 -32.5t-71.5 -34.5l-22 37q65 43 129.5 94t118.5 96 q62 52 120 105z"/>
    <glyph glyph-name="Ucircumflex" unicode="Û" horiz-adv-x="1454" d="M1169 1042q0 85 -2 148.5t-6 110t-9 77.5t-11 52v4h178v-4q-6 -21 -11.5 -52t-9 -77.5t-6 -110t-2.5 -148.5v-540q0 -143 -41 -244t-114 -165.5t-175 -94t-223 -29.5t-225.5 28t-182 90.5t-121.5 162t-44 242.5v550q0 85 -2 148.5t-6 110t-9.5 77.5t-11.5 52v4h240v-4 q-6 -21 -11.5 -52t-9.5 -77.5t-6 -110t-2 -148.5v-561q0 -119 35.5 -196.5t93.5 -123t132 -63.5t151 -18t151 18t131.5 63.5t93 123t35.5 196.5v561zM748 1887q58 -53 120 -105q54 -45 119 -96t130 -94l-23 -37q-43 21 -90 43.5t-92.5 43.5t-87.5 38.5t-76 29.5 q-34 -12 -75.5 -29.5t-87 -38t-92.5 -43t-91 -44.5l-23 37q65 43 130 94t119 96q62 52 120 105z"/>
    <glyph glyph-name="Udieresis" unicode="Ü" horiz-adv-x="1454" d="M1169 1042q0 85 -2 148.5t-6 110t-9 77.5t-11 52v4h178v-4q-6 -21 -11.5 -52t-9 -77.5t-6 -110t-2.5 -148.5v-540q0 -143 -41 -244t-114 -165.5t-175 -94t-223 -29.5t-225.5 28t-182 90.5t-121.5 162t-44 242.5v550q0 85 -2 148.5t-6 110t-9.5 77.5t-11.5 52v4h240v-4 q-6 -21 -11.5 -52t-9.5 -77.5t-6 -110t-2 -148.5v-561q0 -119 35.5 -196.5t93.5 -123t132 -63.5t151 -18t151 18t131.5 63.5t93 123t35.5 196.5v561zM472 1723q0 19 7 36t19.5 29.5t29 19.5t36.5 7q19 0 36 -7t29.5 -19.5t19.5 -29.5t7 -36t-7 -36t-19.5 -29.5t-29.5 -19.5 t-36 -7q-20 0 -36.5 7t-29 19.5t-19.5 29.5t-7 36zM840 1723q0 19 7 36t19.5 29.5t29.5 19.5t36 7t36 -7t29.5 -19.5t19.5 -29.5t7 -36t-7 -36t-19.5 -29.5t-29.5 -19.5t-36 -7t-36 7t-29.5 19.5t-19.5 29.5t-7 36z"/>
    <glyph glyph-name="Yacute" unicode="Ý" horiz-adv-x="1272" d="M727 688v-297q0 -85 2 -148.5t6 -109.5t9.5 -77t11.5 -52v-4h-240v4q6 21 11.5 52t9 77t6 109.5t2.5 148.5v277l-447 608q-23 31 -45.5 57t-42.5 45.5t-36 32.5t-25 19v4h303q0 -23 19.5 -75.5t70.5 -123.5l328 -449l321 469q17 25 34 51t31 50t22.5 44t8.5 34h195v-4 q-22 -19 -59 -56.5t-80 -99.5zM907 1731q-74 -25 -150 -53q-33 -12 -69 -26t-73 -30t-74.5 -32.5t-71.5 -34.5l-22 37q65 43 129.5 94t118.5 96q62 52 120 105z"/>
    <glyph glyph-name="Thorn" unicode="Þ" horiz-adv-x="1069" d="M383 1430q-5 -19 -10 -45t-9 -63t-6.5 -85.5t-3.5 -112.5q37 3 85.5 8t111.5 5q96 0 177.5 -25.5t141.5 -74t93.5 -118.5t33.5 -159q0 -109 -44.5 -189.5t-121 -133.5t-177.5 -79t-214 -26q-21 0 -42.5 1t-43.5 3v-2q0 -43 2.5 -95.5t6 -100.5t9 -85t11.5 -49v-4h-240v4 q4 8 8 30.5t7 54.5t5.5 70.5t4.5 78.5t3 79.5t1 73.5v651q0 85 -2 148.5t-6 110t-9.5 77.5t-11.5 52v4h240v-4zM354 414q28 -5 54 -8t51 -3q77 0 139.5 21.5t106.5 64.5t68 108.5t24 154.5q0 72 -17 130.5t-50.5 100t-84.5 64t-119 22.5q-43 0 -75 -3.5t-54 -7.5 q-26 -5 -43 -11v-5v-628z"/>
    <glyph glyph-name="germandbls" unicode="ß" horiz-adv-x="1051" d="M432 834q77 31 123.5 78.5t72 98.5t34 98t8.5 79q0 77 -18 125.5t-45 75.5t-57.5 37t-55.5 10q-26 0 -55 -8t-53.5 -31t-41 -64t-16.5 -108v-834q0 -85 2 -148.5t6 -109.5t9 -77t11 -52v-4h-231v4q6 21 11.5 52t9 77t6 109.5t2.5 148.5v801q0 77 24.5 136.5t70.5 100 t113 61.5t152 21q56 0 116.5 -17t110.5 -56t82.5 -102t32.5 -154q0 -46 -16 -92t-49.5 -89.5t-86.5 -82.5t-126 -70q76 -9 147.5 -39.5t126.5 -83t88 -129t33 -178.5q0 -86 -29.5 -164.5t-91 -139t-155.5 -96.5t-224 -36l-14 32q76 0 134.5 28t98 79.5t60 124.5t20.5 164 q0 87 -22.5 159.5t-64.5 125.5t-102.5 82.5t-136.5 29.5z"/>
    <glyph glyph-name="agrave" unicode="à" horiz-adv-x="1059" d="M74 295q0 79 32.5 137t86.5 99t123 66.5t143 40t146 20t132 6.5v51q0 66 -17 114t-48 79.5t-74.5 47t-95.5 15.5q-36 0 -71 -6t-72.5 -20t-79 -38t-89.5 -61l-10 6l68 141q33 15 65 24.5t65 15.5t67.5 8.5t72.5 2.5q105 0 179.5 -25.5t122 -70t69.5 -104t22 -127.5v-326 q0 -85 2.5 -148.5t6 -109.5t9 -77t11.5 -52v-4h-221v4q5 16 7.5 36t4.5 48q-21 -18 -49.5 -37t-65 -34.5t-81 -25t-97.5 -9.5q-174 0 -269 81.5t-95 231.5zM737 586q-91 -1 -175 -10.5t-148.5 -39.5t-103 -85.5t-38.5 -147.5q0 -118 59 -180t163 -62q48 0 87.5 13.5t70 34 t51.5 45t32 47.5q2 38 2 84.5v105.5v195zM288 1477q57 -53 119 -105q53 -45 118.5 -96t130.5 -94l-22 -37q-35 18 -72 34.5t-74.5 32.5t-73.5 30t-68 26q-77 28 -150 53z"/>
    <glyph glyph-name="aacute" unicode="á" horiz-adv-x="1059" d="M74 295q0 79 32.5 137t86.5 99t123 66.5t143 40t146 20t132 6.5v51q0 66 -17 114t-48 79.5t-74.5 47t-95.5 15.5q-36 0 -71 -6t-72.5 -20t-79 -38t-89.5 -61l-10 6l68 141q33 15 65 24.5t65 15.5t67.5 8.5t72.5 2.5q105 0 179.5 -25.5t122 -70t69.5 -104t22 -127.5v-326 q0 -85 2.5 -148.5t6 -109.5t9 -77t11.5 -52v-4h-221v4q5 16 7.5 36t4.5 48q-21 -18 -49.5 -37t-65 -34.5t-81 -25t-97.5 -9.5q-174 0 -269 81.5t-95 231.5zM737 586q-91 -1 -175 -10.5t-148.5 -39.5t-103 -85.5t-38.5 -147.5q0 -118 59 -180t163 -62q48 0 87.5 13.5t70 34 t51.5 45t32 47.5q2 38 2 84.5v105.5v195zM862 1321q-74 -25 -150 -53q-33 -12 -69 -26t-73 -30t-74.5 -32.5t-71.5 -34.5l-22 37q65 43 129.5 94t118.5 96q62 52 120 105z"/>
    <glyph glyph-name="acircumflex" unicode="â" horiz-adv-x="1059" d="M74 295q0 79 32.5 137t86.5 99t123 66.5t143 40t146 20t132 6.5v51q0 66 -17 114t-48 79.5t-74.5 47t-95.5 15.5q-36 0 -71 -6t-72.5 -20t-79 -38t-89.5 -61l-10 6l68 141q33 15 65 24.5t65 15.5t67.5 8.5t72.5 2.5q105 0 179.5 -25.5t122 -70t69.5 -104t22 -127.5v-326 q0 -85 2.5 -148.5t6 -109.5t9 -77t11.5 -52v-4h-221v4q5 16 7.5 36t4.5 48q-21 -18 -49.5 -37t-65 -34.5t-81 -25t-97.5 -9.5q-174 0 -269 81.5t-95 231.5zM737 586q-91 -1 -175 -10.5t-148.5 -39.5t-103 -85.5t-38.5 -147.5q0 -118 59 -180t163 -62q48 0 87.5 13.5t70 34 t51.5 45t32 47.5q2 38 2 84.5v105.5v195zM549 1477q58 -53 120 -105q54 -45 119 -96t130 -94l-23 -37q-43 21 -90 43.5t-92.5 43.5t-87.5 38.5t-76 29.5q-34 -12 -75.5 -29.5t-87 -38t-92.5 -43t-91 -44.5l-23 37q65 43 130 94t119 96q62 52 120 105z"/>
    <glyph glyph-name="atilde" unicode="ã" horiz-adv-x="1059" d="M74 295q0 79 32.5 137t86.5 99t123 66.5t143 40t146 20t132 6.5v51q0 66 -17 114t-48 79.5t-74.5 47t-95.5 15.5q-36 0 -71 -6t-72.5 -20t-79 -38t-89.5 -61l-10 6l68 141q33 15 65 24.5t65 15.5t67.5 8.5t72.5 2.5q105 0 179.5 -25.5t122 -70t69.5 -104t22 -127.5v-326 q0 -85 2.5 -148.5t6 -109.5t9 -77t11.5 -52v-4h-221v4q5 16 7.5 36t4.5 48q-21 -18 -49.5 -37t-65 -34.5t-81 -25t-97.5 -9.5q-174 0 -269 81.5t-95 231.5zM737 586q-91 -1 -175 -10.5t-148.5 -39.5t-103 -85.5t-38.5 -147.5q0 -118 59 -180t163 -62q48 0 87.5 13.5t70 34 t51.5 45t32 47.5q2 38 2 84.5v105.5v195zM844 1395q-23 -43 -43 -74.5t-41 -52.5t-45.5 -31t-54.5 -10q-26 0 -62 11.5t-74 25t-72 25t-55 11.5q-35 0 -61 -18t-51 -61l-29 16q22 43 42 74.5t41.5 52.5t45.5 31t55 10q25 0 61.5 -11.5t74.5 -25.5t72 -25.5t55 -11.5 q35 0 61 18.5t51 61.5l29 -16v0z"/>
    <glyph glyph-name="adieresis" unicode="ä" horiz-adv-x="1059" d="M74 295q0 79 32.5 137t86.5 99t123 66.5t143 40t146 20t132 6.5v51q0 66 -17 114t-48 79.5t-74.5 47t-95.5 15.5q-36 0 -71 -6t-72.5 -20t-79 -38t-89.5 -61l-10 6l68 141q33 15 65 24.5t65 15.5t67.5 8.5t72.5 2.5q105 0 179.5 -25.5t122 -70t69.5 -104t22 -127.5v-326 q0 -85 2.5 -148.5t6 -109.5t9 -77t11.5 -52v-4h-221v4q5 16 7.5 36t4.5 48q-21 -18 -49.5 -37t-65 -34.5t-81 -25t-97.5 -9.5q-174 0 -269 81.5t-95 231.5zM737 586q-91 -1 -175 -10.5t-148.5 -39.5t-103 -85.5t-38.5 -147.5q0 -118 59 -180t163 -62q48 0 87.5 13.5t70 34 t51.5 45t32 47.5q2 38 2 84.5v105.5v195zM273 1313q0 19 7 36t19.5 29.5t29 19.5t36.5 7q19 0 36 -7t29.5 -19.5t19.5 -29.5t7 -36t-7 -36t-19.5 -29.5t-29.5 -19.5t-36 -7q-20 0 -36.5 7t-29 19.5t-19.5 29.5t-7 36zM641 1313q0 19 7 36t19.5 29.5t29.5 19.5t36 7t36 -7 t29.5 -19.5t19.5 -29.5t7 -36t-7 -36t-19.5 -29.5t-29.5 -19.5t-36 -7t-36 7t-29.5 19.5t-19.5 29.5t-7 36z"/>
    <glyph glyph-name="aring" unicode="å" horiz-adv-x="1059" d="M74 295q0 79 32.5 137t86.5 99t123 66.5t143 40t146 20t132 6.5v51q0 66 -17 114t-48 79.5t-74.5 47t-95.5 15.5q-36 0 -71 -6t-72.5 -20t-79 -38t-89.5 -61l-10 6l68 141q33 15 65 24.5t65 15.5t67.5 8.5t72.5 2.5q105 0 179.5 -25.5t122 -70t69.5 -104t22 -127.5v-326 q0 -85 2.5 -148.5t6 -109.5t9 -77t11.5 -52v-4h-221v4q5 16 7.5 36t4.5 48q-21 -18 -49.5 -37t-65 -34.5t-81 -25t-97.5 -9.5q-174 0 -269 81.5t-95 231.5zM737 586q-91 -1 -175 -10.5t-148.5 -39.5t-103 -85.5t-38.5 -147.5q0 -118 59 -180t163 -62q48 0 87.5 13.5t70 34 t51.5 45t32 47.5q2 38 2 84.5v105.5v195zM393 1356q0 -29 10.5 -53.5t29.5 -43.5t43.5 -29.5t53.5 -10.5q28 0 53 10.5t44 29.5t29.5 43.5t10.5 53.5q0 28 -10.5 53t-29.5 44t-44 29.5t-53 10.5q-29 0 -53.5 -10.5t-43.5 -29.5t-29.5 -44t-10.5 -53zM301 1356q0 48 18 89.5 t49 72.5t72.5 49t89.5 18t89.5 -18t72.5 -49t49 -72.5t18 -89.5t-18 -89.5t-49 -73t-72.5 -49.5t-89.5 -18t-89.5 18t-72.5 49.5t-49 73t-18 89.5z"/>
    <glyph glyph-name="ae" unicode="æ" horiz-adv-x="1751" d="M74 295q0 77 30.5 133.5t82 96.5t119 65.5t141.5 40.5t148.5 21.5t141.5 9.5v53q0 66 -17 114t-48 79.5t-74.5 47t-95.5 15.5q-36 0 -71 -6t-72.5 -20t-79 -38t-89.5 -61l-10 6l68 141q33 15 65 24.5t65 15.5t67.5 8.5t72.5 2.5q131 0 214 -39t128 -104 q65 66 154.5 103.5t189.5 37.5q103 0 191 -35.5t152.5 -103t102 -167t40.5 -226.5q-113 2 -226 3t-235 1q-87 0 -169.5 -1t-148.5 -3q6 -104 32.5 -188t73 -143.5t113 -91.5t150.5 -32q58 0 109.5 13.5t93.5 37.5t75 56.5t56 70.5l12 -6l-74 -178q-54 -28 -129 -47.5 t-180 -19.5q-131 0 -235 46t-172 142q-24 -22 -60.5 -54t-86 -62t-112 -51t-139.5 -21q-174 0 -269 81.5t-95 231.5zM494 61q58 0 104.5 19.5t82 49.5t61 66t42.5 70q-23 57 -35 126t-12 151v43q-98 -2 -182.5 -12.5t-147.5 -40.5t-99 -85t-36 -145q0 -118 59 -180t163 -62z M1110 592q100 0 200.5 0.5t182.5 3.5q-9 87 -34 156t-64 117t-92 74t-117 26q-58 0 -106.5 -25.5t-84.5 -73.5t-58 -117.5t-26 -158.5q45 -2 95 -2h104z"/>
    <glyph glyph-name="ccedilla" unicode="ç" horiz-adv-x="1034" d="M842 -285q0 -39 -19 -71t-53 -54.5t-79.5 -34.5t-98.5 -12q-62 0 -116.5 13.5t-100.5 37.5l18 46q13 -6 29 -13.5t35.5 -13.5t44 -10t55.5 -4q66 0 108 32t42 84q0 57 -39.5 84t-96.5 27q-9 0 -24 -1t-23 -3l60 162q-112 6 -206.5 44.5t-162.5 106t-106.5 163.5 t-38.5 216q0 113 43.5 209.5t121 167.5t182.5 111t228 40q56 0 120 -9.5t114 -24.5l71 -170l-12 -7q-25 31 -59.5 56.5t-76 43.5t-87.5 28t-94 10q-78 0 -142 -27.5t-110 -79.5t-71.5 -127.5t-25.5 -171.5q0 -108 24.5 -201t73 -161.5t122 -107t172.5 -38.5q46 0 91.5 11.5 t86 33t74.5 51.5t57 68l12 -6l-74 -178q-27 -12 -62 -22t-72.5 -17t-75.5 -10.5t-72 -3.5h-2l-39 -111q12 2 23.5 3t25.5 1q56 0 95 -14.5t63.5 -37t35.5 -51.5t11 -57z"/>
    <glyph glyph-name="egrave" unicode="è" horiz-adv-x="1110" d="M602 -18q-111 0 -208 35t-169 102.5t-113.5 167t-41.5 227.5q0 113 38 209.5t105 167.5t156.5 111t193.5 40q103 0 191 -35.5t152.5 -103t102 -167t40.5 -226.5q-113 2 -226 3t-235 1q-87 0 -169.5 -1t-148.5 -3q6 -104 32.5 -188t73 -143.5t113 -91.5t150.5 -32 q58 0 109.5 13.5t93.5 37.5t75 56.5t56 70.5l12 -6l-74 -178q-54 -28 -129 -47.5t-180 -19.5zM469 592q100 0 200.5 0.5t182.5 3.5q-9 87 -34 156t-64 117t-92 74t-117 26q-58 0 -106.5 -25.5t-84.5 -73.5t-58 -117.5t-26 -158.5q45 -2 95 -2h104zM416 1477q57 -53 119 -105 q53 -45 118.5 -96t130.5 -94l-22 -37q-35 18 -72 34.5t-74.5 32.5t-73.5 30t-68 26q-77 28 -150 53z"/>
    <glyph glyph-name="eacute" unicode="é" horiz-adv-x="1110" d="M602 -18q-111 0 -208 35t-169 102.5t-113.5 167t-41.5 227.5q0 113 38 209.5t105 167.5t156.5 111t193.5 40q103 0 191 -35.5t152.5 -103t102 -167t40.5 -226.5q-113 2 -226 3t-235 1q-87 0 -169.5 -1t-148.5 -3q6 -104 32.5 -188t73 -143.5t113 -91.5t150.5 -32 q58 0 109.5 13.5t93.5 37.5t75 56.5t56 70.5l12 -6l-74 -178q-54 -28 -129 -47.5t-180 -19.5zM469 592q100 0 200.5 0.5t182.5 3.5q-9 87 -34 156t-64 117t-92 74t-117 26q-58 0 -106.5 -25.5t-84.5 -73.5t-58 -117.5t-26 -158.5q45 -2 95 -2h104zM804 1321 q-74 -25 -150 -53q-33 -12 -69 -26t-73 -30t-74.5 -32.5t-71.5 -34.5l-22 37q65 43 129.5 94t118.5 96q62 52 120 105z"/>
    <glyph glyph-name="ecircumflex" unicode="ê" horiz-adv-x="1110" d="M602 -18q-111 0 -208 35t-169 102.5t-113.5 167t-41.5 227.5q0 113 38 209.5t105 167.5t156.5 111t193.5 40q103 0 191 -35.5t152.5 -103t102 -167t40.5 -226.5q-113 2 -226 3t-235 1q-87 0 -169.5 -1t-148.5 -3q6 -104 32.5 -188t73 -143.5t113 -91.5t150.5 -32 q58 0 109.5 13.5t93.5 37.5t75 56.5t56 70.5l12 -6l-74 -178q-54 -28 -129 -47.5t-180 -19.5zM469 592q100 0 200.5 0.5t182.5 3.5q-9 87 -34 156t-64 117t-92 74t-117 26q-58 0 -106.5 -25.5t-84.5 -73.5t-58 -117.5t-26 -158.5q45 -2 95 -2h104zM555 1477q58 -53 120 -105 q54 -45 119 -96t130 -94l-23 -37q-43 21 -90 43.5t-92.5 43.5t-87.5 38.5t-76 29.5q-34 -12 -75.5 -29.5t-87 -38t-92.5 -43t-91 -44.5l-23 37q65 43 130 94t119 96q62 52 120 105z"/>
    <glyph glyph-name="edieresis" unicode="ë" horiz-adv-x="1110" d="M602 -18q-111 0 -208 35t-169 102.5t-113.5 167t-41.5 227.5q0 113 38 209.5t105 167.5t156.5 111t193.5 40q103 0 191 -35.5t152.5 -103t102 -167t40.5 -226.5q-113 2 -226 3t-235 1q-87 0 -169.5 -1t-148.5 -3q6 -104 32.5 -188t73 -143.5t113 -91.5t150.5 -32 q58 0 109.5 13.5t93.5 37.5t75 56.5t56 70.5l12 -6l-74 -178q-54 -28 -129 -47.5t-180 -19.5zM469 592q100 0 200.5 0.5t182.5 3.5q-9 87 -34 156t-64 117t-92 74t-117 26q-58 0 -106.5 -25.5t-84.5 -73.5t-58 -117.5t-26 -158.5q45 -2 95 -2h104zM279 1313q0 19 7 36 t19.5 29.5t29 19.5t36.5 7q19 0 36 -7t29.5 -19.5t19.5 -29.5t7 -36t-7 -36t-19.5 -29.5t-29.5 -19.5t-36 -7q-20 0 -36.5 7t-29 19.5t-19.5 29.5t-7 36zM647 1313q0 19 7 36t19.5 29.5t29.5 19.5t36 7t36 -7t29.5 -19.5t19.5 -29.5t7 -36t-7 -36t-19.5 -29.5t-29.5 -19.5 t-36 -7t-36 7t-29.5 19.5t-19.5 29.5t-7 36z"/>
    <glyph glyph-name="igrave" unicode="ì" horiz-adv-x="494" d="M160 633q0 85 -2.5 148.5t-6 109.5t-9 77t-11.5 52v4h231v-4q-6 -21 -11 -52t-9 -77t-6 -109.5t-2 -148.5v-242q0 -85 2 -148.5t6 -109.5t9 -77t11 -52v-4h-231v4q6 21 11.5 52t9 77t6 109.5t2.5 148.5v242zM69 1477q57 -53 119 -105q53 -45 118.5 -96t130.5 -94l-22 -37 q-35 18 -72 34.5t-74.5 32.5t-73.5 30t-68 26q-77 28 -150 53z"/>
    <glyph glyph-name="iacute" unicode="í" horiz-adv-x="494" d="M160 633q0 85 -2.5 148.5t-6 109.5t-9 77t-11.5 52v4h231v-4q-6 -21 -11 -52t-9 -77t-6 -109.5t-2 -148.5v-242q0 -85 2 -148.5t6 -109.5t9 -77t11 -52v-4h-231v4q6 21 11.5 52t9 77t6 109.5t2.5 148.5v242zM519 1321q-74 -25 -150 -53q-33 -12 -69 -26t-73 -30 t-74.5 -32.5t-71.5 -34.5l-22 37q65 43 129.5 94t118.5 96q62 52 120 105z"/>
    <glyph glyph-name="icircumflex" unicode="î" horiz-adv-x="494" d="M160 633q0 85 -2.5 148.5t-6 109.5t-9 77t-11.5 52v4h231v-4q-6 -21 -11 -52t-9 -77t-6 -109.5t-2 -148.5v-242q0 -85 2 -148.5t6 -109.5t9 -77t11 -52v-4h-231v4q6 21 11.5 52t9 77t6 109.5t2.5 148.5v242zM249 1477q58 -53 120 -105q54 -45 119 -96t130 -94l-23 -37 q-43 21 -90 43.5t-92.5 43.5t-87.5 38.5t-76 29.5q-34 -12 -75.5 -29.5t-87 -38t-92.5 -43t-91 -44.5l-23 37q65 43 130 94t119 96q62 52 120 105z"/>
    <glyph glyph-name="idieresis" unicode="ï" horiz-adv-x="494" d="M160 633q0 85 -2.5 148.5t-6 109.5t-9 77t-11.5 52v4h231v-4q-6 -21 -11 -52t-9 -77t-6 -109.5t-2 -148.5v-242q0 -85 2 -148.5t6 -109.5t9 -77t11 -52v-4h-231v4q6 21 11.5 52t9 77t6 109.5t2.5 148.5v242zM-27 1313q0 19 7 36t19.5 29.5t29 19.5t36.5 7q19 0 36 -7 t29.5 -19.5t19.5 -29.5t7 -36t-7 -36t-19.5 -29.5t-29.5 -19.5t-36 -7q-20 0 -36.5 7t-29 19.5t-19.5 29.5t-7 36zM341 1313q0 19 7 36t19.5 29.5t29.5 19.5t36 7t36 -7t29.5 -19.5t19.5 -29.5t7 -36t-7 -36t-19.5 -29.5t-29.5 -19.5t-36 -7t-36 7t-29.5 19.5t-19.5 29.5 t-7 36z"/>
    <glyph glyph-name="eth" unicode="ð" horiz-adv-x="1219" d="M580 1321q-48 45 -100.5 83t-110.5 75l18 32q131 -58 258 -147l223 145l31 -41l-209 -137q94 -73 177 -161.5t145 -191.5t97.5 -218t35.5 -240q0 -111 -33.5 -208.5t-100.5 -171t-166 -116t-231 -42.5q-112 0 -211 34.5t-173 98.5t-117 156t-43 206q0 105 42 195 t115.5 156t173.5 103.5t215 37.5q26 0 57 -3t61.5 -8.5t58 -11.5t47.5 -12q-47 112 -101.5 197t-120.5 153l-223 -147l-33 43zM637 55q71 0 130.5 26t102.5 74.5t67 118.5t24 158q0 48 -6 97.5t-16.5 97.5t-23.5 92t-28 82q-18 13 -44 28.5t-61 28.5t-81.5 22t-106.5 9 q-71 0 -130 -24t-102.5 -71t-67.5 -115.5t-24 -156.5q0 -100 23.5 -185.5t69.5 -148t114.5 -98t159.5 -35.5z"/>
    <glyph glyph-name="ntilde" unicode="ñ" horiz-adv-x="1163" d="M842 674q0 132 -53 194t-142 62q-32 0 -72 -13.5t-82 -36t-84 -52.5t-79 -64l-2 -131v-242q0 -85 2 -148.5t6 -109.5t9 -77t11 -52v-4h-231v4q6 21 11.5 52t9 77t6 109.5t2.5 148.5v242q0 85 -2.5 148.5t-6 109.5t-9 77t-11.5 52v4h231v-4q-8 -25 -12.5 -63.5 t-9.5 -100.5q41 34 88.5 68t98.5 60.5t104 43t104 16.5q78 0 132.5 -27t89 -71t50 -100.5t15.5 -114.5v-340q0 -85 2 -148.5t6 -109.5t9 -77t11 -52v-4h-231v4q6 21 11.5 52t9 77t6 109.5t2.5 148.5v283zM875 1395q-23 -43 -43 -74.5t-41 -52.5t-45.5 -31t-54.5 -10 q-26 0 -62 11.5t-74 25t-72 25t-55 11.5q-35 0 -61 -18t-51 -61l-29 16q22 43 42 74.5t41.5 52.5t45.5 31t55 10q25 0 61.5 -11.5t74.5 -25.5t72 -25.5t55 -11.5q35 0 61 18.5t51 61.5l29 -16v0z"/>
    <glyph glyph-name="ograve" unicode="ò" horiz-adv-x="1231" d="M70 514q0 113 42 209.5t115.5 167.5t173.5 111t215 40q113 0 212.5 -37.5t173.5 -106.5t116.5 -168t42.5 -222q0 -103 -36 -198t-106 -168t-171.5 -116.5t-233.5 -43.5q-112 0 -211 37t-173 106t-117 167.5t-43 221.5zM637 55q71 0 130.5 28t102.5 81t67 129t24 172 q0 108 -23 200.5t-68.5 160t-114.5 105.5t-161 38q-71 0 -130 -27.5t-102.5 -79.5t-67.5 -127.5t-24 -171.5q0 -108 23.5 -201t69.5 -161.5t114.5 -107t159.5 -38.5zM441 1477q57 -53 119 -105q53 -45 118.5 -96t130.5 -94l-22 -37q-35 18 -72 34.5t-74.5 32.5t-73.5 30 t-68 26q-77 28 -150 53z"/>
    <glyph glyph-name="oacute" unicode="ó" horiz-adv-x="1231" d="M70 514q0 113 42 209.5t115.5 167.5t173.5 111t215 40q113 0 212.5 -37.5t173.5 -106.5t116.5 -168t42.5 -222q0 -103 -36 -198t-106 -168t-171.5 -116.5t-233.5 -43.5q-112 0 -211 37t-173 106t-117 167.5t-43 221.5zM637 55q71 0 130.5 28t102.5 81t67 129t24 172 q0 108 -23 200.5t-68.5 160t-114.5 105.5t-161 38q-71 0 -130 -27.5t-102.5 -79.5t-67.5 -127.5t-24 -171.5q0 -108 23.5 -201t69.5 -161.5t114.5 -107t159.5 -38.5zM845 1321q-74 -25 -150 -53q-33 -12 -69 -26t-73 -30t-74.5 -32.5t-71.5 -34.5l-22 37q65 43 129.5 94 t118.5 96q62 52 120 105z"/>
    <glyph glyph-name="ocircumflex" unicode="ô" horiz-adv-x="1231" d="M70 514q0 113 42 209.5t115.5 167.5t173.5 111t215 40q113 0 212.5 -37.5t173.5 -106.5t116.5 -168t42.5 -222q0 -103 -36 -198t-106 -168t-171.5 -116.5t-233.5 -43.5q-112 0 -211 37t-173 106t-117 167.5t-43 221.5zM637 55q71 0 130.5 28t102.5 81t67 129t24 172 q0 108 -23 200.5t-68.5 160t-114.5 105.5t-161 38q-71 0 -130 -27.5t-102.5 -79.5t-67.5 -127.5t-24 -171.5q0 -108 23.5 -201t69.5 -161.5t114.5 -107t159.5 -38.5zM614 1477q58 -53 120 -105q54 -45 119 -96t130 -94l-23 -37q-43 21 -90 43.5t-92.5 43.5t-87.5 38.5 t-76 29.5q-34 -12 -75.5 -29.5t-87 -38t-92.5 -43t-91 -44.5l-23 37q65 43 130 94t119 96q62 52 120 105z"/>
    <glyph glyph-name="otilde" unicode="õ" horiz-adv-x="1231" d="M70 514q0 113 42 209.5t115.5 167.5t173.5 111t215 40q113 0 212.5 -37.5t173.5 -106.5t116.5 -168t42.5 -222q0 -103 -36 -198t-106 -168t-171.5 -116.5t-233.5 -43.5q-112 0 -211 37t-173 106t-117 167.5t-43 221.5zM637 55q71 0 130.5 28t102.5 81t67 129t24 172 q0 108 -23 200.5t-68.5 160t-114.5 105.5t-161 38q-71 0 -130 -27.5t-102.5 -79.5t-67.5 -127.5t-24 -171.5q0 -108 23.5 -201t69.5 -161.5t114.5 -107t159.5 -38.5zM909 1395q-23 -43 -43 -74.5t-41 -52.5t-45.5 -31t-54.5 -10q-26 0 -62 11.5t-74 25t-72 25t-55 11.5 q-35 0 -61 -18t-51 -61l-29 16q22 43 42 74.5t41.5 52.5t45.5 31t55 10q25 0 61.5 -11.5t74.5 -25.5t72 -25.5t55 -11.5q35 0 61 18.5t51 61.5l29 -16v0z"/>
    <glyph glyph-name="odieresis" unicode="ö" horiz-adv-x="1231" d="M70 514q0 113 42 209.5t115.5 167.5t173.5 111t215 40q113 0 212.5 -37.5t173.5 -106.5t116.5 -168t42.5 -222q0 -103 -36 -198t-106 -168t-171.5 -116.5t-233.5 -43.5q-112 0 -211 37t-173 106t-117 167.5t-43 221.5zM637 55q71 0 130.5 28t102.5 81t67 129t24 172 q0 108 -23 200.5t-68.5 160t-114.5 105.5t-161 38q-71 0 -130 -27.5t-102.5 -79.5t-67.5 -127.5t-24 -171.5q0 -108 23.5 -201t69.5 -161.5t114.5 -107t159.5 -38.5zM338 1313q0 19 7 36t19.5 29.5t29 19.5t36.5 7q19 0 36 -7t29.5 -19.5t19.5 -29.5t7 -36t-7 -36 t-19.5 -29.5t-29.5 -19.5t-36 -7q-20 0 -36.5 7t-29 19.5t-19.5 29.5t-7 36zM706 1313q0 19 7 36t19.5 29.5t29.5 19.5t36 7t36 -7t29.5 -19.5t19.5 -29.5t7 -36t-7 -36t-19.5 -29.5t-29.5 -19.5t-36 -7t-36 7t-29.5 19.5t-19.5 29.5t-7 36z"/>
    <glyph glyph-name="divide" unicode="÷" horiz-adv-x="1331" d="M143 651v103h1045v-103h-1045zM567 369q0 21 7.5 38.5t21 31t31.5 21t39 7.5q42 0 70 -28t28 -70q0 -21 -7.5 -39t-21 -31.5t-31 -21t-38.5 -7.5q-42 0 -70.5 28.5t-28.5 70.5zM567 1036q0 42 28.5 70.5t70.5 28.5q21 0 38.5 -7.5t31 -21t21 -31.5t7.5 -39q0 -42 -28 -70 t-70 -28q-21 0 -39 7.5t-31.5 21t-21 31t-7.5 38.5z"/>
    <glyph glyph-name="oslash" unicode="ø" horiz-adv-x="1231" d="M279 84q-96 68 -152.5 177.5t-56.5 252.5q0 113 42 209.5t115.5 167.5t173.5 111t215 40q70 0 133.5 -14.5t120.5 -40.5l117 178l82 -53l-115 -176q94 -69 150.5 -177.5t56.5 -250.5q0 -103 -36 -198t-106 -168t-171.5 -116.5t-233.5 -43.5q-68 0 -131 13.5t-118 39.5 l-125 -191l-82 54zM270 563q0 -106 22.5 -197t65.5 -159l451 686q-43 35 -96 55.5t-119 20.5q-71 0 -130 -27.5t-102.5 -79.5t-67.5 -127.5t-24 -171.5zM637 55q71 0 130.5 28t102.5 81t67 129t24 172q0 105 -21.5 194.5t-65.5 155.5l-448 -686q42 -35 94 -54.5t117 -19.5z "/>
    <glyph glyph-name="ugrave" unicode="ù" horiz-adv-x="1163" d="M322 350q0 -132 52.5 -194t141.5 -62q32 0 72 13.5t82.5 36t85 52.5t78.5 64q2 29 2 61.5v69.5v242q0 85 -2.5 148.5t-6 109.5t-9 77t-11.5 52v4h231v-4q-6 -21 -11 -52t-9 -77t-6 -109.5t-2 -148.5v-242q0 -85 2 -148.5t6 -109.5t9 -77t11 -52v-4h-231v4q6 25 12.5 64 t9.5 102q-41 -35 -88.5 -69t-99 -61t-104 -43.5t-103.5 -16.5q-78 0 -132.5 27t-89 71t-50 100t-15.5 115v340q0 85 -2 148.5t-6 109.5t-9 77t-11 52v4h231v-4q-6 -21 -11 -52t-9 -77t-6 -109.5t-2 -148.5v-283zM443 1477q57 -53 119 -105q53 -45 118.5 -96t130.5 -94 l-22 -37q-35 18 -72 34.5t-74.5 32.5t-73.5 30t-68 26q-77 28 -150 53z"/>
    <glyph glyph-name="uacute" unicode="ú" horiz-adv-x="1163" d="M322 350q0 -132 52.5 -194t141.5 -62q32 0 72 13.5t82.5 36t85 52.5t78.5 64q2 29 2 61.5v69.5v242q0 85 -2.5 148.5t-6 109.5t-9 77t-11.5 52v4h231v-4q-6 -21 -11 -52t-9 -77t-6 -109.5t-2 -148.5v-242q0 -85 2 -148.5t6 -109.5t9 -77t11 -52v-4h-231v4q6 25 12.5 64 t9.5 102q-41 -35 -88.5 -69t-99 -61t-104 -43.5t-103.5 -16.5q-78 0 -132.5 27t-89 71t-50 100t-15.5 115v340q0 85 -2 148.5t-6 109.5t-9 77t-11 52v4h231v-4q-6 -21 -11 -52t-9 -77t-6 -109.5t-2 -148.5v-283zM831 1321q-74 -25 -150 -53q-33 -12 -69 -26t-73 -30 t-74.5 -32.5t-71.5 -34.5l-22 37q65 43 129.5 94t118.5 96q62 52 120 105z"/>
    <glyph glyph-name="ucircumflex" unicode="û" horiz-adv-x="1163" d="M322 350q0 -132 52.5 -194t141.5 -62q32 0 72 13.5t82.5 36t85 52.5t78.5 64q2 29 2 61.5v69.5v242q0 85 -2.5 148.5t-6 109.5t-9 77t-11.5 52v4h231v-4q-6 -21 -11 -52t-9 -77t-6 -109.5t-2 -148.5v-242q0 -85 2 -148.5t6 -109.5t9 -77t11 -52v-4h-231v4q6 25 12.5 64 t9.5 102q-41 -35 -88.5 -69t-99 -61t-104 -43.5t-103.5 -16.5q-78 0 -132.5 27t-89 71t-50 100t-15.5 115v340q0 85 -2 148.5t-6 109.5t-9 77t-11 52v4h231v-4q-6 -21 -11 -52t-9 -77t-6 -109.5t-2 -148.5v-283zM582 1477q58 -53 120 -105q54 -45 119 -96t130 -94l-23 -37 q-43 21 -90 43.5t-92.5 43.5t-87.5 38.5t-76 29.5q-34 -12 -75.5 -29.5t-87 -38t-92.5 -43t-91 -44.5l-23 37q65 43 130 94t119 96q62 52 120 105z"/>
    <glyph glyph-name="udieresis" unicode="ü" horiz-adv-x="1163" d="M322 350q0 -132 52.5 -194t141.5 -62q32 0 72 13.5t82.5 36t85 52.5t78.5 64q2 29 2 61.5v69.5v242q0 85 -2.5 148.5t-6 109.5t-9 77t-11.5 52v4h231v-4q-6 -21 -11 -52t-9 -77t-6 -109.5t-2 -148.5v-242q0 -85 2 -148.5t6 -109.5t9 -77t11 -52v-4h-231v4q6 25 12.5 64 t9.5 102q-41 -35 -88.5 -69t-99 -61t-104 -43.5t-103.5 -16.5q-78 0 -132.5 27t-89 71t-50 100t-15.5 115v340q0 85 -2 148.5t-6 109.5t-9 77t-11 52v4h231v-4q-6 -21 -11 -52t-9 -77t-6 -109.5t-2 -148.5v-283zM306 1313q0 19 7 36t19.5 29.5t29 19.5t36.5 7q19 0 36 -7 t29.5 -19.5t19.5 -29.5t7 -36t-7 -36t-19.5 -29.5t-29.5 -19.5t-36 -7q-20 0 -36.5 7t-29 19.5t-19.5 29.5t-7 36zM674 1313q0 19 7 36t19.5 29.5t29.5 19.5t36 7t36 -7t29.5 -19.5t19.5 -29.5t7 -36t-7 -36t-19.5 -29.5t-29.5 -19.5t-36 -7t-36 7t-29.5 19.5t-19.5 29.5 t-7 36z"/>
    <glyph glyph-name="yacute" unicode="ý" horiz-adv-x="1006" d="M456 12l-352 770q-19 44 -41 84.5t-41.5 72.5t-34.5 53.5t-20 27.5v4h262v-4q-2 -5 -3 -15t-1 -18q0 -31 9.5 -68.5t35.5 -93.5l276 -600l252 592q16 37 32.5 81t16.5 89q0 13 -2 21.5t-4 11.5v4h180v-4q-18 -19 -45.5 -67.5t-58.5 -121.5l-477 -1136q-16 -37 -32.5 -81 t-16.5 -89q0 -13 2 -21.5t4 -11.5v-4h-187v4q19 19 46.5 66.5t58.5 119.5zM794 1321q-74 -25 -150 -53q-33 -12 -69 -26t-73 -30t-74.5 -32.5t-71.5 -34.5l-22 37q65 43 129.5 94t118.5 96q62 52 120 105z"/>
    <glyph glyph-name="thorn" unicode="þ" horiz-adv-x="1196" d="M154 1104q0 85 -2.5 148.5t-6 109.5t-9 77t-11.5 52v4h231v-4q-6 -21 -11 -52t-9 -77t-6 -109.5t-2 -148.5v-150q60 38 134 64t167 26q111 0 202.5 -37.5t157 -107.5t101.5 -169t36 -222q0 -103 -35.5 -198t-104 -168t-168.5 -116.5t-230 -43.5q-78 0 -142 12t-118 31 v-146q0 -85 2 -148.5t6 -109.5t9 -77t11 -52v-4h-231v4q6 21 11.5 52t9 77t6 109.5t2.5 148.5v1225zM594 969q-34 0 -70 -8.5t-71.5 -25.5t-67.5 -41.5t-57 -55.5v-709q20 -15 45 -28t56.5 -23.5t71 -16.5t87.5 -6q78 0 141 28t106.5 81t67 129t23.5 172q0 108 -18 200.5 t-57.5 160t-102.5 105.5t-154 38z"/>
    <glyph glyph-name="ydieresis" unicode="ÿ" horiz-adv-x="1006" d="M456 12l-352 770q-19 44 -41 84.5t-41.5 72.5t-34.5 53.5t-20 27.5v4h262v-4q-2 -5 -3 -15t-1 -18q0 -31 9.5 -68.5t35.5 -93.5l276 -600l252 592q16 37 32.5 81t16.5 89q0 13 -2 21.5t-4 11.5v4h180v-4q-18 -19 -45.5 -67.5t-58.5 -121.5l-477 -1136q-16 -37 -32.5 -81 t-16.5 -89q0 -13 2 -21.5t4 -11.5v-4h-187v4q19 19 46.5 66.5t58.5 119.5zM259 1313q0 19 7 36t19.5 29.5t29 19.5t36.5 7q19 0 36 -7t29.5 -19.5t19.5 -29.5t7 -36t-7 -36t-19.5 -29.5t-29.5 -19.5t-36 -7q-20 0 -36.5 7t-29 19.5t-19.5 29.5t-7 36zM627 1313q0 19 7 36 t19.5 29.5t29.5 19.5t36 7t36 -7t29.5 -19.5t19.5 -29.5t7 -36t-7 -36t-19.5 -29.5t-29.5 -19.5t-36 -7t-36 7t-29.5 19.5t-19.5 29.5t-7 36z"/>
    <glyph glyph-name="Amacron" unicode="Ā" horiz-adv-x="1389" d="M1135 0v4q2 5 3 15t1 18q0 31 -8.5 68.5t-32.5 93.5l-121 272q-56 2 -149 2h-201h-152.5t-132.5 -2l-115 -264q-15 -37 -32 -81t-17 -89q0 -13 2 -21.5t4 -11.5v-4h-204v4q18 19 45 67.5t59 121.5l573 1271h80l543 -1222q19 -43 39.5 -83.5t38.5 -72.5t32 -54t19 -28v-4 h-274zM487 559q58 0 119 0.5t119.5 1t112.5 1t98 1.5l-281 635l-276 -639h108zM428 1774h532v-98h-532v98z"/>
    <glyph glyph-name="amacron" unicode="ā" horiz-adv-x="1059" d="M74 295q0 79 32.5 137t86.5 99t123 66.5t143 40t146 20t132 6.5v51q0 66 -17 114t-48 79.5t-74.5 47t-95.5 15.5q-36 0 -71 -6t-72.5 -20t-79 -38t-89.5 -61l-10 6l68 141q33 15 65 24.5t65 15.5t67.5 8.5t72.5 2.5q105 0 179.5 -25.5t122 -70t69.5 -104t22 -127.5v-326 q0 -85 2.5 -148.5t6 -109.5t9 -77t11.5 -52v-4h-221v4q5 16 7.5 36t4.5 48q-21 -18 -49.5 -37t-65 -34.5t-81 -25t-97.5 -9.5q-174 0 -269 81.5t-95 231.5zM737 586q-91 -1 -175 -10.5t-148.5 -39.5t-103 -85.5t-38.5 -147.5q0 -118 59 -180t163 -62q48 0 87.5 13.5t70 34 t51.5 45t32 47.5q2 38 2 84.5v105.5v195zM283 1364h532v-98h-532v98z"/>
    <glyph glyph-name="Abreve" unicode="Ă" horiz-adv-x="1389" d="M1135 0v4q2 5 3 15t1 18q0 31 -8.5 68.5t-32.5 93.5l-121 272q-56 2 -149 2h-201h-152.5t-132.5 -2l-115 -264q-15 -37 -32 -81t-17 -89q0 -13 2 -21.5t4 -11.5v-4h-204v4q18 19 45 67.5t59 121.5l573 1271h80l543 -1222q19 -43 39.5 -83.5t38.5 -72.5t32 -54t19 -28v-4 h-274zM487 559q58 0 119 0.5t119.5 1t112.5 1t98 1.5l-281 635l-276 -639h108zM694 1596q-67 0 -117.5 23t-88.5 64.5t-64.5 99t-44.5 126.5l39 10q11 -30 28.5 -63.5t48.5 -62t79 -47.5t120 -19t120 19t79 47.5t48.5 62t28.5 63.5l39 -10q-18 -69 -44.5 -126.5t-64.5 -99 t-88.5 -64.5t-117.5 -23z"/>
    <glyph glyph-name="abreve" unicode="ă" horiz-adv-x="1059" d="M74 295q0 79 32.5 137t86.5 99t123 66.5t143 40t146 20t132 6.5v51q0 66 -17 114t-48 79.5t-74.5 47t-95.5 15.5q-36 0 -71 -6t-72.5 -20t-79 -38t-89.5 -61l-10 6l68 141q33 15 65 24.5t65 15.5t67.5 8.5t72.5 2.5q105 0 179.5 -25.5t122 -70t69.5 -104t22 -127.5v-326 q0 -85 2.5 -148.5t6 -109.5t9 -77t11.5 -52v-4h-221v4q5 16 7.5 36t4.5 48q-21 -18 -49.5 -37t-65 -34.5t-81 -25t-97.5 -9.5q-174 0 -269 81.5t-95 231.5zM737 586q-91 -1 -175 -10.5t-148.5 -39.5t-103 -85.5t-38.5 -147.5q0 -118 59 -180t163 -62q48 0 87.5 13.5t70 34 t51.5 45t32 47.5q2 38 2 84.5v105.5v195zM549 1186q-67 0 -117.5 23t-88.5 64.5t-64.5 99t-44.5 126.5l39 10q11 -30 28.5 -63.5t48.5 -62t79 -47.5t120 -19t120 19t79 47.5t48.5 62t28.5 63.5l39 -10q-18 -69 -44.5 -126.5t-64.5 -99t-88.5 -64.5t-117.5 -23z"/>
    <glyph glyph-name="Aogonek" unicode="Ą" horiz-adv-x="1389" d="M1491 -346q-50 -32 -116 -58t-144 -26q-39 0 -76 8t-66 26.5t-47 48t-18 71.5q0 43 23.5 80t65.5 70.5t99 64.5t125 61h-202v4q2 5 3 15t1 18q0 31 -8.5 68.5t-32.5 93.5l-121 272q-56 2 -149 2h-201h-152.5t-132.5 -2l-115 -264q-15 -37 -32 -81t-17 -89q0 -13 2 -21.5 t4 -11.5v-4h-204v4q18 19 45 67.5t59 121.5l573 1271h80l543 -1222q19 -43 39.5 -83.5t38.5 -72.5t32 -54t19 -28v-4q-51 -26 -95.5 -55.5t-77.5 -61t-52 -66t-19 -71.5q0 -54 32.5 -83.5t98.5 -29.5q26 0 52 5t49 12.5t43 16.5t35 18zM487 559q58 0 119 0.5t119.5 1 t112.5 1t98 1.5l-281 635l-276 -639h108z"/>
    <glyph glyph-name="aogonek" unicode="ą" horiz-adv-x="1059" d="M1022 -346q-50 -32 -116 -58t-144 -26q-39 0 -76 8t-66 26.5t-47 48t-18 71.5q0 43 23.5 80t65.5 70.5t99 64.5t125 61h-149v4q5 16 7.5 36t4.5 48q-21 -18 -49.5 -37t-65 -34.5t-81 -25t-97.5 -9.5q-174 0 -269 81.5t-95 231.5q0 79 32.5 137t86.5 99t123 66.5t143 40 t146 20t132 6.5v51q0 66 -17 114t-48 79.5t-74.5 47t-95.5 15.5q-36 0 -71 -6t-72.5 -20t-79 -38t-89.5 -61l-10 6l68 141q33 15 65 24.5t65 15.5t67.5 8.5t72.5 2.5q105 0 179.5 -25.5t122 -70t69.5 -104t22 -127.5v-326q0 -85 2.5 -148.5t6 -109.5t9 -77t11.5 -52v-4 q-51 -26 -95.5 -55.5t-77.5 -61t-52 -66t-19 -71.5q0 -54 32.5 -83.5t98.5 -29.5q26 0 52 5t49 12.5t43 16.5t35 18zM737 586q-91 -1 -175 -10.5t-148.5 -39.5t-103 -85.5t-38.5 -147.5q0 -118 59 -180t163 -62q48 0 87.5 13.5t70 34t51.5 45t32 47.5q2 38 2 84.5v105.5v195 z"/>
    <glyph glyph-name="Cacute" unicode="Ć" horiz-adv-x="1386" d="M1303 1214l-9 -4q-78 72 -187.5 115t-240.5 43q-126 0 -231 -39.5t-180.5 -114.5t-117.5 -184t-42 -248q0 -153 40 -285.5t119 -229.5t197.5 -152.5t276.5 -55.5q57 0 114 12t109.5 35.5t99 57t84.5 76.5l11 -7l-80 -204q-75 -29 -165.5 -44.5t-182.5 -15.5 q-185 0 -338.5 53.5t-264 151.5t-172 235.5t-61.5 305.5q0 95 24.5 187t71.5 175t116 152.5t157.5 120.5t195 79.5t230.5 28.5q193 0 358 -59zM1108 1731q-74 -25 -150 -53q-33 -12 -69 -26t-73 -30t-74.5 -32.5t-71.5 -34.5l-22 37q65 43 129.5 94t118.5 96q62 52 120 105z "/>
    <glyph glyph-name="cacute" unicode="ć" horiz-adv-x="1034" d="M985 213l-74 -178q-27 -12 -62 -22t-72.5 -17t-75.5 -10.5t-72 -3.5q-121 0 -223.5 35.5t-177 103.5t-116.5 167t-42 226q0 113 43.5 209.5t121 167.5t182.5 111t228 40q56 0 120 -9.5t114 -24.5l71 -170l-12 -7q-25 31 -59.5 56.5t-76 43.5t-87.5 28t-94 10 q-78 0 -142 -27.5t-110 -79.5t-71.5 -127.5t-25.5 -171.5q0 -108 24.5 -201t73 -161.5t122 -107t172.5 -38.5q46 0 91.5 11.5t86 33t74.5 51.5t57 68zM870 1321q-74 -25 -150 -53q-33 -12 -69 -26t-73 -30t-74.5 -32.5t-71.5 -34.5l-22 37q65 43 129.5 94t118.5 96 q62 52 120 105z"/>
    <glyph glyph-name="Ccircumflex" unicode="Ĉ" horiz-adv-x="1386" d="M1303 1214l-9 -4q-78 72 -187.5 115t-240.5 43q-126 0 -231 -39.5t-180.5 -114.5t-117.5 -184t-42 -248q0 -153 40 -285.5t119 -229.5t197.5 -152.5t276.5 -55.5q57 0 114 12t109.5 35.5t99 57t84.5 76.5l11 -7l-80 -204q-75 -29 -165.5 -44.5t-182.5 -15.5 q-185 0 -338.5 53.5t-264 151.5t-172 235.5t-61.5 305.5q0 95 24.5 187t71.5 175t116 152.5t157.5 120.5t195 79.5t230.5 28.5q193 0 358 -59zM877 1887q58 -53 120 -105q54 -45 119 -96t130 -94l-23 -37q-43 21 -90 43.5t-92.5 43.5t-87.5 38.5t-76 29.5 q-34 -12 -75.5 -29.5t-87 -38t-92.5 -43t-91 -44.5l-23 37q65 43 130 94t119 96q62 52 120 105z"/>
    <glyph glyph-name="ccircumflex" unicode="ĉ" horiz-adv-x="1034" d="M985 213l-74 -178q-27 -12 -62 -22t-72.5 -17t-75.5 -10.5t-72 -3.5q-121 0 -223.5 35.5t-177 103.5t-116.5 167t-42 226q0 113 43.5 209.5t121 167.5t182.5 111t228 40q56 0 120 -9.5t114 -24.5l71 -170l-12 -7q-25 31 -59.5 56.5t-76 43.5t-87.5 28t-94 10 q-78 0 -142 -27.5t-110 -79.5t-71.5 -127.5t-25.5 -171.5q0 -108 24.5 -201t73 -161.5t122 -107t172.5 -38.5q46 0 91.5 11.5t86 33t74.5 51.5t57 68zM618 1477q58 -53 120 -105q54 -45 119 -96t130 -94l-23 -37q-43 21 -90 43.5t-92.5 43.5t-87.5 38.5t-76 29.5 q-34 -12 -75.5 -29.5t-87 -38t-92.5 -43t-91 -44.5l-23 37q65 43 130 94t119 96q62 52 120 105z"/>
    <glyph glyph-name="Cdotaccent" unicode="Ċ" horiz-adv-x="1386" d="M1303 1214l-9 -4q-78 72 -187.5 115t-240.5 43q-126 0 -231 -39.5t-180.5 -114.5t-117.5 -184t-42 -248q0 -153 40 -285.5t119 -229.5t197.5 -152.5t276.5 -55.5q57 0 114 12t109.5 35.5t99 57t84.5 76.5l11 -7l-80 -204q-75 -29 -165.5 -44.5t-182.5 -15.5 q-185 0 -338.5 53.5t-264 151.5t-172 235.5t-61.5 305.5q0 95 24.5 187t71.5 175t116 152.5t157.5 120.5t195 79.5t230.5 28.5q193 0 358 -59zM777 1723q0 21 8 40t21.5 32.5t31.5 21.5t39 8q43 0 72.5 -29.5t29.5 -72.5q0 -21 -8 -39.5t-21.5 -32t-32.5 -21.5t-40 -8t-39 8 t-31.5 21.5t-21.5 32t-8 39.5z"/>
    <glyph glyph-name="cdotaccent" unicode="ċ" horiz-adv-x="1034" d="M985 213l-74 -178q-27 -12 -62 -22t-72.5 -17t-75.5 -10.5t-72 -3.5q-121 0 -223.5 35.5t-177 103.5t-116.5 167t-42 226q0 113 43.5 209.5t121 167.5t182.5 111t228 40q56 0 120 -9.5t114 -24.5l71 -170l-12 -7q-25 31 -59.5 56.5t-76 43.5t-87.5 28t-94 10 q-78 0 -142 -27.5t-110 -79.5t-71.5 -127.5t-25.5 -171.5q0 -108 24.5 -201t73 -161.5t122 -107t172.5 -38.5q46 0 91.5 11.5t86 33t74.5 51.5t57 68zM539 1313q0 21 8 40t21.5 32.5t31.5 21.5t39 8q43 0 72.5 -29.5t29.5 -72.5q0 -21 -8 -39.5t-21.5 -32t-32.5 -21.5 t-40 -8t-39 8t-31.5 21.5t-21.5 32t-8 39.5z"/>
    <glyph glyph-name="Ccaron" unicode="Č" horiz-adv-x="1386" d="M1303 1214l-9 -4q-78 72 -187.5 115t-240.5 43q-126 0 -231 -39.5t-180.5 -114.5t-117.5 -184t-42 -248q0 -153 40 -285.5t119 -229.5t197.5 -152.5t276.5 -55.5q57 0 114 12t109.5 35.5t99 57t84.5 76.5l11 -7l-80 -204q-75 -29 -165.5 -44.5t-182.5 -15.5 q-185 0 -338.5 53.5t-264 151.5t-172 235.5t-61.5 305.5q0 95 24.5 187t71.5 175t116 152.5t157.5 120.5t195 79.5t230.5 28.5q193 0 358 -59zM856 1555q-58 52 -120 104q-54 45 -119 96t-130 95l23 37q44 -23 91 -45.5t92.5 -43t87 -38t75.5 -29.5q34 12 76 30t87.5 38.5 t92.5 43t90 44.5l23 -37q-65 -44 -130 -95t-119 -96q-62 -52 -120 -104z"/>
    <glyph glyph-name="ccaron" unicode="č" horiz-adv-x="1034" d="M985 213l-74 -178q-27 -12 -62 -22t-72.5 -17t-75.5 -10.5t-72 -3.5q-121 0 -223.5 35.5t-177 103.5t-116.5 167t-42 226q0 113 43.5 209.5t121 167.5t182.5 111t228 40q56 0 120 -9.5t114 -24.5l71 -170l-12 -7q-25 31 -59.5 56.5t-76 43.5t-87.5 28t-94 10 q-78 0 -142 -27.5t-110 -79.5t-71.5 -127.5t-25.5 -171.5q0 -108 24.5 -201t73 -161.5t122 -107t172.5 -38.5q46 0 91.5 11.5t86 33t74.5 51.5t57 68zM618 1145q-58 52 -120 104q-54 45 -119 96t-130 95l23 37q44 -23 91 -45.5t92.5 -43t87 -38t75.5 -29.5q34 12 76 30 t87.5 38.5t92.5 43t90 44.5l23 -37q-65 -44 -130 -95t-119 -96q-62 -52 -120 -104z"/>
    <glyph glyph-name="Dcaron" unicode="Ď" horiz-adv-x="1462" d="M362 1348q-2 -112 -4 -217q-1 -45 -1.5 -92t-1 -92.5t-1 -87t-0.5 -73.5q0 -67 1 -162t2.5 -195t4.5 -192t7 -153q14 -2 37.5 -4.5t49.5 -4t51 -2.5t42 -1q70 0 143.5 9.5t142 35.5t129 71.5t106 117.5t71.5 173.5t26 239.5q0 153 -37 272.5t-108.5 201.5t-177 124.5 t-242.5 42.5q-27 0 -61 -1.5t-67.5 -3t-63 -4t-48.5 -3.5zM143 1438q23 -1 43 -2q17 -1 35 -1.5t29 -0.5q19 0 63.5 2t101.5 4t118.5 4t115.5 2q145 0 276 -36t230 -118t157 -215t58 -327q0 -139 -30.5 -250t-85.5 -196t-131.5 -145.5t-169 -99.5t-197.5 -57t-217 -18 q-40 0 -96.5 2.5t-113.5 5.5t-107.5 5.5t-78.5 2.5v4q6 21 11.5 52t9.5 77t6 109.5t2 148.5v651q0 85 -2 149.5t-6 111t-9.5 78.5t-11.5 53v4zM690 1555q-58 52 -120 104q-54 45 -119 96t-130 95l23 37q44 -23 91 -45.5t92.5 -43t87 -38t75.5 -29.5q34 12 76 30t87.5 38.5 t92.5 43t90 44.5l23 -37q-65 -44 -130 -95t-119 -96q-62 -52 -120 -104z"/>
    <glyph glyph-name="dcaron" unicode="ď" horiz-adv-x="1440" d="M610 1042q41 0 82 -7t80 -20t74 -32t63 -43v164q0 85 -2 148.5t-6 109.5t-9 77t-11 52v4h231v-4q-6 -21 -11.5 -52t-9 -77t-6 -109.5t-2.5 -148.5v-713q0 -85 2.5 -148.5t6 -109.5t9 -77t11.5 -52v-4h-221v4q3 8 5 23.5t5 38.5q-51 -32 -128 -58t-179 -26q-119 0 -216 37 t-165.5 106t-105.5 167.5t-37 221.5q0 113 40 209.5t112 167.5t171 111t217 40zM909 764q-40 105 -114.5 155t-167.5 50q-78 0 -144 -27.5t-113 -79.5t-73.5 -127.5t-26.5 -171.5q0 -108 24 -201t70.5 -161.5t115.5 -107t159 -38.5q47 0 88 11t75 28t60 37.5t43 40.5 q2 43 3 98t1 121v373zM1246 1364q0 40 28 67t70 27q40 0 68 -31t28 -77q0 -35 -16 -76t-41.5 -83t-57.5 -83.5t-65 -77.5l-27 23q45 52 75 106t36 107q-40 3 -69 29.5t-29 68.5z"/>
    <glyph glyph-name="Dcroat" unicode="Đ" horiz-adv-x="1462" d="M-6 791q28 -4 76.5 -4.5t101.5 -0.5v256q0 85 -2 149.5t-6 111t-9.5 78.5t-11.5 53v4q23 -1 43 -2q17 -1 35 -1.5t29 -0.5q19 0 63.5 2t101.5 4t118.5 4t115.5 2q145 0 276 -36t230 -118t157 -215t58 -327q0 -139 -30.5 -250t-85.5 -196t-131.5 -145.5t-169 -99.5 t-197.5 -57t-217 -18q-40 0 -96.5 2.5t-113.5 5.5t-107.5 5.5t-78.5 2.5v4q6 21 11.5 52t9.5 77t6 109.5t2 148.5v303l-190 -6zM362 1348q-2 -108 -4 -210q-1 -44 -1.5 -90t-1 -90.5t-1 -85.5t-0.5 -73v-13q110 2 184.5 6t96.5 9l-19 -115q-33 1 -73 3q-35 2 -83 3t-106 2 q0 -73 1 -158.5t3 -169t5 -157.5t6 -125q14 -2 37.5 -4.5t49.5 -4t51 -2.5t42 -1q70 0 143.5 9.5t142 35.5t129 71.5t106 117.5t71.5 173.5t26 239.5q0 153 -37 272.5t-108.5 201.5t-177 124.5t-242.5 42.5q-27 0 -61 -1.5t-67.5 -3t-63 -4t-48.5 -3.5z"/>
    <glyph glyph-name="dcroat" unicode="đ" horiz-adv-x="1237" d="M627 1266q18 -2 44.5 -2.5t58 -1t65 -0.5h65.5h47q-3 90 -10 144t-16 85v4h231v-4q-9 -31 -16 -84t-11 -143q72 2 119 4.5t64 7.5l-19 -107q-20 1 -46 3q-22 1 -52.5 2t-67.5 2v-72v-713q0 -85 2.5 -148.5t6 -109.5t9 -77t11.5 -52v-4h-221v4q3 8 5 23.5t5 38.5 q-51 -32 -128 -58t-179 -26q-119 0 -216 37t-165.5 106t-105.5 167.5t-37 221.5q0 113 40 209.5t112 167.5t171 111t217 40q41 0 82 -7t80 -20t74 -32t63 -43v164v74h-30q-35 0 -74 -0.5t-75.5 -1t-67 -2t-48.5 -3.5zM909 764q-40 105 -114.5 155t-167.5 50 q-78 0 -144 -27.5t-113 -79.5t-73.5 -127.5t-26.5 -171.5q0 -108 24 -201t70.5 -161.5t115.5 -107t159 -38.5q47 0 88 11t75 28t60 37.5t43 40.5q2 43 3 98t1 121v373z"/>
    <glyph glyph-name="Emacron" unicode="Ē" horiz-adv-x="1004" d="M143 1434q125 0 248.5 1t226.5 2.5t176 4.5t99 8l-49 -133q-33 9 -77 16q-38 6 -92.5 11.5t-125.5 5.5q-24 0 -57.5 -1.5t-64.5 -3.5q-36 -2 -73 -4v-546q103 1 186 6t141 10q68 6 120 14l-31 -145q-69 9 -141 17q-62 7 -135 12.5t-140 5.5v-627q118 0 217 10t173 23 q86 14 157 33l-29 -162q-12 1 -36 2t-53.5 2t-62 1.5t-61.5 1t-51.5 1t-32.5 0.5h-432v4q6 21 11.5 52t9.5 77t6 109.5t2 148.5v651q0 85 -2 148.5t-6 110t-9.5 77.5t-11.5 52v4v0zM237 1774h532v-98h-532v98z"/>
    <glyph glyph-name="emacron" unicode="ē" horiz-adv-x="1110" d="M602 -18q-111 0 -208 35t-169 102.5t-113.5 167t-41.5 227.5q0 113 38 209.5t105 167.5t156.5 111t193.5 40q103 0 191 -35.5t152.5 -103t102 -167t40.5 -226.5q-113 2 -226 3t-235 1q-87 0 -169.5 -1t-148.5 -3q6 -104 32.5 -188t73 -143.5t113 -91.5t150.5 -32 q58 0 109.5 13.5t93.5 37.5t75 56.5t56 70.5l12 -6l-74 -178q-54 -28 -129 -47.5t-180 -19.5zM469 592q100 0 200.5 0.5t182.5 3.5q-9 87 -34 156t-64 117t-92 74t-117 26q-58 0 -106.5 -25.5t-84.5 -73.5t-58 -117.5t-26 -158.5q45 -2 95 -2h104zM289 1364h532v-98h-532v98 z"/>
    <glyph glyph-name="Ebreve" unicode="Ĕ" horiz-adv-x="1004" d="M143 1434q125 0 248.5 1t226.5 2.5t176 4.5t99 8l-49 -133q-33 9 -77 16q-38 6 -92.5 11.5t-125.5 5.5q-24 0 -57.5 -1.5t-64.5 -3.5q-36 -2 -73 -4v-546q103 1 186 6t141 10q68 6 120 14l-31 -145q-69 9 -141 17q-62 7 -135 12.5t-140 5.5v-627q118 0 217 10t173 23 q86 14 157 33l-29 -162q-12 1 -36 2t-53.5 2t-62 1.5t-61.5 1t-51.5 1t-32.5 0.5h-432v4q6 21 11.5 52t9.5 77t6 109.5t2 148.5v651q0 85 -2 148.5t-6 110t-9.5 77.5t-11.5 52v4v0zM503 1596q-67 0 -117.5 23t-88.5 64.5t-64.5 99t-44.5 126.5l39 10q11 -30 28.5 -63.5 t48.5 -62t79 -47.5t120 -19t120 19t79 47.5t48.5 62t28.5 63.5l39 -10q-18 -69 -44.5 -126.5t-64.5 -99t-88.5 -64.5t-117.5 -23z"/>
    <glyph glyph-name="ebreve" unicode="ĕ" horiz-adv-x="1110" d="M602 -18q-111 0 -208 35t-169 102.5t-113.5 167t-41.5 227.5q0 113 38 209.5t105 167.5t156.5 111t193.5 40q103 0 191 -35.5t152.5 -103t102 -167t40.5 -226.5q-113 2 -226 3t-235 1q-87 0 -169.5 -1t-148.5 -3q6 -104 32.5 -188t73 -143.5t113 -91.5t150.5 -32 q58 0 109.5 13.5t93.5 37.5t75 56.5t56 70.5l12 -6l-74 -178q-54 -28 -129 -47.5t-180 -19.5zM469 592q100 0 200.5 0.5t182.5 3.5q-9 87 -34 156t-64 117t-92 74t-117 26q-58 0 -106.5 -25.5t-84.5 -73.5t-58 -117.5t-26 -158.5q45 -2 95 -2h104zM555 1186q-67 0 -117.5 23 t-88.5 64.5t-64.5 99t-44.5 126.5l39 10q11 -30 28.5 -63.5t48.5 -62t79 -47.5t120 -19t120 19t79 47.5t48.5 62t28.5 63.5l39 -10q-18 -69 -44.5 -126.5t-64.5 -99t-88.5 -64.5t-117.5 -23z"/>
    <glyph glyph-name="Edotaccent" unicode="Ė" horiz-adv-x="1004" d="M143 1434q125 0 248.5 1t226.5 2.5t176 4.5t99 8l-49 -133q-33 9 -77 16q-38 6 -92.5 11.5t-125.5 5.5q-24 0 -57.5 -1.5t-64.5 -3.5q-36 -2 -73 -4v-546q103 1 186 6t141 10q68 6 120 14l-31 -145q-69 9 -141 17q-62 7 -135 12.5t-140 5.5v-627q118 0 217 10t173 23 q86 14 157 33l-29 -162q-12 1 -36 2t-53.5 2t-62 1.5t-61.5 1t-51.5 1t-32.5 0.5h-432v4q6 21 11.5 52t9.5 77t6 109.5t2 148.5v651q0 85 -2 148.5t-6 110t-9.5 77.5t-11.5 52v4v0zM403 1723q0 21 8 40t21.5 32.5t31.5 21.5t39 8q43 0 72.5 -29.5t29.5 -72.5q0 -21 -8 -39.5 t-21.5 -32t-32.5 -21.5t-40 -8t-39 8t-31.5 21.5t-21.5 32t-8 39.5z"/>
    <glyph glyph-name="edotaccent" unicode="ė" horiz-adv-x="1110" d="M602 -18q-111 0 -208 35t-169 102.5t-113.5 167t-41.5 227.5q0 113 38 209.5t105 167.5t156.5 111t193.5 40q103 0 191 -35.5t152.5 -103t102 -167t40.5 -226.5q-113 2 -226 3t-235 1q-87 0 -169.5 -1t-148.5 -3q6 -104 32.5 -188t73 -143.5t113 -91.5t150.5 -32 q58 0 109.5 13.5t93.5 37.5t75 56.5t56 70.5l12 -6l-74 -178q-54 -28 -129 -47.5t-180 -19.5zM469 592q100 0 200.5 0.5t182.5 3.5q-9 87 -34 156t-64 117t-92 74t-117 26q-58 0 -106.5 -25.5t-84.5 -73.5t-58 -117.5t-26 -158.5q45 -2 95 -2h104zM453 1313q0 21 8 40 t21.5 32.5t31.5 21.5t39 8q43 0 72.5 -29.5t29.5 -72.5q0 -21 -8 -39.5t-21.5 -32t-32.5 -21.5t-40 -8t-39 8t-31.5 21.5t-21.5 32t-8 39.5z"/>
    <glyph glyph-name="Eogonek" unicode="Ę" horiz-adv-x="1004" d="M901 -346q-24 -16 -53 -31t-62 -27t-69.5 -19t-75.5 -7q-38 0 -75.5 8t-66.5 26.5t-47 48t-18 71.5q0 44 24.5 83t68.5 73t104 63t131 53q-26 1 -55.5 1.5t-55.5 1t-46.5 1t-29.5 0.5h-432v4q6 21 11.5 52t9.5 77t6 109.5t2 148.5v651q0 85 -2 148.5t-6 110t-9.5 77.5 t-11.5 52v4q125 0 248.5 1t226.5 2.5t176 4.5t99 8l-49 -133q-33 9 -77 16q-38 6 -92.5 11.5t-125.5 5.5q-24 0 -57.5 -1.5t-64.5 -3.5q-36 -2 -73 -4v-546q103 1 186 6t141 10q68 6 120 14l-31 -145q-69 9 -141 17q-62 7 -135 12.5t-140 5.5v-627q118 0 217 10t173 23 q86 14 157 33l-29 -162q-57 -9 -110.5 -35t-95 -61.5t-66.5 -75t-25 -74.5q0 -54 32.5 -83.5t99.5 -29.5q26 0 51.5 5t48.5 12.5t43 16.5t35 18z"/>
    <glyph glyph-name="eogonek" unicode="ę" horiz-adv-x="1110" d="M602 -18q-111 0 -208 35t-169 102.5t-113.5 167t-41.5 227.5q0 113 38 209.5t105 167.5t156.5 111t193.5 40q103 0 191 -35.5t152.5 -103t102 -167t40.5 -226.5h-5h-4h-61q-30 1 -72 1.5t-92.5 1t-108 1t-118.5 0.5q-87 0 -169.5 -1t-148.5 -3q6 -104 32.5 -188 t73 -143.5t113 -91.5t150.5 -32q58 0 109.5 13.5t93.5 37.5t75 56.5t56 70.5l12 -6l-74 -178q-51 -28 -94 -57.5t-75 -61t-50 -65.5t-18 -70q0 -54 32.5 -83t98.5 -29q26 0 51.5 4.5t48.5 12t43 16.5t35 18l16 -31q-24 -16 -53 -31t-62 -27t-69.5 -19t-75.5 -7 q-38 0 -75.5 8t-66.5 26.5t-47 48t-18 71.5q0 32 13.5 61.5t38.5 56t60.5 51.5t78.5 48q-28 -3 -58.5 -5.5t-62.5 -2.5zM469 592q100 0 200.5 0.5t182.5 3.5q-9 87 -34 156t-64 117t-92 74t-117 26q-58 0 -106.5 -25.5t-84.5 -73.5t-58 -117.5t-26 -158.5q45 -2 95 -2h104z "/>
    <glyph glyph-name="Ecaron" unicode="Ě" horiz-adv-x="1004" d="M143 1434q125 0 248.5 1t226.5 2.5t176 4.5t99 8l-49 -133q-33 9 -77 16q-38 6 -92.5 11.5t-125.5 5.5q-24 0 -57.5 -1.5t-64.5 -3.5q-36 -2 -73 -4v-546q103 1 186 6t141 10q68 6 120 14l-31 -145q-69 9 -141 17q-62 7 -135 12.5t-140 5.5v-627q118 0 217 10t173 23 q86 14 157 33l-29 -162q-12 1 -36 2t-53.5 2t-62 1.5t-61.5 1t-51.5 1t-32.5 0.5h-432v4q6 21 11.5 52t9.5 77t6 109.5t2 148.5v651q0 85 -2 148.5t-6 110t-9.5 77.5t-11.5 52v4v0zM503 1555q-58 52 -120 104q-54 45 -119 96t-130 95l23 37q44 -23 91 -45.5t92.5 -43t87 -38 t75.5 -29.5q34 12 76 30t87.5 38.5t92.5 43t90 44.5l23 -37q-65 -44 -130 -95t-119 -96q-62 -52 -120 -104z"/>
    <glyph glyph-name="ecaron" unicode="ě" horiz-adv-x="1110" d="M602 -18q-111 0 -208 35t-169 102.5t-113.5 167t-41.5 227.5q0 113 38 209.5t105 167.5t156.5 111t193.5 40q103 0 191 -35.5t152.5 -103t102 -167t40.5 -226.5q-113 2 -226 3t-235 1q-87 0 -169.5 -1t-148.5 -3q6 -104 32.5 -188t73 -143.5t113 -91.5t150.5 -32 q58 0 109.5 13.5t93.5 37.5t75 56.5t56 70.5l12 -6l-74 -178q-54 -28 -129 -47.5t-180 -19.5zM469 592q100 0 200.5 0.5t182.5 3.5q-9 87 -34 156t-64 117t-92 74t-117 26q-58 0 -106.5 -25.5t-84.5 -73.5t-58 -117.5t-26 -158.5q45 -2 95 -2h104zM555 1145q-58 52 -120 104 q-54 45 -119 96t-130 95l23 37q44 -23 91 -45.5t92.5 -43t87 -38t75.5 -29.5q34 12 76 30t87.5 38.5t92.5 43t90 44.5l23 -37q-65 -44 -130 -95t-119 -96q-62 -52 -120 -104z"/>
    <glyph glyph-name="Gcircumflex" unicode="Ĝ" horiz-adv-x="1520" d="M1405 168q0 -11 -2.5 -23t-11.5 -20q-45 -34 -97.5 -62.5t-113.5 -49.5t-131.5 -32.5t-151.5 -11.5q-182 0 -332 53.5t-257.5 151.5t-166.5 235.5t-59 305.5q0 95 24.5 187t71.5 175t116 152.5t157.5 120.5t195 79.5t230.5 28.5q48 0 98 -4.5t99 -13t94.5 -20.5t86.5 -27 l68 -185l-8 -4q-39 35 -90 65t-109 52t-121.5 34.5t-128.5 12.5q-126 0 -231 -39.5t-180.5 -114.5t-117.5 -184t-42 -248q0 -153 40 -284t119 -227t197.5 -150.5t276.5 -54.5q70 0 125 11t93 27.5t57.5 36t19.5 35.5v39q0 70 -2 121t-6 88.5t-9 64.5t-12 50v4h240v-4 q-6 -21 -11.5 -49.5t-9.5 -67.5t-6 -91.5t-2 -121.5v-41zM862 1887q58 -53 120 -105q54 -45 119 -96t130 -94l-23 -37q-43 21 -90 43.5t-92.5 43.5t-87.5 38.5t-76 29.5q-34 -12 -75.5 -29.5t-87 -38t-92.5 -43t-91 -44.5l-23 37q65 43 130 94t119 96q62 52 120 105z"/>
    <glyph glyph-name="gcircumflex" unicode="ĝ" horiz-adv-x="1182" d="M528 -457q81 0 137 17.5t92.5 48.5t56 74.5t29 95.5t11 111t1.5 122v33q-49 -26 -118 -44.5t-156 -18.5q-119 0 -216 37t-165.5 106t-105.5 167.5t-37 221.5q0 113 36.5 210t103 168t159 111.5t204.5 40.5q48 0 88 -8t74.5 -21.5t65 -31t59.5 -37.5l-10 74v4h221v-4 q-6 -21 -11.5 -52t-9 -77t-6 -109.5t-2.5 -148.5v-680q0 -92 -24.5 -179.5t-83 -155.5t-154.5 -109t-239 -41q-50 0 -101 9.5t-97 23t-83 29.5t-59 28l-31 192l16 4q24 -52 65.5 -91.5t90.5 -66t101.5 -40t97.5 -13.5zM626 55q72 0 130.5 24t98.5 56v498q0 56 -1 101.5 t-1 82.5q-24 37 -55.5 65.5t-67 48t-72.5 30t-73 10.5q-76 0 -137 -28t-103.5 -80.5t-65 -128t-22.5 -171.5q0 -108 24 -201t70.5 -161.5t115.5 -107t159 -38.5zM569 1477q58 -53 120 -105q54 -45 119 -96t130 -94l-23 -37q-43 21 -90 43.5t-92.5 43.5t-87.5 38.5t-76 29.5 q-34 -12 -75.5 -29.5t-87 -38t-92.5 -43t-91 -44.5l-23 37q65 43 130 94t119 96q62 52 120 105z"/>
    <glyph glyph-name="Gbreve" unicode="Ğ" horiz-adv-x="1520" d="M1405 168q0 -11 -2.5 -23t-11.5 -20q-45 -34 -97.5 -62.5t-113.5 -49.5t-131.5 -32.5t-151.5 -11.5q-182 0 -332 53.5t-257.5 151.5t-166.5 235.5t-59 305.5q0 95 24.5 187t71.5 175t116 152.5t157.5 120.5t195 79.5t230.5 28.5q48 0 98 -4.5t99 -13t94.5 -20.5t86.5 -27 l68 -185l-8 -4q-39 35 -90 65t-109 52t-121.5 34.5t-128.5 12.5q-126 0 -231 -39.5t-180.5 -114.5t-117.5 -184t-42 -248q0 -153 40 -284t119 -227t197.5 -150.5t276.5 -54.5q70 0 125 11t93 27.5t57.5 36t19.5 35.5v39q0 70 -2 121t-6 88.5t-9 64.5t-12 50v4h240v-4 q-6 -21 -11.5 -49.5t-9.5 -67.5t-6 -91.5t-2 -121.5v-41zM862 1596q-67 0 -117.5 23t-88.5 64.5t-64.5 99t-44.5 126.5l39 10q11 -30 28.5 -63.5t48.5 -62t79 -47.5t120 -19t120 19t79 47.5t48.5 62t28.5 63.5l39 -10q-18 -69 -44.5 -126.5t-64.5 -99t-88.5 -64.5 t-117.5 -23z"/>
    <glyph glyph-name="gbreve" unicode="ğ" horiz-adv-x="1182" d="M528 -457q81 0 137 17.5t92.5 48.5t56 74.5t29 95.5t11 111t1.5 122v33q-49 -26 -118 -44.5t-156 -18.5q-119 0 -216 37t-165.5 106t-105.5 167.5t-37 221.5q0 113 36.5 210t103 168t159 111.5t204.5 40.5q48 0 88 -8t74.5 -21.5t65 -31t59.5 -37.5l-10 74v4h221v-4 q-6 -21 -11.5 -52t-9 -77t-6 -109.5t-2.5 -148.5v-680q0 -92 -24.5 -179.5t-83 -155.5t-154.5 -109t-239 -41q-50 0 -101 9.5t-97 23t-83 29.5t-59 28l-31 192l16 4q24 -52 65.5 -91.5t90.5 -66t101.5 -40t97.5 -13.5zM626 55q72 0 130.5 24t98.5 56v498q0 56 -1 101.5 t-1 82.5q-24 37 -55.5 65.5t-67 48t-72.5 30t-73 10.5q-76 0 -137 -28t-103.5 -80.5t-65 -128t-22.5 -171.5q0 -108 24 -201t70.5 -161.5t115.5 -107t159 -38.5zM575 1186q-67 0 -117.5 23t-88.5 64.5t-64.5 99t-44.5 126.5l39 10q11 -30 28.5 -63.5t48.5 -62t79 -47.5 t120 -19t120 19t79 47.5t48.5 62t28.5 63.5l39 -10q-18 -69 -44.5 -126.5t-64.5 -99t-88.5 -64.5t-117.5 -23z"/>
    <glyph glyph-name="Gdotaccent" unicode="Ġ" horiz-adv-x="1520" d="M1405 168q0 -11 -2.5 -23t-11.5 -20q-45 -34 -97.5 -62.5t-113.5 -49.5t-131.5 -32.5t-151.5 -11.5q-182 0 -332 53.5t-257.5 151.5t-166.5 235.5t-59 305.5q0 95 24.5 187t71.5 175t116 152.5t157.5 120.5t195 79.5t230.5 28.5q48 0 98 -4.5t99 -13t94.5 -20.5t86.5 -27 l68 -185l-8 -4q-39 35 -90 65t-109 52t-121.5 34.5t-128.5 12.5q-126 0 -231 -39.5t-180.5 -114.5t-117.5 -184t-42 -248q0 -153 40 -284t119 -227t197.5 -150.5t276.5 -54.5q70 0 125 11t93 27.5t57.5 36t19.5 35.5v39q0 70 -2 121t-6 88.5t-9 64.5t-12 50v4h240v-4 q-6 -21 -11.5 -49.5t-9.5 -67.5t-6 -91.5t-2 -121.5v-41zM795 1723q0 21 8 40t21.5 32.5t31.5 21.5t39 8q43 0 72.5 -29.5t29.5 -72.5q0 -21 -8 -39.5t-21.5 -32t-32.5 -21.5t-40 -8t-39 8t-31.5 21.5t-21.5 32t-8 39.5z"/>
    <glyph glyph-name="gdotaccent" unicode="ġ" horiz-adv-x="1182" d="M528 -457q81 0 137 17.5t92.5 48.5t56 74.5t29 95.5t11 111t1.5 122v33q-49 -26 -118 -44.5t-156 -18.5q-119 0 -216 37t-165.5 106t-105.5 167.5t-37 221.5q0 113 36.5 210t103 168t159 111.5t204.5 40.5q48 0 88 -8t74.5 -21.5t65 -31t59.5 -37.5l-10 74v4h221v-4 q-6 -21 -11.5 -52t-9 -77t-6 -109.5t-2.5 -148.5v-680q0 -92 -24.5 -179.5t-83 -155.5t-154.5 -109t-239 -41q-50 0 -101 9.5t-97 23t-83 29.5t-59 28l-31 192l16 4q24 -52 65.5 -91.5t90.5 -66t101.5 -40t97.5 -13.5zM626 55q72 0 130.5 24t98.5 56v498q0 56 -1 101.5 t-1 82.5q-24 37 -55.5 65.5t-67 48t-72.5 30t-73 10.5q-76 0 -137 -28t-103.5 -80.5t-65 -128t-22.5 -171.5q0 -108 24 -201t70.5 -161.5t115.5 -107t159 -38.5zM490 1313q0 21 8 40t21.5 32.5t31.5 21.5t39 8q43 0 72.5 -29.5t29.5 -72.5q0 -21 -8 -39.5t-21.5 -32 t-32.5 -21.5t-40 -8t-39 8t-31.5 21.5t-21.5 32t-8 39.5z"/>
    <glyph glyph-name="Gcommaaccent" unicode="Ģ" horiz-adv-x="1520" d="M1405 168q0 -11 -2.5 -23t-11.5 -20q-45 -34 -97.5 -62.5t-113.5 -49.5t-131.5 -32.5t-151.5 -11.5q-182 0 -332 53.5t-257.5 151.5t-166.5 235.5t-59 305.5q0 95 24.5 187t71.5 175t116 152.5t157.5 120.5t195 79.5t230.5 28.5q48 0 98 -4.5t99 -13t94.5 -20.5t86.5 -27 l68 -185l-8 -4q-39 35 -90 65t-109 52t-121.5 34.5t-128.5 12.5q-126 0 -231 -39.5t-180.5 -114.5t-117.5 -184t-42 -248q0 -153 40 -284t119 -227t197.5 -150.5t276.5 -54.5q70 0 125 11t93 27.5t57.5 36t19.5 35.5v39q0 70 -2 121t-6 88.5t-9 64.5t-12 50v4h240v-4 q-6 -21 -11.5 -49.5t-9.5 -67.5t-6 -91.5t-2 -121.5v-41zM789 -248q0 40 28 67t70 27q40 0 68 -31t28 -77q0 -27 -11 -59.5t-29 -65.5t-41 -65.5t-48 -59.5l-26 18q53 76 59 148q-42 0 -70 28t-28 70z"/>
    <glyph glyph-name="gcommaaccent" unicode="ģ" horiz-adv-x="1182" d="M528 -457q81 0 137 17.5t92.5 48.5t56 74.5t29 95.5t11 111t1.5 122v33q-49 -26 -118 -44.5t-156 -18.5q-119 0 -216 37t-165.5 106t-105.5 167.5t-37 221.5q0 113 36.5 210t103 168t159 111.5t204.5 40.5q48 0 88 -8t74.5 -21.5t65 -31t59.5 -37.5l-10 74v4h221v-4 q-6 -21 -11.5 -52t-9 -77t-6 -109.5t-2.5 -148.5v-680q0 -92 -24.5 -179.5t-83 -155.5t-154.5 -109t-239 -41q-50 0 -101 9.5t-97 23t-83 29.5t-59 28l-31 192l16 4q24 -52 65.5 -91.5t90.5 -66t101.5 -40t97.5 -13.5zM626 55q72 0 130.5 24t98.5 56v498q0 56 -1 101.5 t-1 82.5q-24 37 -55.5 65.5t-67 48t-72.5 30t-73 10.5q-76 0 -137 -28t-103.5 -80.5t-65 -128t-22.5 -171.5q0 -108 24 -201t70.5 -161.5t115.5 -107t159 -38.5zM682 1304q0 -40 -28 -67t-70 -27q-40 0 -68 31t-28 78q0 34 15.5 75t41 83t58 83.5t65.5 77.5l27 -22 q-45 -53 -75 -107t-36 -106q40 -3 69 -30t29 -69z"/>
    <glyph glyph-name="Hcircumflex" unicode="Ĥ" horiz-adv-x="1489" d="M1135 686q-40 1 -100 1.5t-130.5 1.5t-147 1.5t-149.5 1t-139 -0.5t-115 -3v-297q0 -85 2.5 -148.5t6 -109.5t9 -77t11.5 -52v-4h-240v4q6 21 11.5 52t9.5 77t6 109.5t2 148.5v651q0 85 -2 148.5t-6 110t-9.5 77.5t-11.5 52v4h240v-4q-6 -21 -11.5 -52t-9 -77.5t-6 -110 t-2.5 -148.5v-256q52 -2 118 -2.5t138 0t146.5 1.5t144 2.5t130 3.5t104.5 4v247q0 85 -2.5 148.5t-6 110t-9 77.5t-11.5 52v4h240v-4q-6 -21 -11.5 -52t-9.5 -77.5t-6 -110t-2 -148.5v-651q0 -85 2 -148.5t6 -109.5t9.5 -77t11.5 -52v-4h-240v4q6 21 11.5 52t9 77t6 109.5 t2.5 148.5v295zM743 1887q58 -53 120 -105q54 -45 119 -96t130 -94l-23 -37q-43 21 -90 43.5t-92.5 43.5t-87.5 38.5t-76 29.5q-34 -12 -75.5 -29.5t-87 -38t-92.5 -43t-91 -44.5l-23 37q65 43 130 94t119 96q62 52 120 105z"/>
    <glyph glyph-name="hcircumflex" unicode="ĥ" horiz-adv-x="1163" d="M842 674q0 132 -53 194t-142 62q-33 0 -73.5 -13.5t-83 -36.5t-84.5 -53.5t-78 -64.5v-371q0 -85 2 -148.5t6 -109.5t9 -77t11 -52v-4h-231v4q6 21 11.5 52t9 77t6 109.5t2.5 148.5v713q0 85 -2.5 148.5t-6 109.5t-9 77t-11.5 52v4h231v-4q-6 -21 -11 -52t-9 -77 t-6 -109.5t-2 -148.5v-256q40 36 88.5 71t100.5 63t106 45t106 17q78 0 132.5 -27t89 -71t50 -100.5t15.5 -114.5v-340q0 -85 2 -148.5t6 -109.5t9 -77t11 -52v-4h-231v4q6 21 11.5 52t9 77t6 109.5t2.5 148.5v283zM257 1889q58 -53 120 -105q54 -45 119 -96t130 -94 l-23 -37q-43 21 -90 43.5t-92.5 43.5t-87.5 38.5t-76 29.5q-34 -12 -75.5 -29.5t-87 -38t-92.5 -43t-91 -44.5l-23 37q65 43 130 94t119 96q62 52 120 105z"/>
    <glyph glyph-name="Hbar" unicode="Ħ" horiz-adv-x="1489" d="M1135 686q-40 1 -100 1.5t-130.5 1.5t-147 1.5t-149.5 1t-139 -0.5t-115 -3v-297q0 -85 2.5 -148.5t6 -109.5t9 -77t11.5 -52v-4h-240v4q6 21 11.5 52t9.5 77t6 109.5t2 148.5v656h-141v81h141q0 84 -2 134t-6 80t-9.5 48.5t-11.5 39.5v4h240v-4q-6 -21 -11.5 -39.5 t-9 -48.5t-6 -80t-2.5 -134h781q0 84 -2.5 134t-6 80t-9 48.5t-11.5 39.5v4h240v-4q-6 -21 -11.5 -39.5t-9.5 -48.5t-6 -80t-2 -134h141v-81h-141v-656q0 -85 2 -148.5t6 -109.5t9.5 -77t11.5 -52v-4h-240v4q6 21 11.5 52t9 77t6 109.5t2.5 148.5v295zM354 786 q52 -2 118 -2.5t138 0t146.5 1.5t144 2.5t130 3.5t104.5 4v252h-781v-261z"/>
    <glyph glyph-name="hbar" unicode="ħ" horiz-adv-x="1163" d="M10 1260h142q-4 92 -11 146t-16 85v4h231v-4q-9 -31 -16 -85t-10 -146h262v-82h-264v-74v-256q40 36 88.5 71t100.5 63t106 45t106 17q78 0 132.5 -27t89 -71t50 -100.5t15.5 -114.5v-340q0 -85 2 -148.5t6 -109.5t9 -77t11 -52v-4h-231v4q6 21 11.5 52t9 77t6 109.5 t2.5 148.5v283q0 132 -53 194t-142 62q-33 0 -73.5 -13.5t-83 -36.5t-84.5 -53.5t-78 -64.5v-371q0 -85 2 -148.5t6 -109.5t9 -77t11 -52v-4h-231v4q6 21 11.5 52t9 77t6 109.5t2.5 148.5v713v74h-144v82z"/>
    <glyph glyph-name="Itilde" unicode="Ĩ" horiz-adv-x="543" d="M152 4q6 21 11 52t9 77t6 109.5t2 148.5v651q0 85 -2 148.5t-6 110t-9 77.5t-11 52v4h239v-4q-6 -21 -11.5 -52t-9 -77.5t-6 -110t-2.5 -148.5v-651q0 -85 2.5 -148.5t6 -109.5t9 -77t11.5 -52v-4h-239v4zM566 1805q-23 -43 -43 -74.5t-41 -52.5t-45.5 -31t-54.5 -10 q-26 0 -62 11.5t-74 25t-72 25t-55 11.5q-35 0 -61 -18t-51 -61l-29 16q22 43 42 74.5t41.5 52.5t45.5 31t55 10q25 0 61.5 -11.5t74.5 -25.5t72 -25.5t55 -11.5q35 0 61 18.5t51 61.5l29 -16v0z"/>
    <glyph glyph-name="itilde" unicode="ĩ" horiz-adv-x="494" d="M160 633q0 85 -2.5 148.5t-6 109.5t-9 77t-11.5 52v4h231v-4q-6 -21 -11 -52t-9 -77t-6 -109.5t-2 -148.5v-242q0 -85 2 -148.5t6 -109.5t9 -77t11 -52v-4h-231v4q6 21 11.5 52t9 77t6 109.5t2.5 148.5v242zM542 1395q-23 -43 -43 -74.5t-41 -52.5t-45.5 -31t-54.5 -10 q-26 0 -62 11.5t-74 25t-72 25t-55 11.5q-35 0 -61 -18t-51 -61l-29 16q22 43 42 74.5t41.5 52.5t45.5 31t55 10q25 0 61.5 -11.5t74.5 -25.5t72 -25.5t55 -11.5q35 0 61 18.5t51 61.5l29 -16v0z"/>
    <glyph glyph-name="Imacron" unicode="Ī" horiz-adv-x="543" d="M152 4q6 21 11 52t9 77t6 109.5t2 148.5v651q0 85 -2 148.5t-6 110t-9 77.5t-11 52v4h239v-4q-6 -21 -11.5 -52t-9 -77.5t-6 -110t-2.5 -148.5v-651q0 -85 2.5 -148.5t6 -109.5t9 -77t11.5 -52v-4h-239v4zM7 1774h532v-98h-532v98z"/>
    <glyph glyph-name="imacron" unicode="ī" horiz-adv-x="494" d="M160 633q0 85 -2.5 148.5t-6 109.5t-9 77t-11.5 52v4h231v-4q-6 -21 -11 -52t-9 -77t-6 -109.5t-2 -148.5v-242q0 -85 2 -148.5t6 -109.5t9 -77t11 -52v-4h-231v4q6 21 11.5 52t9 77t6 109.5t2.5 148.5v242zM-17 1364h532v-98h-532v98z"/>
    <glyph glyph-name="Ibreve" unicode="Ĭ" horiz-adv-x="543" d="M152 4q6 21 11 52t9 77t6 109.5t2 148.5v651q0 85 -2 148.5t-6 110t-9 77.5t-11 52v4h239v-4q-6 -21 -11.5 -52t-9 -77.5t-6 -110t-2.5 -148.5v-651q0 -85 2.5 -148.5t6 -109.5t9 -77t11.5 -52v-4h-239v4zM273 1596q-67 0 -117.5 23t-88.5 64.5t-64.5 99t-44.5 126.5 l39 10q11 -30 28.5 -63.5t48.5 -62t79 -47.5t120 -19t120 19t79 47.5t48.5 62t28.5 63.5l39 -10q-18 -69 -44.5 -126.5t-64.5 -99t-88.5 -64.5t-117.5 -23z"/>
    <glyph glyph-name="ibreve" unicode="ĭ" horiz-adv-x="494" d="M160 633q0 85 -2.5 148.5t-6 109.5t-9 77t-11.5 52v4h231v-4q-6 -21 -11 -52t-9 -77t-6 -109.5t-2 -148.5v-242q0 -85 2 -148.5t6 -109.5t9 -77t11 -52v-4h-231v4q6 21 11.5 52t9 77t6 109.5t2.5 148.5v242zM249 1186q-67 0 -117.5 23t-88.5 64.5t-64.5 99t-44.5 126.5 l39 10q11 -30 28.5 -63.5t48.5 -62t79 -47.5t120 -19t120 19t79 47.5t48.5 62t28.5 63.5l39 -10q-18 -69 -44.5 -126.5t-64.5 -99t-88.5 -64.5t-117.5 -23z"/>
    <glyph glyph-name="Iogonek" unicode="Į" horiz-adv-x="543" d="M152 4q6 21 11 52t9 77t6 109.5t2 148.5v651q0 85 -2 148.5t-6 110t-9 77.5t-11 52v4h239v-4q-6 -21 -11.5 -52t-9 -77.5t-6 -110t-2.5 -148.5v-651q0 -85 2.5 -148.5t6 -109.5t9 -77t11.5 -52v-4h-6q-48 -26 -91.5 -55.5t-76 -61t-51.5 -66t-19 -71.5q0 -54 32.5 -83.5 t99.5 -29.5q26 0 51.5 5t48.5 12.5t43 16.5t35 18l16 -31q-24 -16 -53 -31t-62 -27t-69.5 -19t-75.5 -7q-38 0 -75.5 8t-66.5 26.5t-47 48t-18 71.5q0 43 23.5 80t65.5 70.5t99 64.5t125 61h-167v4z"/>
    <glyph glyph-name="iogonek" unicode="į" horiz-adv-x="494" d="M451 -346q-50 -32 -116 -58t-145 -26q-38 0 -75 8t-66 26.5t-47 48t-18 71.5q0 43 23.5 80t65.5 70.5t99 64.5t125 61h-166v4q6 21 11.5 52t9 77t6 109.5t2.5 148.5v242q0 85 -2.5 148.5t-6 109.5t-9 77t-11.5 52v4h231v-4q-6 -21 -11 -52t-9 -77t-6 -109.5t-2 -148.5 v-242q0 -85 2 -148.5t6 -109.5t9 -77t11 -52v-4q-48 -26 -91.5 -55.5t-75.5 -61t-51 -66t-19 -71.5q0 -54 32.5 -83.5t98.5 -29.5q26 0 51.5 5t49 12.5t43 16.5t34.5 18zM139 1327q0 22 8.5 41.5t22.5 34t33.5 23t42.5 8.5t42.5 -8.5t34 -23t23 -34t8.5 -41.5q0 -46 -31 -77 t-77 -31q-23 0 -42.5 8.5t-33.5 23t-22.5 34t-8.5 42.5z"/>
    <glyph glyph-name="Idotaccent" unicode="İ" horiz-adv-x="543" d="M152 4q6 21 11 52t9 77t6 109.5t2 148.5v651q0 85 -2 148.5t-6 110t-9 77.5t-11 52v4h239v-4q-6 -21 -11.5 -52t-9 -77.5t-6 -110t-2.5 -148.5v-651q0 -85 2.5 -148.5t6 -109.5t9 -77t11.5 -52v-4h-239v4zM173 1723q0 21 8 40t21.5 32.5t31.5 21.5t39 8q43 0 72.5 -29.5 t29.5 -72.5q0 -21 -8 -39.5t-21.5 -32t-32.5 -21.5t-40 -8t-39 8t-31.5 21.5t-21.5 32t-8 39.5z"/>
    <glyph glyph-name="dotlessi" unicode="ı" horiz-adv-x="494" d="M160 633q0 85 -2.5 148.5t-6 109.5t-9 77t-11.5 52v4h231v-4q-6 -21 -11 -52t-9 -77t-6 -109.5t-2 -148.5v-242q0 -85 2 -148.5t6 -109.5t9 -77t11 -52v-4h-231v4q6 21 11.5 52t9 77t6 109.5t2.5 148.5v242z"/>
    <glyph glyph-name="IJ" unicode="Ĳ" horiz-adv-x="1053" d="M152 4q6 21 11 52t9 77t6 109.5t2 148.5v651q0 85 -2 148.5t-6 110t-9 77.5t-11 52v4h239v-4q-6 -21 -11.5 -52t-9 -77.5t-6 -110t-2.5 -148.5v-651q0 -85 2.5 -148.5t6 -109.5t9 -77t11.5 -52v-4h-239v4zM889 207q0 -135 -27.5 -234t-77 -175.5t-117 -136.5t-147.5 -118 l-18 25q69 63 109.5 131t62 145.5t27.5 167t6 195.5v835q0 85 -2 148.5t-6 110t-9.5 77.5t-11.5 52v4h240v-4q-6 -21 -11.5 -52t-9.5 -77.5t-6 -110t-2 -148.5v-835z"/>
    <glyph glyph-name="ij" unicode="ĳ" horiz-adv-x="979" d="M160 633q0 85 -2.5 148.5t-6 109.5t-9 77t-11.5 52v4h231v-4q-6 -21 -11 -52t-9 -77t-6 -109.5t-2 -148.5v-242q0 -85 2 -148.5t6 -109.5t9 -77t11 -52v-4h-231v4q6 21 11.5 52t9 77t6 109.5t2.5 148.5v242zM139 1327q0 22 8.5 41.5t22.5 34t33.5 23t42.5 8.5t42.5 -8.5 t34 -23t23 -34t8.5 -41.5q0 -46 -31 -77t-77 -31q-23 0 -42.5 8.5t-33.5 23t-22.5 34t-8.5 42.5zM650 633q0 85 -2.5 148.5t-6 109.5t-9 77t-11.5 52v4h231v-4q-6 -21 -11 -52t-9 -77t-6 -109.5t-2 -148.5v-529q0 -135 -29.5 -234t-81 -175t-121 -136.5t-149.5 -117.5 l-19 24q69 63 113 131t69 145.5t34.5 167t9.5 195.5v529zM629 1327q0 22 8.5 41.5t22.5 34t33.5 23t42.5 8.5t42.5 -8.5t34 -23t23 -34t8.5 -41.5q0 -46 -31 -77t-77 -31q-23 0 -42.5 8.5t-33.5 23t-22.5 34t-8.5 42.5z"/>
    <glyph glyph-name="Jcircumflex" unicode="Ĵ" horiz-adv-x="510" d="M346 207q0 -135 -27.5 -234t-77 -175.5t-117 -136.5t-147.5 -118l-18 25q69 63 109.5 131t62 145.5t27.5 167t6 195.5v835q0 85 -2 148.5t-6 110t-9.5 77.5t-11.5 52v4h240v-4q-6 -21 -11.5 -52t-9.5 -77.5t-6 -110t-2 -148.5v-835zM257 1887q58 -53 120 -105 q54 -45 119 -96t130 -94l-23 -37q-43 21 -90 43.5t-92.5 43.5t-87.5 38.5t-76 29.5q-34 -12 -75.5 -29.5t-87 -38t-92.5 -43t-91 -44.5l-23 37q65 43 130 94t119 96q62 52 120 105z"/>
    <glyph glyph-name="jcircumflex" unicode="ĵ" horiz-adv-x="485" d="M156 633q0 85 -2.5 148.5t-6 109.5t-9 77t-11.5 52v4h231v-4q-6 -21 -11 -52t-9 -77t-6 -109.5t-2 -148.5v-529q0 -135 -29.5 -234t-81 -175t-121 -136.5t-149.5 -117.5l-19 24q69 63 113 131t69 145.5t34.5 167t9.5 195.5v529zM245 1477q58 -53 120 -105q54 -45 119 -96 t130 -94l-23 -37q-43 21 -90 43.5t-92.5 43.5t-87.5 38.5t-76 29.5q-34 -12 -75.5 -29.5t-87 -38t-92.5 -43t-91 -44.5l-23 37q65 43 130 94t119 96q62 52 120 105z"/>
    <glyph glyph-name="Kcommaaccent" unicode="Ķ" horiz-adv-x="1323" d="M143 4q6 21 11.5 52t9.5 77t6 109.5t2 148.5v651q0 85 -2 148.5t-6 110t-9.5 77.5t-11.5 52v4h240v-4q-6 -21 -11.5 -52t-9 -77.5t-6 -110t-2.5 -148.5v-223l584 477q98 80 98 138h281v-4q-59 -14 -119.5 -53.5t-128.5 -96.5l-516 -432l621 -682q39 -40 66.5 -66.5 t48.5 -44t38.5 -29t36.5 -22.5v-4h-293q-4 9 -13.5 23t-22 29t-27 31t-27.5 30l-627 688v-410q0 -85 2.5 -148.5t6 -109.5t9 -77t11.5 -52v-4h-240v4zM604 -248q0 40 28 67t70 27q40 0 68 -31t28 -77q0 -27 -11 -59.5t-29 -65.5t-41 -65.5t-48 -59.5l-26 18q53 76 59 148 q-42 0 -70 28t-28 70z"/>
    <glyph glyph-name="kcommaaccent" unicode="ķ" horiz-adv-x="995" d="M154 1104q0 85 -2.5 148.5t-6 109.5t-9 77t-11.5 52v4h231v-4q-6 -21 -11 -52t-9 -77t-6 -109.5t-2 -148.5v-498l327 293q86 75 86 125h232v-4q-26 -8 -49.5 -20.5t-47 -29.5t-49 -38.5t-55.5 -48.5l-293 -267l402 -475q18 -22 39 -44.5t42 -41.5t41 -33t37 -18v-4h-290 q0 26 -13.5 54t-48.5 71l-360 428v-162q0 -85 2 -148.5t6 -109.5t9 -77t11 -52v-4h-231v4q6 21 11.5 52t9 77t6 109.5t2.5 148.5v713zM443 -248q0 40 28 67t70 27q40 0 68 -31t28 -77q0 -27 -11 -59.5t-29 -65.5t-41 -65.5t-48 -59.5l-26 18q53 76 59 148q-42 0 -70 28 t-28 70z"/>
    <glyph glyph-name="kgreenlandic" unicode="ĸ" horiz-adv-x="995" d="M154 633q0 85 -2.5 148.5t-6 109.5t-9 77t-11.5 52v4h231v-4q-6 -21 -11 -52t-9 -77t-6 -109.5t-2 -148.5v-27l327 293q86 75 86 125h232v-4q-26 -8 -49.5 -20.5t-47 -29.5t-49 -38.5t-55.5 -48.5l-293 -267l402 -475q18 -22 39 -44.5t42 -41.5t41 -33t37 -18v-4h-290 q0 26 -13.5 54t-48.5 71l-360 426v-160q0 -85 2 -148.5t6 -109.5t9 -77t11 -52v-4h-231v4q6 21 11.5 52t9 77t6 109.5t2.5 148.5v242z"/>
    <glyph glyph-name="Lacute" unicode="Ĺ" horiz-adv-x="942" d="M354 88q118 0 217 10t173 23q86 14 157 33l-29 -162q-12 1 -36 2t-53.5 2t-62 1.5t-61.5 1t-51.5 1t-32.5 0.5h-432v4q6 21 11.5 52t9.5 77t6 109.5t2 148.5v651q0 85 -2 148.5t-6 110t-9.5 77.5t-11.5 52v4h240v-4q-6 -21 -11.5 -52t-9 -77.5t-6 -110t-2.5 -148.5v-954z M590 1731q-74 -25 -150 -53q-33 -12 -69 -26t-73 -30t-74.5 -32.5t-71.5 -34.5l-22 37q65 43 129.5 94t118.5 96q62 52 120 105z"/>
    <glyph glyph-name="lacute" unicode="ĺ" horiz-adv-x="494" d="M160 1104q0 85 -2.5 148.5t-6 109.5t-9 77t-11.5 52v4h231v-4q-6 -21 -11 -52t-9 -77t-6 -109.5t-2 -148.5v-713q0 -85 2 -148.5t6 -109.5t9 -77t11 -52v-4h-231v4q6 21 11.5 52t9 77t6 109.5t2.5 148.5v713zM539 1727q-74 -25 -150 -53q-33 -12 -69 -26t-73 -30 t-74.5 -32.5t-71.5 -34.5l-22 37q65 43 129.5 94t118.5 96q62 52 120 105z"/>
    <glyph glyph-name="Lcommaaccent" unicode="Ļ" horiz-adv-x="942" d="M354 88q118 0 217 10t173 23q86 14 157 33l-29 -162q-12 1 -36 2t-53.5 2t-62 1.5t-61.5 1t-51.5 1t-32.5 0.5h-432v4q6 21 11.5 52t9.5 77t6 109.5t2 148.5v651q0 85 -2 148.5t-6 110t-9.5 77.5t-11.5 52v4h240v-4q-6 -21 -11.5 -52t-9 -77.5t-6 -110t-2.5 -148.5v-954z M407 -248q0 40 28 67t70 27q40 0 68 -31t28 -77q0 -27 -11 -59.5t-29 -65.5t-41 -65.5t-48 -59.5l-26 18q53 76 59 148q-42 0 -70 28t-28 70z"/>
    <glyph glyph-name="lcommaaccent" unicode="ļ" horiz-adv-x="494" d="M160 1104q0 85 -2.5 148.5t-6 109.5t-9 77t-11.5 52v4h231v-4q-6 -21 -11 -52t-9 -77t-6 -109.5t-2 -148.5v-713q0 -85 2 -148.5t6 -109.5t9 -77t11 -52v-4h-231v4q6 21 11.5 52t9 77t6 109.5t2.5 148.5v713zM151 -248q0 40 28 67t70 27q40 0 68 -31t28 -77 q0 -27 -11 -59.5t-29 -65.5t-41 -65.5t-48 -59.5l-26 18q53 76 59 148q-42 0 -70 28t-28 70z"/>
    <glyph glyph-name="Lcaron" unicode="Ľ" horiz-adv-x="942" d="M354 88q118 0 217 10t173 23q86 14 157 33l-29 -162q-12 1 -36 2t-53.5 2t-62 1.5t-61.5 1t-51.5 1t-32.5 0.5h-432v4q6 21 11.5 52t9.5 77t6 109.5t2 148.5v651q0 85 -2 148.5t-6 110t-9.5 77.5t-11.5 52v4h240v-4q-6 -21 -11.5 -52t-9 -77.5t-6 -110t-2.5 -148.5v-954z M619 1364q0 40 28 67t70 27q40 0 68 -31t28 -77q0 -35 -16 -76t-41.5 -83t-57.5 -83.5t-65 -77.5l-27 23q45 52 75 106t36 107q-40 3 -69 29.5t-29 68.5z"/>
    <glyph glyph-name="lcaron" unicode="ľ" horiz-adv-x="688" d="M160 1104q0 85 -2.5 148.5t-6 109.5t-9 77t-11.5 52v4h231v-4q-6 -21 -11 -52t-9 -77t-6 -109.5t-2 -148.5v-713q0 -85 2 -148.5t6 -109.5t9 -77t11 -52v-4h-231v4q6 21 11.5 52t9 77t6 109.5t2.5 148.5v713zM494 1364q0 40 28 67t70 27q40 0 68 -31t28 -77 q0 -35 -16 -76t-41.5 -83t-57.5 -83.5t-65 -77.5l-27 23q45 52 75 106t36 107q-40 3 -69 29.5t-29 68.5z"/>
    <glyph glyph-name="Ldot" unicode="Ŀ" horiz-adv-x="942" d="M354 88q118 0 217 10t173 23q86 14 157 33l-29 -162q-12 1 -36 2t-53.5 2t-62 1.5t-61.5 1t-51.5 1t-32.5 0.5h-432v4q6 21 11.5 52t9.5 77t6 109.5t2 148.5v651q0 85 -2 148.5t-6 110t-9.5 77.5t-11.5 52v4h240v-4q-6 -21 -11.5 -52t-9 -77.5t-6 -110t-2.5 -148.5v-954z M661 642q0 22 8.5 41.5t23 33.5t34 22.5t41.5 8.5q23 0 42.5 -8.5t34 -22.5t23 -33.5t8.5 -41.5q0 -47 -31 -78t-77 -31q-22 0 -41.5 8.5t-34 23t-23 34.5t-8.5 43z"/>
    <glyph glyph-name="ldotaccent" unicode="ŀ" horiz-adv-x="729" d="M160 1104q0 85 -2.5 148.5t-6 109.5t-9 77t-11.5 52v4h231v-4q-6 -21 -11 -52t-9 -77t-6 -109.5t-2 -148.5v-713q0 -85 2 -148.5t6 -109.5t9 -77t11 -52v-4h-231v4q6 21 11.5 52t9 77t6 109.5t2.5 148.5v713zM493 707q0 22 8.5 41.5t23 33.5t34 22.5t41.5 8.5 q23 0 42.5 -8.5t34 -22.5t23 -33.5t8.5 -41.5q0 -47 -31 -78t-77 -31q-22 0 -41.5 8.5t-34 23t-23 34.5t-8.5 43z"/>
    <glyph glyph-name="Lslash" unicode="Ł" horiz-adv-x="942" d="M0 535l172 94v413q0 85 -2 148.5t-6 110t-9.5 77.5t-11.5 52v4h240v-4q-6 -21 -11.5 -52t-9 -77.5t-6 -110t-2.5 -148.5v-313l244 133l39 -71l-283 -156v-547q118 0 217 10t173 23q86 14 157 33l-29 -162q-12 1 -36 2t-53.5 2t-62 1.5t-61.5 1t-51.5 1t-32.5 0.5h-432v4 q6 21 11.5 52t9.5 77t6 109.5t2 148.5v144l-133 -72z"/>
    <glyph glyph-name="lslash" unicode="ł" horiz-adv-x="494" d="M0 596l160 88v420q0 85 -2.5 148.5t-6 109.5t-9 77t-11.5 52v4h231v-4q-6 -21 -11 -52t-9 -77t-6 -109.5t-2 -148.5v-326l121 68l39 -72l-160 -88v-295q0 -85 2 -148.5t6 -109.5t9 -77t11 -52v-4h-231v4q6 21 11.5 52t9 77t6 109.5t2.5 148.5v199l-121 -66z"/>
    <glyph glyph-name="Nacute" unicode="Ń" horiz-adv-x="1513" d="M199 1434l1030 -1096v704q0 85 -2 148.5t-6 110t-9.5 77.5t-11.5 52v4h178v-4q-6 -21 -11 -52t-9 -77.5t-6 -110t-2 -148.5v-1062h-35l-1030 1095v-684q0 -85 2 -148.5t6 -109.5t9 -77t11 -52v-4h-178v4q6 21 11.5 52t9.5 77t6 109.5t2 148.5v651q0 85 -2 148.5t-6 110 t-9.5 77.5t-11.5 52v4h64zM987 1731q-74 -25 -150 -53q-33 -12 -69 -26t-73 -30t-74.5 -32.5t-71.5 -34.5l-22 37q65 43 129.5 94t118.5 96q62 52 120 105z"/>
    <glyph glyph-name="nacute" unicode="ń" horiz-adv-x="1163" d="M842 674q0 132 -53 194t-142 62q-32 0 -72 -13.5t-82 -36t-84 -52.5t-79 -64l-2 -131v-242q0 -85 2 -148.5t6 -109.5t9 -77t11 -52v-4h-231v4q6 21 11.5 52t9 77t6 109.5t2.5 148.5v242q0 85 -2.5 148.5t-6 109.5t-9 77t-11.5 52v4h231v-4q-8 -25 -12.5 -63.5 t-9.5 -100.5q41 34 88.5 68t98.5 60.5t104 43t104 16.5q78 0 132.5 -27t89 -71t50 -100.5t15.5 -114.5v-340q0 -85 2 -148.5t6 -109.5t9 -77t11 -52v-4h-231v4q6 21 11.5 52t9 77t6 109.5t2.5 148.5v283zM811 1321q-74 -25 -150 -53q-33 -12 -69 -26t-73 -30t-74.5 -32.5 t-71.5 -34.5l-22 37q65 43 129.5 94t118.5 96q62 52 120 105z"/>
    <glyph glyph-name="Ncommaaccent" unicode="Ņ" horiz-adv-x="1513" d="M199 1434l1030 -1096v704q0 85 -2 148.5t-6 110t-9.5 77.5t-11.5 52v4h178v-4q-6 -21 -11 -52t-9 -77.5t-6 -110t-2 -148.5v-1062h-35l-1030 1095v-684q0 -85 2 -148.5t6 -109.5t9 -77t11 -52v-4h-178v4q6 21 11.5 52t9.5 77t6 109.5t2 148.5v651q0 85 -2 148.5t-6 110 t-9.5 77.5t-11.5 52v4h64zM660 -248q0 40 28 67t70 27q40 0 68 -31t28 -77q0 -27 -11 -59.5t-29 -65.5t-41 -65.5t-48 -59.5l-26 18q53 76 59 148q-42 0 -70 28t-28 70z"/>
    <glyph glyph-name="ncommaaccent" unicode="ņ" horiz-adv-x="1163" d="M842 674q0 132 -53 194t-142 62q-32 0 -72 -13.5t-82 -36t-84 -52.5t-79 -64l-2 -131v-242q0 -85 2 -148.5t6 -109.5t9 -77t11 -52v-4h-231v4q6 21 11.5 52t9 77t6 109.5t2.5 148.5v242q0 85 -2.5 148.5t-6 109.5t-9 77t-11.5 52v4h231v-4q-8 -25 -12.5 -63.5 t-9.5 -100.5q41 34 88.5 68t98.5 60.5t104 43t104 16.5q78 0 132.5 -27t89 -71t50 -100.5t15.5 -114.5v-340q0 -85 2 -148.5t6 -109.5t9 -77t11 -52v-4h-231v4q6 21 11.5 52t9 77t6 109.5t2.5 148.5v283zM484 -248q0 40 28 67t70 27q40 0 68 -31t28 -77q0 -27 -11 -59.5 t-29 -65.5t-41 -65.5t-48 -59.5l-26 18q53 76 59 148q-42 0 -70 28t-28 70z"/>
    <glyph glyph-name="Ncaron" unicode="Ň" horiz-adv-x="1513" d="M199 1434l1030 -1096v704q0 85 -2 148.5t-6 110t-9.5 77.5t-11.5 52v4h178v-4q-6 -21 -11 -52t-9 -77.5t-6 -110t-2 -148.5v-1062h-35l-1030 1095v-684q0 -85 2 -148.5t6 -109.5t9 -77t11 -52v-4h-178v4q6 21 11.5 52t9.5 77t6 109.5t2 148.5v651q0 85 -2 148.5t-6 110 t-9.5 77.5t-11.5 52v4h64zM756 1555q-58 52 -120 104q-54 45 -119 96t-130 95l23 37q44 -23 91 -45.5t92.5 -43t87 -38t75.5 -29.5q34 12 76 30t87.5 38.5t92.5 43t90 44.5l23 -37q-65 -44 -130 -95t-119 -96q-62 -52 -120 -104z"/>
    <glyph glyph-name="ncaron" unicode="ň" horiz-adv-x="1163" d="M842 674q0 132 -53 194t-142 62q-32 0 -72 -13.5t-82 -36t-84 -52.5t-79 -64l-2 -131v-242q0 -85 2 -148.5t6 -109.5t9 -77t11 -52v-4h-231v4q6 21 11.5 52t9 77t6 109.5t2.5 148.5v242q0 85 -2.5 148.5t-6 109.5t-9 77t-11.5 52v4h231v-4q-8 -25 -12.5 -63.5 t-9.5 -100.5q41 34 88.5 68t98.5 60.5t104 43t104 16.5q78 0 132.5 -27t89 -71t50 -100.5t15.5 -114.5v-340q0 -85 2 -148.5t6 -109.5t9 -77t11 -52v-4h-231v4q6 21 11.5 52t9 77t6 109.5t2.5 148.5v283zM582 1145q-58 52 -120 104q-54 45 -119 96t-130 95l23 37 q44 -23 91 -45.5t92.5 -43t87 -38t75.5 -29.5q34 12 76 30t87.5 38.5t92.5 43t90 44.5l23 -37q-65 -44 -130 -95t-119 -96q-62 -52 -120 -104z"/>
    <glyph glyph-name="napostrophe" unicode="ŉ" horiz-adv-x="1243" d="M14 1364q0 40 28 67t70 27q40 0 68 -31t28 -77q0 -35 -16 -76t-41.5 -83t-57.5 -83.5t-65 -77.5l-27 23q45 52 75 106t36 107q-40 3 -69 29.5t-29 68.5zM922 674q0 132 -53 194t-142 62q-32 0 -72 -13.5t-82 -36t-84 -52.5t-79 -64l-2 -131v-242q0 -85 2 -148.5t6 -109.5 t9 -77t11 -52v-4h-231v4q6 21 11.5 52t9 77t6 109.5t2.5 148.5v242q0 85 -2.5 148.5t-6 109.5t-9 77t-11.5 52v4h231v-4q-8 -25 -12.5 -63.5t-9.5 -100.5q41 34 88.5 68t98.5 60.5t104 43t104 16.5q78 0 132.5 -27t89 -71t50 -100.5t15.5 -114.5v-340q0 -85 2 -148.5 t6 -109.5t9 -77t11 -52v-4h-231v4q6 21 11.5 52t9 77t6 109.5t2.5 148.5v283z"/>
    <glyph glyph-name="Eng" unicode="Ŋ" horiz-adv-x="1513" d="M1229 1042q0 85 -2 148.5t-6 110t-9.5 77.5t-11.5 52v4h178v-4q-6 -21 -11 -52t-9 -77.5t-6 -110t-2 -148.5v-876q0 -135 -19.5 -234t-58 -175.5t-96 -136.5t-134.5 -118l-18 25q58 53 95.5 109t60.5 118.5t33.5 132t13.5 148.5l-942 1040v-684q0 -85 2 -148.5t6 -109.5 t9 -77t11 -52v-4h-178v4q6 21 11.5 52t9.5 77t6 109.5t2 148.5v651q0 85 -2 148.5t-6 110t-9.5 77.5t-11.5 52v4h64l1030 -1137v745v0z"/>
    <glyph glyph-name="eng" unicode="ŋ" horiz-adv-x="1163" d="M1016 104q0 -135 -29.5 -234t-81 -175t-121 -136.5t-149.5 -117.5l-19 24q69 63 113 131t69 145.5t34.5 167t9.5 195.5v570q0 132 -53 194t-142 62q-32 0 -72 -13.5t-83 -36.5t-85 -53.5t-79 -64.5v-129v-242q0 -85 2 -148.5t6 -109.5t9 -77t11 -52v-4h-231v4 q6 21 11.5 52t9 77t6 109.5t2.5 148.5v242q0 85 -2.5 148.5t-6 109.5t-9 77t-11.5 52v4h231v-4q-8 -25 -13.5 -64.5t-10.5 -101.5q41 34 89 68t99.5 61t104.5 44t104 17q78 0 132.5 -27t89 -71t50 -100.5t15.5 -114.5v-627z"/>
    <glyph glyph-name="Omacron" unicode="Ō" horiz-adv-x="1651" d="M797 1458q167 0 308.5 -54.5t244.5 -153t161 -236.5t58 -305q0 -95 -22 -187t-64.5 -174t-104.5 -151.5t-141.5 -120t-175.5 -79t-207 -28.5q-167 0 -308.5 53.5t-244.5 151.5t-161 235.5t-58 305.5q0 95 22 187t64.5 175t104 152.5t141 120.5t176 79.5t207.5 28.5z M854 59q111 0 203 40t158.5 116t103.5 185.5t37 248.5q0 154 -35.5 285.5t-105.5 228t-174.5 151t-243.5 54.5q-111 0 -203 -39.5t-158.5 -114.5t-103.5 -184t-37 -248q0 -153 35 -285.5t105 -229.5t175 -152.5t244 -55.5zM559 1774h532v-98h-532v98z"/>
    <glyph glyph-name="omacron" unicode="ō" horiz-adv-x="1231" d="M70 514q0 113 42 209.5t115.5 167.5t173.5 111t215 40q113 0 212.5 -37.5t173.5 -106.5t116.5 -168t42.5 -222q0 -103 -36 -198t-106 -168t-171.5 -116.5t-233.5 -43.5q-112 0 -211 37t-173 106t-117 167.5t-43 221.5zM637 55q71 0 130.5 28t102.5 81t67 129t24 172 q0 108 -23 200.5t-68.5 160t-114.5 105.5t-161 38q-71 0 -130 -27.5t-102.5 -79.5t-67.5 -127.5t-24 -171.5q0 -108 23.5 -201t69.5 -161.5t114.5 -107t159.5 -38.5zM348 1364h532v-98h-532v98z"/>
    <glyph glyph-name="Obreve" unicode="Ŏ" horiz-adv-x="1651" d="M797 1458q167 0 308.5 -54.5t244.5 -153t161 -236.5t58 -305q0 -95 -22 -187t-64.5 -174t-104.5 -151.5t-141.5 -120t-175.5 -79t-207 -28.5q-167 0 -308.5 53.5t-244.5 151.5t-161 235.5t-58 305.5q0 95 22 187t64.5 175t104 152.5t141 120.5t176 79.5t207.5 28.5z M854 59q111 0 203 40t158.5 116t103.5 185.5t37 248.5q0 154 -35.5 285.5t-105.5 228t-174.5 151t-243.5 54.5q-111 0 -203 -39.5t-158.5 -114.5t-103.5 -184t-37 -248q0 -153 35 -285.5t105 -229.5t175 -152.5t244 -55.5zM825 1596q-67 0 -117.5 23t-88.5 64.5t-64.5 99 t-44.5 126.5l39 10q11 -30 28.5 -63.5t48.5 -62t79 -47.5t120 -19t120 19t79 47.5t48.5 62t28.5 63.5l39 -10q-18 -69 -44.5 -126.5t-64.5 -99t-88.5 -64.5t-117.5 -23z"/>
    <glyph glyph-name="obreve" unicode="ŏ" horiz-adv-x="1231" d="M70 514q0 113 42 209.5t115.5 167.5t173.5 111t215 40q113 0 212.5 -37.5t173.5 -106.5t116.5 -168t42.5 -222q0 -103 -36 -198t-106 -168t-171.5 -116.5t-233.5 -43.5q-112 0 -211 37t-173 106t-117 167.5t-43 221.5zM637 55q71 0 130.5 28t102.5 81t67 129t24 172 q0 108 -23 200.5t-68.5 160t-114.5 105.5t-161 38q-71 0 -130 -27.5t-102.5 -79.5t-67.5 -127.5t-24 -171.5q0 -108 23.5 -201t69.5 -161.5t114.5 -107t159.5 -38.5zM614 1186q-67 0 -117.5 23t-88.5 64.5t-64.5 99t-44.5 126.5l39 10q11 -30 28.5 -63.5t48.5 -62t79 -47.5 t120 -19t120 19t79 47.5t48.5 62t28.5 63.5l39 -10q-18 -69 -44.5 -126.5t-64.5 -99t-88.5 -64.5t-117.5 -23z"/>
    <glyph glyph-name="Ohungarumlaut" unicode="Ő" horiz-adv-x="1651" d="M797 1458q167 0 308.5 -54.5t244.5 -153t161 -236.5t58 -305q0 -95 -22 -187t-64.5 -174t-104.5 -151.5t-141.5 -120t-175.5 -79t-207 -28.5q-167 0 -308.5 53.5t-244.5 151.5t-161 235.5t-58 305.5q0 95 22 187t64.5 175t104 152.5t141 120.5t176 79.5t207.5 28.5z M854 59q111 0 203 40t158.5 116t103.5 185.5t37 248.5q0 154 -35.5 285.5t-105.5 228t-174.5 151t-243.5 54.5q-111 0 -203 -39.5t-158.5 -114.5t-103.5 -184t-37 -248q0 -153 35 -285.5t105 -229.5t175 -152.5t244 -55.5zM932 1737q-63 -26 -128 -56q-56 -26 -121.5 -58.5 t-125.5 -67.5l-25 37q56 43 109 94.5t95 96.5q49 53 93 106zM1280 1737q-63 -26 -128 -56q-56 -26 -121.5 -58.5t-125.5 -67.5l-25 37q56 43 109 94.5t95 96.5q49 53 93 106z"/>
    <glyph glyph-name="ohungarumlaut" unicode="ő" horiz-adv-x="1231" d="M70 514q0 113 42 209.5t115.5 167.5t173.5 111t215 40q113 0 212.5 -37.5t173.5 -106.5t116.5 -168t42.5 -222q0 -103 -36 -198t-106 -168t-171.5 -116.5t-233.5 -43.5q-112 0 -211 37t-173 106t-117 167.5t-43 221.5zM637 55q71 0 130.5 28t102.5 81t67 129t24 172 q0 108 -23 200.5t-68.5 160t-114.5 105.5t-161 38q-71 0 -130 -27.5t-102.5 -79.5t-67.5 -127.5t-24 -171.5q0 -108 23.5 -201t69.5 -161.5t114.5 -107t159.5 -38.5zM723 1327q-63 -26 -128 -56q-56 -26 -121.5 -58.5t-125.5 -67.5l-25 37q56 43 109 94.5t95 96.5 q49 53 93 106zM1071 1327q-63 -26 -128 -56q-56 -26 -121.5 -58.5t-125.5 -67.5l-25 37q56 43 109 94.5t95 96.5q49 53 93 106z"/>
    <glyph glyph-name="OE" unicode="Œ" horiz-adv-x="2198" d="M1337 1434q125 0 248.5 1t226.5 2.5t176 4.5t99 8l-49 -133q-33 9 -77 16q-38 6 -92.5 11.5t-125.5 5.5q-24 0 -57.5 -1.5t-64.5 -3.5q-36 -2 -73 -4v-546q103 1 186 6t141 10q68 6 120 14l-31 -145q-69 9 -141 17q-62 7 -135 12.5t-140 5.5v-627q118 0 217 10t173 23 q86 14 157 33l-29 -162q-12 1 -36 2t-53.5 2t-62 1.5t-61.5 1t-51.5 1t-32.5 0.5h-432v4q8 26 14 70t11 116q-90 -102 -216.5 -161.5t-291.5 -59.5q-167 0 -308.5 53.5t-244.5 151.5t-161 235.5t-58 305.5q0 95 22 187t64.5 175t104 152.5t141 120.5t176 79.5t207.5 28.5 q179 0 322.5 -61t242.5 -172q-3 80 -10 128t-15 77v4zM854 59q111 0 203 40t158.5 116t103.5 185.5t37 248.5q0 154 -35.5 285.5t-105.5 228t-174.5 151t-243.5 54.5q-111 0 -203 -39.5t-158.5 -114.5t-103.5 -184t-37 -248q0 -153 35 -285.5t105 -229.5t175 -152.5 t244 -55.5z"/>
    <glyph glyph-name="oe" unicode="œ" horiz-adv-x="2001" d="M1493 -18q-143 0 -256.5 56.5t-179.5 166.5q-32 -50 -75 -91t-98.5 -70.5t-123 -45.5t-146.5 -16q-112 0 -211 37t-173 106t-117 167.5t-43 221.5q0 113 42 209.5t115.5 167.5t173.5 111t215 40q72 0 137 -15.5t121.5 -44.5t103 -72t81.5 -97q31 52 72 94.5t91.5 72.5 t108.5 46t123 16q103 0 191 -35.5t152.5 -103t102 -167t39.5 -226.5q-112 2 -225.5 3t-234.5 1q-87 0 -169.5 -1t-148.5 -3q6 -104 32.5 -188t73 -143.5t113 -91.5t150.5 -32q58 0 109.5 13.5t93.5 37.5t75 56.5t56 70.5l12 -6l-74 -178q-54 -28 -129 -47.5t-180 -19.5z M637 55q71 0 130.5 28t102.5 81t67 129t24 172q0 108 -23 200.5t-68.5 160t-114.5 105.5t-161 38q-71 0 -130 -27.5t-102.5 -79.5t-67.5 -127.5t-24 -171.5q0 -108 23.5 -201t69.5 -161.5t114.5 -107t159.5 -38.5zM1360 592q100 0 200.5 0.5t182.5 3.5q-9 87 -34 156 t-64 117t-92 74t-117 26q-58 0 -106.5 -25.5t-85 -73.5t-58 -117.5t-25.5 -158.5q45 -2 95 -2h104z"/>
    <glyph glyph-name="Racute" unicode="Ŕ" horiz-adv-x="1210" d="M354 391q0 -85 2.5 -148.5t6 -109.5t9 -77t11.5 -52v-4h-240v4q6 21 11.5 52t9 77t6 109t2.5 149v651q0 85 -2.5 148.5t-6 109.5t-9 77.5t-11.5 52.5v4l42 -4q19 -2 42.5 -2.5t48.5 -0.5q39 0 105.5 9.5t169.5 9.5q96 0 177.5 -26t141.5 -76t93.5 -122.5t33.5 -164.5 q0 -72 -18.5 -133.5t-52 -111.5t-80.5 -88.5t-105 -64.5l351 -493q26 -37 48.5 -64t43 -46.5t39.5 -32t39 -19.5v-4h-289q-3 19 -19.5 50.5t-38.5 62.5l-354 499q-23 -2 -46 -3.5t-47 -1.5q-28 0 -56.5 2t-57.5 7v-225zM354 694q27 -6 55 -8.5t54 -2.5q75 0 137 22.5 t105.5 68.5t67.5 114.5t24 160.5q0 75 -17 136t-50.5 103.5t-84.5 66t-119 23.5q-69 0 -110 -7t-62 -15v-662zM825 1731q-74 -25 -150 -53q-33 -12 -69 -26t-73 -30t-74.5 -32.5t-71.5 -34.5l-22 37q65 43 129.5 94t118.5 96q62 52 120 105z"/>
    <glyph glyph-name="racute" unicode="ŕ" horiz-adv-x="803" d="M154 633q0 85 -2.5 148.5t-6 109.5t-9 77t-11.5 52v4h231v-4q-8 -23 -13.5 -56t-8.5 -85q37 31 77 61t82 53t85.5 37t87.5 14q27 0 47 -2.5t36 -7t29 -10t25 -10.5l-49 -191l-17 4q-12 44 -45 70.5t-90 26.5q-31 0 -65 -11t-69 -30.5t-70 -45t-68 -53.5q-2 -29 -2 -63 v-72v-258q0 -85 2 -148.5t6 -109.5t9 -77t11 -52v-4h-231v4q6 21 11.5 52t9 77t6 109.5t2.5 148.5v242zM695 1321q-74 -25 -150 -53q-33 -12 -69 -26t-73 -30t-74.5 -32.5t-71.5 -34.5l-22 37q65 43 129.5 94t118.5 96q62 52 120 105z"/>
    <glyph glyph-name="Rcommaaccent" unicode="Ŗ" horiz-adv-x="1210" d="M354 391q0 -85 2.5 -148.5t6 -109.5t9 -77t11.5 -52v-4h-240v4q6 21 11.5 52t9 77t6 109t2.5 149v651q0 85 -2.5 148.5t-6 109.5t-9 77.5t-11.5 52.5v4l42 -4q19 -2 42.5 -2.5t48.5 -0.5q39 0 105.5 9.5t169.5 9.5q96 0 177.5 -26t141.5 -76t93.5 -122.5t33.5 -164.5 q0 -72 -18.5 -133.5t-52 -111.5t-80.5 -88.5t-105 -64.5l351 -493q26 -37 48.5 -64t43 -46.5t39.5 -32t39 -19.5v-4h-289q-3 19 -19.5 50.5t-38.5 62.5l-354 499q-23 -2 -46 -3.5t-47 -1.5q-28 0 -56.5 2t-57.5 7v-225zM354 694q27 -6 55 -8.5t54 -2.5q75 0 137 22.5 t105.5 68.5t67.5 114.5t24 160.5q0 75 -17 136t-50.5 103.5t-84.5 66t-119 23.5q-69 0 -110 -7t-62 -15v-662zM559 -248q0 40 28 67t70 27q40 0 68 -31t28 -77q0 -27 -11 -59.5t-29 -65.5t-41 -65.5t-48 -59.5l-26 18q53 76 59 148q-42 0 -70 28t-28 70z"/>
    <glyph glyph-name="rcommaaccent" unicode="ŗ" horiz-adv-x="803" d="M154 633q0 85 -2.5 148.5t-6 109.5t-9 77t-11.5 52v4h231v-4q-8 -23 -13.5 -56t-8.5 -85q37 31 77 61t82 53t85.5 37t87.5 14q27 0 47 -2.5t36 -7t29 -10t25 -10.5l-49 -191l-17 4q-12 44 -45 70.5t-90 26.5q-31 0 -65 -11t-69 -30.5t-70 -45t-68 -53.5q-2 -29 -2 -63 v-72v-258q0 -85 2 -148.5t6 -109.5t9 -77t11 -52v-4h-231v4q6 21 11.5 52t9 77t6 109.5t2.5 148.5v242zM143 -248q0 40 28 67t70 27q40 0 68 -31t28 -77q0 -27 -11 -59.5t-29 -65.5t-41 -65.5t-48 -59.5l-26 18q53 76 59 148q-42 0 -70 28t-28 70z"/>
    <glyph glyph-name="Rcaron" unicode="Ř" horiz-adv-x="1210" d="M354 391q0 -85 2.5 -148.5t6 -109.5t9 -77t11.5 -52v-4h-240v4q6 21 11.5 52t9 77t6 109t2.5 149v651q0 85 -2.5 148.5t-6 109.5t-9 77.5t-11.5 52.5v4l42 -4q19 -2 42.5 -2.5t48.5 -0.5q39 0 105.5 9.5t169.5 9.5q96 0 177.5 -26t141.5 -76t93.5 -122.5t33.5 -164.5 q0 -72 -18.5 -133.5t-52 -111.5t-80.5 -88.5t-105 -64.5l351 -493q26 -37 48.5 -64t43 -46.5t39.5 -32t39 -19.5v-4h-289q-3 19 -19.5 50.5t-38.5 62.5l-354 499q-23 -2 -46 -3.5t-47 -1.5q-28 0 -56.5 2t-57.5 7v-225zM354 694q27 -6 55 -8.5t54 -2.5q75 0 137 22.5 t105.5 68.5t67.5 114.5t24 160.5q0 75 -17 136t-50.5 103.5t-84.5 66t-119 23.5q-69 0 -110 -7t-62 -15v-662zM532 1555q-58 52 -120 104q-54 45 -119 96t-130 95l23 37q44 -23 91 -45.5t92.5 -43t87 -38t75.5 -29.5q34 12 76 30t87.5 38.5t92.5 43t90 44.5l23 -37 q-65 -44 -130 -95t-119 -96q-62 -52 -120 -104z"/>
    <glyph glyph-name="rcaron" unicode="ř" horiz-adv-x="803" d="M154 633q0 85 -2.5 148.5t-6 109.5t-9 77t-11.5 52v4h231v-4q-8 -23 -13.5 -56t-8.5 -85q37 31 77 61t82 53t85.5 37t87.5 14q27 0 47 -2.5t36 -7t29 -10t25 -10.5l-49 -191l-17 4q-12 44 -45 70.5t-90 26.5q-31 0 -65 -11t-69 -30.5t-70 -45t-68 -53.5q-2 -29 -2 -63 v-72v-258q0 -85 2 -148.5t6 -109.5t9 -77t11 -52v-4h-231v4q6 21 11.5 52t9 77t6 109.5t2.5 148.5v242zM443 1145q-58 52 -120 104q-54 45 -119 96t-130 95l23 37q44 -23 91 -45.5t92.5 -43t87 -38t75.5 -29.5q34 12 76 30t87.5 38.5t92.5 43t90 44.5l23 -37 q-65 -44 -130 -95t-119 -96q-62 -52 -120 -104z"/>
    <glyph glyph-name="Sacute" unicode="Ś" horiz-adv-x="932" d="M741 1206h-22q-8 23 -25.5 52t-46 54.5t-69 42.5t-95.5 17q-49 0 -87 -15t-63.5 -42t-38.5 -64t-13 -82q0 -72 40.5 -137.5t101.5 -129.5t132 -128t132 -133t101.5 -144.5t40.5 -162.5q0 -65 -22.5 -130.5t-69.5 -117.5t-121 -84.5t-176 -32.5q-57 0 -108.5 10.5t-95 26 t-78 33.5t-56.5 33l23 221h25q11 -47 36 -89.5t61.5 -75t83.5 -52t103 -19.5q51 0 91.5 15.5t69.5 43t44.5 65.5t15.5 83q0 63 -23 116.5t-60.5 101.5t-85 93t-97.5 90.5t-97.5 93.5t-85 102.5t-60.5 117t-23 137.5q0 79 30.5 142.5t81 108.5t114.5 69t132 24q50 0 92 -8 t75.5 -19t58.5 -22t41 -18zM697 1731q-74 -25 -150 -53q-33 -12 -69 -26t-73 -30t-74.5 -32.5t-71.5 -34.5l-22 37q65 43 129.5 94t118.5 96q62 52 120 105z"/>
    <glyph glyph-name="sacute" unicode="ś" horiz-adv-x="725" d="M606 823l-14 -2q-7 23 -22.5 49t-40 48t-59 36.5t-79.5 14.5q-31 0 -58.5 -9t-48 -26.5t-32.5 -43.5t-12 -61q0 -49 30.5 -93.5t76.5 -88t99.5 -87.5t99.5 -92t76.5 -102.5t30.5 -117.5q0 -51 -18 -99.5t-55.5 -86.5t-96 -61.5t-139.5 -23.5q-48 0 -89.5 9t-76 22.5 t-62 30t-48.5 31.5l10 190h16q10 -47 30 -86t49.5 -66.5t67.5 -43t83 -15.5q74 0 117.5 41t43.5 107q0 53 -29.5 97.5t-74.5 85.5t-96.5 82t-96.5 87.5t-74.5 102t-29.5 126.5q0 58 21.5 106.5t60 83t91.5 53.5t116 19q83 0 138.5 -17.5t84.5 -33.5zM595 1321 q-74 -25 -150 -53q-33 -12 -69 -26t-73 -30t-74.5 -32.5t-71.5 -34.5l-22 37q65 43 129.5 94t118.5 96q62 52 120 105z"/>
    <glyph glyph-name="Scircumflex" unicode="Ŝ" horiz-adv-x="932" d="M741 1206h-22q-8 23 -25.5 52t-46 54.5t-69 42.5t-95.5 17q-49 0 -87 -15t-63.5 -42t-38.5 -64t-13 -82q0 -72 40.5 -137.5t101.5 -129.5t132 -128t132 -133t101.5 -144.5t40.5 -162.5q0 -65 -22.5 -130.5t-69.5 -117.5t-121 -84.5t-176 -32.5q-57 0 -108.5 10.5t-95 26 t-78 33.5t-56.5 33l23 221h25q11 -47 36 -89.5t61.5 -75t83.5 -52t103 -19.5q51 0 91.5 15.5t69.5 43t44.5 65.5t15.5 83q0 63 -23 116.5t-60.5 101.5t-85 93t-97.5 90.5t-97.5 93.5t-85 102.5t-60.5 117t-23 137.5q0 79 30.5 142.5t81 108.5t114.5 69t132 24q50 0 92 -8 t75.5 -19t58.5 -22t41 -18zM468 1887q58 -53 120 -105q54 -45 119 -96t130 -94l-23 -37q-43 21 -90 43.5t-92.5 43.5t-87.5 38.5t-76 29.5q-34 -12 -75.5 -29.5t-87 -38t-92.5 -43t-91 -44.5l-23 37q65 43 130 94t119 96q62 52 120 105z"/>
    <glyph glyph-name="scircumflex" unicode="ŝ" horiz-adv-x="725" d="M606 823l-14 -2q-7 23 -22.5 49t-40 48t-59 36.5t-79.5 14.5q-31 0 -58.5 -9t-48 -26.5t-32.5 -43.5t-12 -61q0 -49 30.5 -93.5t76.5 -88t99.5 -87.5t99.5 -92t76.5 -102.5t30.5 -117.5q0 -51 -18 -99.5t-55.5 -86.5t-96 -61.5t-139.5 -23.5q-48 0 -89.5 9t-76 22.5 t-62 30t-48.5 31.5l10 190h16q10 -47 30 -86t49.5 -66.5t67.5 -43t83 -15.5q74 0 117.5 41t43.5 107q0 53 -29.5 97.5t-74.5 85.5t-96.5 82t-96.5 87.5t-74.5 102t-29.5 126.5q0 58 21.5 106.5t60 83t91.5 53.5t116 19q83 0 138.5 -17.5t84.5 -33.5zM363 1477 q58 -53 120 -105q54 -45 119 -96t130 -94l-23 -37q-43 21 -90 43.5t-92.5 43.5t-87.5 38.5t-76 29.5q-34 -12 -75.5 -29.5t-87 -38t-92.5 -43t-91 -44.5l-23 37q65 43 130 94t119 96q62 52 120 105z"/>
    <glyph glyph-name="Scedilla" unicode="Ş" horiz-adv-x="932" d="M700 -285q0 -39 -19 -71t-52.5 -54.5t-79 -34.5t-98.5 -12q-62 0 -116.5 13.5t-101.5 37.5l19 46q13 -6 29 -13.5t35.5 -13.5t44 -10t55.5 -4q66 0 107.5 32t41.5 84q0 57 -39 84t-96 27q-9 0 -24 -1t-23 -3l53 147q-56 1 -106.5 11.5t-93.5 25.5t-77.5 33t-56.5 33 l23 221h25q11 -47 36 -89.5t61.5 -75t83.5 -52t103 -19.5q51 0 91.5 15.5t69.5 43t44.5 65.5t15.5 83q0 63 -23 116.5t-60.5 101.5t-85 93t-97.5 90.5t-97.5 93.5t-85 102.5t-60.5 117t-23 137.5q0 79 30.5 142.5t81 108.5t114.5 69t132 24q50 0 92 -8t75.5 -19t58.5 -22 t41 -18l-7 -187h-22q-8 23 -25.5 52t-46 54.5t-69 42.5t-95.5 17q-49 0 -87 -15t-63.5 -42t-38.5 -64t-13 -82q0 -72 40.5 -137.5t101.5 -129.5t132 -128t132 -133t101.5 -144.5t40.5 -162.5q0 -62 -20 -124t-62 -112.5t-107.5 -85t-156.5 -41.5l-37 -100q13 2 24.5 3 t25.5 1q56 0 95 -14.5t63 -37t35 -51.5t11 -57z"/>
    <glyph glyph-name="scedilla" unicode="ş" horiz-adv-x="725" d="M584 -285q0 -39 -19 -71t-53 -54.5t-79.5 -34.5t-98.5 -12q-62 0 -116.5 13.5t-100.5 37.5l18 46q13 -6 29 -13.5t35.5 -13.5t44 -10t55.5 -4q66 0 108 32t42 84q0 57 -39.5 84t-96.5 27q-9 0 -24 -1t-23 -3l58 155q-45 3 -83 12t-70.5 22.5t-58 28.5t-44.5 30l10 190h16 q10 -47 30 -86t49.5 -66.5t67.5 -43t83 -15.5q74 0 117.5 41t43.5 107q0 53 -29.5 97.5t-74.5 85.5t-96.5 82t-96.5 87.5t-74.5 102t-29.5 126.5q0 58 21.5 106.5t60 83t91.5 53.5t116 19q83 0 138.5 -17.5t84.5 -33.5l10 -166l-14 -2q-7 23 -22.5 49t-40 48t-59 36.5 t-79.5 14.5q-31 0 -58.5 -9t-48 -26.5t-32.5 -43.5t-12 -61q0 -49 30.5 -93.5t76.5 -88t99.5 -87.5t99.5 -92t76.5 -102.5t30.5 -117.5q0 -49 -16.5 -95.5t-51 -83.5t-88.5 -61t-128 -28l-39 -109q12 2 23.5 3t25.5 1q56 0 95 -14.5t63.5 -37t35.5 -51.5t11 -57z"/>
    <glyph glyph-name="Scaron" unicode="Š" horiz-adv-x="932" d="M741 1206h-22q-8 23 -25.5 52t-46 54.5t-69 42.5t-95.5 17q-49 0 -87 -15t-63.5 -42t-38.5 -64t-13 -82q0 -72 40.5 -137.5t101.5 -129.5t132 -128t132 -133t101.5 -144.5t40.5 -162.5q0 -65 -22.5 -130.5t-69.5 -117.5t-121 -84.5t-176 -32.5q-57 0 -108.5 10.5t-95 26 t-78 33.5t-56.5 33l23 221h25q11 -47 36 -89.5t61.5 -75t83.5 -52t103 -19.5q51 0 91.5 15.5t69.5 43t44.5 65.5t15.5 83q0 63 -23 116.5t-60.5 101.5t-85 93t-97.5 90.5t-97.5 93.5t-85 102.5t-60.5 117t-23 137.5q0 79 30.5 142.5t81 108.5t114.5 69t132 24q50 0 92 -8 t75.5 -19t58.5 -22t41 -18zM468 1555q-58 52 -120 104q-54 45 -119 96t-130 95l23 37q44 -23 91 -45.5t92.5 -43t87 -38t75.5 -29.5q34 12 76 30t87.5 38.5t92.5 43t90 44.5l23 -37q-65 -44 -130 -95t-119 -96q-62 -52 -120 -104z"/>
    <glyph glyph-name="scaron" unicode="š" horiz-adv-x="725" d="M606 823l-14 -2q-7 23 -22.5 49t-40 48t-59 36.5t-79.5 14.5q-31 0 -58.5 -9t-48 -26.5t-32.5 -43.5t-12 -61q0 -49 30.5 -93.5t76.5 -88t99.5 -87.5t99.5 -92t76.5 -102.5t30.5 -117.5q0 -51 -18 -99.5t-55.5 -86.5t-96 -61.5t-139.5 -23.5q-48 0 -89.5 9t-76 22.5 t-62 30t-48.5 31.5l10 190h16q10 -47 30 -86t49.5 -66.5t67.5 -43t83 -15.5q74 0 117.5 41t43.5 107q0 53 -29.5 97.5t-74.5 85.5t-96.5 82t-96.5 87.5t-74.5 102t-29.5 126.5q0 58 21.5 106.5t60 83t91.5 53.5t116 19q83 0 138.5 -17.5t84.5 -33.5zM363 1145 q-58 52 -120 104q-54 45 -119 96t-130 95l23 37q44 -23 91 -45.5t92.5 -43t87 -38t75.5 -29.5q34 12 76 30t87.5 38.5t92.5 43t90 44.5l23 -37q-65 -44 -130 -95t-119 -96q-62 -52 -120 -104z"/>
    <glyph glyph-name="Tcommaaccent" unicode="Ţ" horiz-adv-x="1223" d="M520 1346q-118 0 -213 -10.5t-164 -22.5q-80 -15 -143 -33l29 162q12 -1 36 -2t53.5 -2t62 -1.5t61.5 -1t51.5 -1t32.5 -0.5h571q10 0 32.5 0.5t51.5 1t61.5 1t62 1.5t53.5 2t36 2l29 -162q-64 18 -144 33q-69 12 -164 22.5t-213 10.5v-955q0 -85 2.5 -148.5t6 -109.5 t9 -77t11.5 -52v-4h-239v4q6 21 11 52t9 77t6 109.5t2 148.5v955zM514 -248q0 40 28 67t70 27q40 0 68 -31t28 -77q0 -27 -11 -59.5t-29 -65.5t-41 -65.5t-48 -59.5l-26 18q53 76 59 148q-42 0 -70 28t-28 70z"/>
    <glyph glyph-name="tcommaaccent" unicode="ţ" horiz-adv-x="786" d="M516 59q30 0 59.5 11t57 30t53 43.5t47.5 51.5l10 -5l-65 -161q-12 -6 -29.5 -14.5t-42 -16t-57.5 -13t-78 -5.5q-134 0 -208.5 72.5t-74.5 226.5v667l-168 -6v88q31 -2 74 -3t94 -1q-1 71 -3.5 125.5t-6 95t-8.5 68.5t-10 47v4h231v-4q-6 -19 -11 -47t-8.5 -68t-6 -94.5 t-3.5 -126.5q63 1 123.5 2.5t110 4t84 5t45.5 4.5l-18 -102q-51 1 -107 3q-48 2 -110 3t-128 2v-688q0 -62 13.5 -100.5t35 -60.5t49 -30t56.5 -8zM347 -248q0 40 28 67t70 27q40 0 68 -31t28 -77q0 -27 -11 -59.5t-29 -65.5t-41 -65.5t-48 -59.5l-26 18q53 76 59 148 q-42 0 -70 28t-28 70z"/>
    <glyph glyph-name="Tcaron" unicode="Ť" horiz-adv-x="1223" d="M520 1346q-118 0 -213 -10.5t-164 -22.5q-80 -15 -143 -33l29 162q12 -1 36 -2t53.5 -2t62 -1.5t61.5 -1t51.5 -1t32.5 -0.5h571q10 0 32.5 0.5t51.5 1t61.5 1t62 1.5t53.5 2t36 2l29 -162q-64 18 -144 33q-69 12 -164 22.5t-213 10.5v-955q0 -85 2.5 -148.5t6 -109.5 t9 -77t11.5 -52v-4h-239v4q6 21 11 52t9 77t6 109.5t2 148.5v955zM610 1555q-58 52 -120 104q-54 45 -119 96t-130 95l23 37q44 -23 91 -45.5t92.5 -43t87 -38t75.5 -29.5q34 12 76 30t87.5 38.5t92.5 43t90 44.5l23 -37q-65 -44 -130 -95t-119 -96q-62 -52 -120 -104z"/>
    <glyph glyph-name="tcaron" unicode="ť" horiz-adv-x="786" d="M516 59q30 0 59.5 11t57 30t53 43.5t47.5 51.5l10 -5l-65 -161q-12 -6 -29.5 -14.5t-42 -16t-57.5 -13t-78 -5.5q-134 0 -208.5 72.5t-74.5 226.5v667l-168 -6v88q31 -2 74 -3t94 -1q-1 71 -3.5 125.5t-6 95t-8.5 68.5t-10 47v4h231v-4q-6 -19 -11 -47t-8.5 -68t-6 -94.5 t-3.5 -126.5q63 1 123.5 2.5t110 4t84 5t45.5 4.5l-18 -102q-51 1 -107 3q-48 2 -110 3t-128 2v-688q0 -62 13.5 -100.5t35 -60.5t49 -30t56.5 -8zM545 1380q0 40 28 67t70 27q40 0 68 -31t28 -77q0 -27 -11 -59.5t-29 -65.5t-41 -65.5t-48 -59.5l-26 18q53 76 59 148 q-42 0 -70 28t-28 70z"/>
    <glyph glyph-name="Tbar" unicode="Ŧ" horiz-adv-x="1223" d="M90 911h430v435q-118 0 -213 -10.5t-164 -22.5q-80 -15 -143 -33l29 162q12 -1 36 -2t53.5 -2t62 -1.5t61.5 -1t51.5 -1t32.5 -0.5h571q10 0 32.5 0.5t51.5 1t61.5 1t62 1.5t53.5 2t36 2l29 -162q-64 18 -144 33q-69 12 -164 22.5t-213 10.5v-435h431v-82h-431v-438 q0 -85 2.5 -148.5t6 -109.5t9 -77t11.5 -52v-4h-239v4q6 21 11 52t9 77t6 109.5t2 148.5v438h-430v82z"/>
    <glyph glyph-name="tbar" unicode="ŧ" horiz-adv-x="786" d="M20 1028q31 -2 74 -3t94 -1q-1 71 -3.5 125.5t-6 95t-8.5 68.5t-10 47v4h231v-4q-6 -19 -11 -47t-8.5 -68t-6 -94.5t-3.5 -126.5q63 1 123.5 2.5t110 4t84 5t45.5 4.5l-18 -102q-51 1 -107 3q-48 2 -110 3t-128 2v-239h297v-82h-297v-367q0 -62 13.5 -100.5t35 -60.5 t49 -30t56.5 -8q30 0 59.5 11t57 30t53 43.5t47.5 51.5l10 -5l-65 -161q-12 -6 -29.5 -14.5t-42 -16t-57.5 -13t-78 -5.5q-134 0 -208.5 72.5t-74.5 226.5v346h-159v82h159v239l-168 -6v88z"/>
    <glyph glyph-name="Utilde" unicode="Ũ" horiz-adv-x="1454" d="M1169 1042q0 85 -2 148.5t-6 110t-9 77.5t-11 52v4h178v-4q-6 -21 -11.5 -52t-9 -77.5t-6 -110t-2.5 -148.5v-540q0 -143 -41 -244t-114 -165.5t-175 -94t-223 -29.5t-225.5 28t-182 90.5t-121.5 162t-44 242.5v550q0 85 -2 148.5t-6 110t-9.5 77.5t-11.5 52v4h240v-4 q-6 -21 -11.5 -52t-9.5 -77.5t-6 -110t-2 -148.5v-561q0 -119 35.5 -196.5t93.5 -123t132 -63.5t151 -18t151 18t131.5 63.5t93 123t35.5 196.5v561zM1057 1805q-23 -43 -43 -74.5t-41 -52.5t-45.5 -31t-54.5 -10q-26 0 -62 11.5t-74 25t-72 25t-55 11.5q-35 0 -61 -18 t-51 -61l-29 16q22 43 42 74.5t41.5 52.5t45.5 31t55 10q25 0 61.5 -11.5t74.5 -25.5t72 -25.5t55 -11.5q35 0 61 18.5t51 61.5l29 -16v0z"/>
    <glyph glyph-name="utilde" unicode="ũ" horiz-adv-x="1163" d="M322 350q0 -132 52.5 -194t141.5 -62q32 0 72 13.5t82.5 36t85 52.5t78.5 64q2 29 2 61.5v69.5v242q0 85 -2.5 148.5t-6 109.5t-9 77t-11.5 52v4h231v-4q-6 -21 -11 -52t-9 -77t-6 -109.5t-2 -148.5v-242q0 -85 2 -148.5t6 -109.5t9 -77t11 -52v-4h-231v4q6 25 12.5 64 t9.5 102q-41 -35 -88.5 -69t-99 -61t-104 -43.5t-103.5 -16.5q-78 0 -132.5 27t-89 71t-50 100t-15.5 115v340q0 85 -2 148.5t-6 109.5t-9 77t-11 52v4h231v-4q-6 -21 -11 -52t-9 -77t-6 -109.5t-2 -148.5v-283zM875 1395q-23 -43 -43 -74.5t-41 -52.5t-45.5 -31t-54.5 -10 q-26 0 -62 11.5t-74 25t-72 25t-55 11.5q-35 0 -61 -18t-51 -61l-29 16q22 43 42 74.5t41.5 52.5t45.5 31t55 10q25 0 61.5 -11.5t74.5 -25.5t72 -25.5t55 -11.5q35 0 61 18.5t51 61.5l29 -16v0z"/>
    <glyph glyph-name="Umacron" unicode="Ū" horiz-adv-x="1454" d="M1169 1042q0 85 -2 148.5t-6 110t-9 77.5t-11 52v4h178v-4q-6 -21 -11.5 -52t-9 -77.5t-6 -110t-2.5 -148.5v-540q0 -143 -41 -244t-114 -165.5t-175 -94t-223 -29.5t-225.5 28t-182 90.5t-121.5 162t-44 242.5v550q0 85 -2 148.5t-6 110t-9.5 77.5t-11.5 52v4h240v-4 q-6 -21 -11.5 -52t-9.5 -77.5t-6 -110t-2 -148.5v-561q0 -119 35.5 -196.5t93.5 -123t132 -63.5t151 -18t151 18t131.5 63.5t93 123t35.5 196.5v561zM482 1774h532v-98h-532v98z"/>
    <glyph glyph-name="umacron" unicode="ū" horiz-adv-x="1163" d="M322 350q0 -132 52.5 -194t141.5 -62q32 0 72 13.5t82.5 36t85 52.5t78.5 64q2 29 2 61.5v69.5v242q0 85 -2.5 148.5t-6 109.5t-9 77t-11.5 52v4h231v-4q-6 -21 -11 -52t-9 -77t-6 -109.5t-2 -148.5v-242q0 -85 2 -148.5t6 -109.5t9 -77t11 -52v-4h-231v4q6 25 12.5 64 t9.5 102q-41 -35 -88.5 -69t-99 -61t-104 -43.5t-103.5 -16.5q-78 0 -132.5 27t-89 71t-50 100t-15.5 115v340q0 85 -2 148.5t-6 109.5t-9 77t-11 52v4h231v-4q-6 -21 -11 -52t-9 -77t-6 -109.5t-2 -148.5v-283zM316 1364h532v-98h-532v98z"/>
    <glyph glyph-name="Ubreve" unicode="Ŭ" horiz-adv-x="1454" d="M1169 1042q0 85 -2 148.5t-6 110t-9 77.5t-11 52v4h178v-4q-6 -21 -11.5 -52t-9 -77.5t-6 -110t-2.5 -148.5v-540q0 -143 -41 -244t-114 -165.5t-175 -94t-223 -29.5t-225.5 28t-182 90.5t-121.5 162t-44 242.5v550q0 85 -2 148.5t-6 110t-9.5 77.5t-11.5 52v4h240v-4 q-6 -21 -11.5 -52t-9.5 -77.5t-6 -110t-2 -148.5v-561q0 -119 35.5 -196.5t93.5 -123t132 -63.5t151 -18t151 18t131.5 63.5t93 123t35.5 196.5v561zM748 1596q-67 0 -117.5 23t-88.5 64.5t-64.5 99t-44.5 126.5l39 10q11 -30 28.5 -63.5t48.5 -62t79 -47.5t120 -19t120 19 t79 47.5t48.5 62t28.5 63.5l39 -10q-18 -69 -44.5 -126.5t-64.5 -99t-88.5 -64.5t-117.5 -23z"/>
    <glyph glyph-name="ubreve" unicode="ŭ" horiz-adv-x="1163" d="M322 350q0 -132 52.5 -194t141.5 -62q32 0 72 13.5t82.5 36t85 52.5t78.5 64q2 29 2 61.5v69.5v242q0 85 -2.5 148.5t-6 109.5t-9 77t-11.5 52v4h231v-4q-6 -21 -11 -52t-9 -77t-6 -109.5t-2 -148.5v-242q0 -85 2 -148.5t6 -109.5t9 -77t11 -52v-4h-231v4q6 25 12.5 64 t9.5 102q-41 -35 -88.5 -69t-99 -61t-104 -43.5t-103.5 -16.5q-78 0 -132.5 27t-89 71t-50 100t-15.5 115v340q0 85 -2 148.5t-6 109.5t-9 77t-11 52v4h231v-4q-6 -21 -11 -52t-9 -77t-6 -109.5t-2 -148.5v-283zM582 1186q-67 0 -117.5 23t-88.5 64.5t-64.5 99t-44.5 126.5 l39 10q11 -30 28.5 -63.5t48.5 -62t79 -47.5t120 -19t120 19t79 47.5t48.5 62t28.5 63.5l39 -10q-18 -69 -44.5 -126.5t-64.5 -99t-88.5 -64.5t-117.5 -23z"/>
    <glyph glyph-name="Uring" unicode="Ů" horiz-adv-x="1454" d="M1169 1042q0 85 -2 148.5t-6 110t-9 77.5t-11 52v4h178v-4q-6 -21 -11.5 -52t-9 -77.5t-6 -110t-2.5 -148.5v-540q0 -143 -41 -244t-114 -165.5t-175 -94t-223 -29.5t-225.5 28t-182 90.5t-121.5 162t-44 242.5v550q0 85 -2 148.5t-6 110t-9.5 77.5t-11.5 52v4h240v-4 q-6 -21 -11.5 -52t-9.5 -77.5t-6 -110t-2 -148.5v-561q0 -119 35.5 -196.5t93.5 -123t132 -63.5t151 -18t151 18t131.5 63.5t93 123t35.5 196.5v561zM611 1766q0 -29 10.5 -53.5t29.5 -43.5t43.5 -29.5t53.5 -10.5q28 0 53 10.5t44 29.5t29.5 43.5t10.5 53.5q0 28 -10.5 53 t-29.5 44t-44 29.5t-53 10.5q-29 0 -53.5 -10.5t-43.5 -29.5t-29.5 -44t-10.5 -53zM519 1766q0 48 18 89.5t49 72.5t72.5 49t89.5 18t89.5 -18t72.5 -49t49 -72.5t18 -89.5t-18 -89.5t-49 -73t-72.5 -49.5t-89.5 -18t-89.5 18t-72.5 49.5t-49 73t-18 89.5z"/>
    <glyph glyph-name="uring" unicode="ů" horiz-adv-x="1163" d="M322 350q0 -132 52.5 -194t141.5 -62q32 0 72 13.5t82.5 36t85 52.5t78.5 64q2 29 2 61.5v69.5v242q0 85 -2.5 148.5t-6 109.5t-9 77t-11.5 52v4h231v-4q-6 -21 -11 -52t-9 -77t-6 -109.5t-2 -148.5v-242q0 -85 2 -148.5t6 -109.5t9 -77t11 -52v-4h-231v4q6 25 12.5 64 t9.5 102q-41 -35 -88.5 -69t-99 -61t-104 -43.5t-103.5 -16.5q-78 0 -132.5 27t-89 71t-50 100t-15.5 115v340q0 85 -2 148.5t-6 109.5t-9 77t-11 52v4h231v-4q-6 -21 -11 -52t-9 -77t-6 -109.5t-2 -148.5v-283zM445 1356q0 -29 10.5 -53.5t29.5 -43.5t43.5 -29.5 t53.5 -10.5q28 0 53 10.5t44 29.5t29.5 43.5t10.5 53.5q0 28 -10.5 53t-29.5 44t-44 29.5t-53 10.5q-29 0 -53.5 -10.5t-43.5 -29.5t-29.5 -44t-10.5 -53zM353 1356q0 48 18 89.5t49 72.5t72.5 49t89.5 18t89.5 -18t72.5 -49t49 -72.5t18 -89.5t-18 -89.5t-49 -73 t-72.5 -49.5t-89.5 -18t-89.5 18t-72.5 49.5t-49 73t-18 89.5z"/>
    <glyph glyph-name="Uhungarumlaut" unicode="Ű" horiz-adv-x="1454" d="M1169 1042q0 85 -2 148.5t-6 110t-9 77.5t-11 52v4h178v-4q-6 -21 -11.5 -52t-9 -77.5t-6 -110t-2.5 -148.5v-540q0 -143 -41 -244t-114 -165.5t-175 -94t-223 -29.5t-225.5 28t-182 90.5t-121.5 162t-44 242.5v550q0 85 -2 148.5t-6 110t-9.5 77.5t-11.5 52v4h240v-4 q-6 -21 -11.5 -52t-9.5 -77.5t-6 -110t-2 -148.5v-561q0 -119 35.5 -196.5t93.5 -123t132 -63.5t151 -18t151 18t131.5 63.5t93 123t35.5 196.5v561zM813 1737q-63 -26 -128 -56q-56 -26 -121.5 -58.5t-125.5 -67.5l-25 37q56 43 109 94.5t95 96.5q49 53 93 106zM1161 1737 q-63 -26 -128 -56q-56 -26 -121.5 -58.5t-125.5 -67.5l-25 37q56 43 109 94.5t95 96.5q49 53 93 106z"/>
    <glyph glyph-name="uhungarumlaut" unicode="ű" horiz-adv-x="1163" d="M322 350q0 -132 52.5 -194t141.5 -62q32 0 72 13.5t82.5 36t85 52.5t78.5 64q2 29 2 61.5v69.5v242q0 85 -2.5 148.5t-6 109.5t-9 77t-11.5 52v4h231v-4q-6 -21 -11 -52t-9 -77t-6 -109.5t-2 -148.5v-242q0 -85 2 -148.5t6 -109.5t9 -77t11 -52v-4h-231v4q6 25 12.5 64 t9.5 102q-41 -35 -88.5 -69t-99 -61t-104 -43.5t-103.5 -16.5q-78 0 -132.5 27t-89 71t-50 100t-15.5 115v340q0 85 -2 148.5t-6 109.5t-9 77t-11 52v4h231v-4q-6 -21 -11 -52t-9 -77t-6 -109.5t-2 -148.5v-283zM668 1327q-63 -26 -128 -56q-56 -26 -121.5 -58.5 t-125.5 -67.5l-25 37q56 43 109 94.5t95 96.5q49 53 93 106zM1016 1327q-63 -26 -128 -56q-56 -26 -121.5 -58.5t-125.5 -67.5l-25 37q56 43 109 94.5t95 96.5q49 53 93 106z"/>
    <glyph glyph-name="Uogonek" unicode="Ų" horiz-adv-x="1454" d="M991 -346q-24 -16 -53 -31t-62 -27t-69.5 -19t-75.5 -7q-38 0 -75.5 8t-66.5 26.5t-47 48t-18 71.5q0 37 18 70.5t50.5 63.5t78 57.5t99.5 53.5h-33q-121 0 -225.5 28t-182 90.5t-121.5 162t-44 242.5v550q0 85 -2 148.5t-6 110t-9.5 77.5t-11.5 52v4h240v-4 q-6 -21 -11.5 -52t-9.5 -77.5t-6 -110t-2 -148.5v-561q0 -119 35.5 -196.5t93.5 -123t132 -63.5t151 -18t151 18t131.5 63.5t93 123t35.5 196.5v561q0 85 -2 148.5t-6 110t-9 77.5t-11 52v4h178v-4q-6 -21 -11.5 -52t-9 -77.5t-6 -110t-2.5 -148.5v-540q0 -124 -31 -216 t-87 -156t-135 -101.5t-175 -51.5q-41 -24 -77 -51t-62.5 -56t-41.5 -60t-15 -64q0 -54 32.5 -83.5t98.5 -29.5q26 0 51.5 5t48.5 12.5t43 16.5t35 18z"/>
    <glyph glyph-name="uogonek" unicode="ų" horiz-adv-x="1163" d="M322 350q0 -132 52.5 -194t141.5 -62q32 0 72 13.5t82.5 36t85 52.5t78.5 64q2 29 2 61.5v69.5v242q0 85 -2.5 148.5t-6 109.5t-9 77t-11.5 52v4h231v-4q-6 -21 -11 -52t-9 -77t-6 -109.5t-2 -148.5v-242q0 -85 2 -148.5t6 -109.5t9 -77t11 -52v-4q-54 -23 -101.5 -51.5 t-82 -61.5t-54.5 -68.5t-20 -72.5q0 -54 32.5 -83.5t98.5 -29.5q26 0 52 5t49 12.5t43 16.5t35 18l16 -31q-50 -32 -116 -58t-144 -26q-39 0 -76 8t-66 26.5t-47 48t-18 71.5q0 43 23.5 80t65.5 70.5t99 64.5t125 61h-145v4q6 25 12.5 64t9.5 102q-41 -35 -88.5 -69t-99 -61 t-104 -43.5t-103.5 -16.5q-78 0 -132.5 27t-89 71t-50 100t-15.5 115v340q0 85 -2 148.5t-6 109.5t-9 77t-11 52v4h231v-4q-6 -21 -11 -52t-9 -77t-6 -109.5t-2 -148.5v-283z"/>
    <glyph glyph-name="Wcircumflex" unicode="Ŵ" horiz-adv-x="2077" d="M1079 1245l400 -971l389 953q23 59 34 100t11 70q0 9 -1 18.5t-3 14.5v4h198v-4q-20 -22 -43.5 -70t-54.5 -119l-534 -1272h-76l-389 944l-355 -944h-75l-490 1223q-18 43 -36.5 83t-35 72t-30 54t-19.5 29v4h277v-4q-2 -11 -2 -17v-14q0 -34 7.5 -72t29.5 -92l376 -950 l359 956zM1038 1887q58 -53 120 -105q54 -45 119 -96t130 -94l-23 -37q-43 21 -90 43.5t-92.5 43.5t-87.5 38.5t-76 29.5q-34 -12 -75.5 -29.5t-87 -38t-92.5 -43t-91 -44.5l-23 37q65 43 130 94t119 96q62 52 120 105z"/>
    <glyph glyph-name="wcircumflex" unicode="ŵ" horiz-adv-x="1538" d="M829 932l267 -672l223 557q7 18 16 40.5t16 46t12 45t5 38.5q0 13 -2 21.5t-4 11.5v4h180v-4q-18 -19 -43.5 -62.5t-60.5 -126.5l-355 -845h-57l-258 626l-258 -626h-57l-328 796q-18 44 -38.5 84.5t-39 72.5t-32.5 53.5t-19 27.5v4h266v-4q-2 -5 -3 -15t-1 -18 q0 -31 9.5 -68.5t31.5 -93.5l223 -565l269 672h38zM788 1477q58 -53 120 -105q54 -45 119 -96t130 -94l-23 -37q-43 21 -90 43.5t-92.5 43.5t-87.5 38.5t-76 29.5q-34 -12 -75.5 -29.5t-87 -38t-92.5 -43t-91 -44.5l-23 37q65 43 130 94t119 96q62 52 120 105z"/>
    <glyph glyph-name="Ycircumflex" unicode="Ŷ" horiz-adv-x="1272" d="M727 688v-297q0 -85 2 -148.5t6 -109.5t9.5 -77t11.5 -52v-4h-240v4q6 21 11.5 52t9 77t6 109.5t2.5 148.5v277l-447 608q-23 31 -45.5 57t-42.5 45.5t-36 32.5t-25 19v4h303q0 -23 19.5 -75.5t70.5 -123.5l328 -449l321 469q17 25 34 51t31 50t22.5 44t8.5 34h195v-4 q-22 -19 -59 -56.5t-80 -99.5zM666 1887q58 -53 120 -105q54 -45 119 -96t130 -94l-23 -37q-43 21 -90 43.5t-92.5 43.5t-87.5 38.5t-76 29.5q-34 -12 -75.5 -29.5t-87 -38t-92.5 -43t-91 -44.5l-23 37q65 43 130 94t119 96q62 52 120 105z"/>
    <glyph glyph-name="ycircumflex" unicode="ŷ" horiz-adv-x="1006" d="M456 12l-352 770q-19 44 -41 84.5t-41.5 72.5t-34.5 53.5t-20 27.5v4h262v-4q-2 -5 -3 -15t-1 -18q0 -31 9.5 -68.5t35.5 -93.5l276 -600l252 592q16 37 32.5 81t16.5 89q0 13 -2 21.5t-4 11.5v4h180v-4q-18 -19 -45.5 -67.5t-58.5 -121.5l-477 -1136q-16 -37 -32.5 -81 t-16.5 -89q0 -13 2 -21.5t4 -11.5v-4h-187v4q19 19 46.5 66.5t58.5 119.5zM535 1477q58 -53 120 -105q54 -45 119 -96t130 -94l-23 -37q-43 21 -90 43.5t-92.5 43.5t-87.5 38.5t-76 29.5q-34 -12 -75.5 -29.5t-87 -38t-92.5 -43t-91 -44.5l-23 37q65 43 130 94t119 96 q62 52 120 105z"/>
    <glyph glyph-name="Ydieresis" unicode="Ÿ" horiz-adv-x="1272" d="M727 688v-297q0 -85 2 -148.5t6 -109.5t9.5 -77t11.5 -52v-4h-240v4q6 21 11.5 52t9 77t6 109.5t2.5 148.5v277l-447 608q-23 31 -45.5 57t-42.5 45.5t-36 32.5t-25 19v4h303q0 -23 19.5 -75.5t70.5 -123.5l328 -449l321 469q17 25 34 51t31 50t22.5 44t8.5 34h195v-4 q-22 -19 -59 -56.5t-80 -99.5zM390 1723q0 19 7 36t19.5 29.5t29 19.5t36.5 7q19 0 36 -7t29.5 -19.5t19.5 -29.5t7 -36t-7 -36t-19.5 -29.5t-29.5 -19.5t-36 -7q-20 0 -36.5 7t-29 19.5t-19.5 29.5t-7 36zM758 1723q0 19 7 36t19.5 29.5t29.5 19.5t36 7t36 -7t29.5 -19.5 t19.5 -29.5t7 -36t-7 -36t-19.5 -29.5t-29.5 -19.5t-36 -7t-36 7t-29.5 19.5t-19.5 29.5t-7 36z"/>
    <glyph glyph-name="Zacute" unicode="Ź" horiz-adv-x="1315" d="M297 88h428q117 0 216.5 10t173.5 23q86 14 157 33l-49 -162q-12 1 -36 2t-53.5 2t-62 1.5t-61.5 1t-51.5 1t-32.5 0.5h-903v25l974 1321h-376q-118 0 -217.5 -10.5t-173.5 -22.5q-86 -15 -156 -33l69 162q12 -1 36.5 -2t54 -2t61.5 -1.5t61 -1t51.5 -1t32.5 -0.5h832 v-27zM948 1731q-74 -25 -150 -53q-33 -12 -69 -26t-73 -30t-74.5 -32.5t-71.5 -34.5l-22 37q65 43 129.5 94t118.5 96q62 52 120 105z"/>
    <glyph glyph-name="zacute" unicode="ź" horiz-adv-x="954" d="M256 78h297q78 0 144 8.5t114 19.5q56 12 102 29l-45 -143q-12 1 -41.5 2.5t-62 3t-61.5 2t-39 0.5h-648v25l646 921h-209q-83 0 -152.5 -9t-120.5 -20q-60 -12 -108 -28l65 143q12 -2 41.5 -3t62.5 -2.5t61.5 -2t39.5 -0.5h563v-18zM770 1321q-74 -25 -150 -53 q-33 -12 -69 -26t-73 -30t-74.5 -32.5t-71.5 -34.5l-22 37q65 43 129.5 94t118.5 96q62 52 120 105z"/>
    <glyph glyph-name="Zdotaccent" unicode="Ż" horiz-adv-x="1315" d="M297 88h428q117 0 216.5 10t173.5 23q86 14 157 33l-49 -162q-12 1 -36 2t-53.5 2t-62 1.5t-61.5 1t-51.5 1t-32.5 0.5h-903v25l974 1321h-376q-118 0 -217.5 -10.5t-173.5 -22.5q-86 -15 -156 -33l69 162q12 -1 36.5 -2t54 -2t61.5 -1.5t61 -1t51.5 -1t32.5 -0.5h832 v-27zM596 1723q0 21 8 40t21.5 32.5t31.5 21.5t39 8q43 0 72.5 -29.5t29.5 -72.5q0 -21 -8 -39.5t-21.5 -32t-32.5 -21.5t-40 -8t-39 8t-31.5 21.5t-21.5 32t-8 39.5z"/>
    <glyph glyph-name="zdotaccent" unicode="ż" horiz-adv-x="954" d="M256 78h297q78 0 144 8.5t114 19.5q56 12 102 29l-45 -143q-12 1 -41.5 2.5t-62 3t-61.5 2t-39 0.5h-648v25l646 921h-209q-83 0 -152.5 -9t-120.5 -20q-60 -12 -108 -28l65 143q12 -2 41.5 -3t62.5 -2.5t61.5 -2t39.5 -0.5h563v-18zM414 1313q0 21 8 40t21.5 32.5 t31.5 21.5t39 8q43 0 72.5 -29.5t29.5 -72.5q0 -21 -8 -39.5t-21.5 -32t-32.5 -21.5t-40 -8t-39 8t-31.5 21.5t-21.5 32t-8 39.5z"/>
    <glyph glyph-name="Zcaron" unicode="Ž" horiz-adv-x="1315" d="M297 88h428q117 0 216.5 10t173.5 23q86 14 157 33l-49 -162q-12 1 -36 2t-53.5 2t-62 1.5t-61.5 1t-51.5 1t-32.5 0.5h-903v25l974 1321h-376q-118 0 -217.5 -10.5t-173.5 -22.5q-86 -15 -156 -33l69 162q12 -1 36.5 -2t54 -2t61.5 -1.5t61 -1t51.5 -1t32.5 -0.5h832 v-27zM698 1555q-58 52 -120 104q-54 45 -119 96t-130 95l23 37q44 -23 91 -45.5t92.5 -43t87 -38t75.5 -29.5q34 12 76 30t87.5 38.5t92.5 43t90 44.5l23 -37q-65 -44 -130 -95t-119 -96q-62 -52 -120 -104z"/>
    <glyph glyph-name="zcaron" unicode="ž" horiz-adv-x="954" d="M256 78h297q78 0 144 8.5t114 19.5q56 12 102 29l-45 -143q-12 1 -41.5 2.5t-62 3t-61.5 2t-39 0.5h-648v25l646 921h-209q-83 0 -152.5 -9t-120.5 -20q-60 -12 -108 -28l65 143q12 -2 41.5 -3t62.5 -2.5t61.5 -2t39.5 -0.5h563v-18zM511 1145q-58 52 -120 104 q-54 45 -119 96t-130 95l23 37q44 -23 91 -45.5t92.5 -43t87 -38t75.5 -29.5q34 12 76 30t87.5 38.5t92.5 43t90 44.5l23 -37q-65 -44 -130 -95t-119 -96q-62 -52 -120 -104z"/>
    <glyph glyph-name="florin" unicode="ƒ" horiz-adv-x="1057" d="M428 811l-190 -6v88q16 -1 38.5 -1.5t49.5 -1t56.5 -1t59.5 -0.5l43 250q14 76 44.5 135.5t74.5 100.5t101 62t124 21q38 0 69 -5t55.5 -12t42.5 -15t30 -13l10 -172l-12 -6q-12 24 -27 49t-35 46t-47.5 34.5t-64.5 13.5q-25 0 -51 -9t-50 -33t-43.5 -66t-31.5 -109 l-47 -272q96 3 159.5 7t83.5 9l-18 -102q-30 1 -67 2q-32 1 -75 2t-96 2l-145 -850q-13 -77 -46 -136.5t-80.5 -100t-107 -61.5t-126.5 -21q-39 0 -70.5 5t-57 12t-43.5 14.5t-30 13.5l-10 172l12 6q12 -24 27 -49.5t35 -46.5t47 -34.5t65 -13.5q25 0 54.5 9t57 33 t50.5 66.5t35 109.5z"/>
    <glyph glyph-name="AEacute" unicode="Ǽ" horiz-adv-x="1710" d="M774 715h-158.5t-136.5 -2l-295 -510q-10 -18 -21 -38.5t-20.5 -41.5t-15.5 -43t-6 -43q0 -13 2 -21.5t4 -11.5v-4h-250v4q32 20 75 66.5t85 117.5l508 850q46 78 82 143.5t62 116t42.5 85.5t22.5 51h137q121 0 237.5 1t213 2.5t165 4.5t92.5 8l-49 -133q-33 9 -77 16 q-38 6 -92.5 11.5t-125.5 5.5q-24 0 -57 -1.5t-64 -3.5q-36 -2 -73 -4v-546q103 1 185.5 6t140.5 10q68 6 120 14l-30 -145q-69 9 -141 17q-62 7 -135 12.5t-140 5.5v-627q117 0 216.5 10t173.5 23q86 14 157 33l-29 -162q-12 1 -36 2t-53.5 2t-62 1.5t-61.5 1t-51.5 1 t-32.5 0.5h-432v4q6 21 11.5 52t9 77t6 109.5t2.5 148.5v324h-105zM524 791h355v251v159t-2 114h-50zM1372 1731q-74 -25 -150 -53q-33 -12 -69 -26t-73 -30t-74.5 -32.5t-71.5 -34.5l-22 37q65 43 129.5 94t118.5 96q62 52 120 105z"/>
    <glyph glyph-name="aeacute" unicode="ǽ" horiz-adv-x="1751" d="M74 295q0 77 30.5 133.5t82 96.5t119 65.5t141.5 40.5t148.5 21.5t141.5 9.5v53q0 66 -17 114t-48 79.5t-74.5 47t-95.5 15.5q-36 0 -71 -6t-72.5 -20t-79 -38t-89.5 -61l-10 6l68 141q33 15 65 24.5t65 15.5t67.5 8.5t72.5 2.5q131 0 214 -39t128 -104 q65 66 154.5 103.5t189.5 37.5q103 0 191 -35.5t152.5 -103t102 -167t40.5 -226.5q-113 2 -226 3t-235 1q-87 0 -169.5 -1t-148.5 -3q6 -104 32.5 -188t73 -143.5t113 -91.5t150.5 -32q58 0 109.5 13.5t93.5 37.5t75 56.5t56 70.5l12 -6l-74 -178q-54 -28 -129 -47.5 t-180 -19.5q-131 0 -235 46t-172 142q-24 -22 -60.5 -54t-86 -62t-112 -51t-139.5 -21q-174 0 -269 81.5t-95 231.5zM494 61q58 0 104.5 19.5t82 49.5t61 66t42.5 70q-23 57 -35 126t-12 151v43q-98 -2 -182.5 -12.5t-147.5 -40.5t-99 -85t-36 -145q0 -118 59 -180t163 -62z M1110 592q100 0 200.5 0.5t182.5 3.5q-9 87 -34 156t-64 117t-92 74t-117 26q-58 0 -106.5 -25.5t-84.5 -73.5t-58 -117.5t-26 -158.5q45 -2 95 -2h104zM1167 1321q-74 -25 -150 -53q-33 -12 -69 -26t-73 -30t-74.5 -32.5t-71.5 -34.5l-22 37q65 43 129.5 94t118.5 96 q62 52 120 105z"/>
    <glyph glyph-name="Oslashacute" unicode="Ǿ" horiz-adv-x="1651" d="M367 119q-135 99 -210 250t-75 346q0 95 22 187t64.5 175t104 152.5t141 120.5t176 79.5t207.5 28.5q108 0 205.5 -22.5t181.5 -67.5l131 201l82 -53l-129 -197q70 -49 125.5 -113.5t94.5 -141.5t60 -166.5t21 -188.5q0 -95 -22 -187t-64.5 -174t-104.5 -151.5 t-141.5 -120t-175.5 -79t-207 -28.5q-115 0 -217 24.5t-188 72.5l-146 -222l-82 54zM854 59q111 0 203 40t158.5 116t103.5 185.5t37 248.5q0 168 -42.5 308t-125.5 239l-668 -1022q65 -56 148 -85.5t186 -29.5zM295 782q0 -162 38 -299.5t116 -236.5l667 1018 q-65 49 -143.5 76.5t-175.5 27.5q-111 0 -203 -39.5t-158.5 -114.5t-103.5 -184t-37 -248zM1054 1731q-74 -25 -150 -53q-33 -12 -69 -26t-73 -30t-74.5 -32.5t-71.5 -34.5l-22 37q65 43 129.5 94t118.5 96q62 52 120 105z"/>
    <glyph glyph-name="oslashacute" unicode="ǿ" horiz-adv-x="1231" d="M279 84q-96 68 -152.5 177.5t-56.5 252.5q0 113 42 209.5t115.5 167.5t173.5 111t215 40q70 0 133.5 -14.5t120.5 -40.5l117 178l82 -53l-115 -176q94 -69 150.5 -177.5t56.5 -250.5q0 -103 -36 -198t-106 -168t-171.5 -116.5t-233.5 -43.5q-68 0 -131 13.5t-118 39.5 l-125 -191l-82 54zM270 563q0 -106 22.5 -197t65.5 -159l451 686q-43 35 -96 55.5t-119 20.5q-71 0 -130 -27.5t-102.5 -79.5t-67.5 -127.5t-24 -171.5zM637 55q71 0 130.5 28t102.5 81t67 129t24 172q0 105 -21.5 194.5t-65.5 155.5l-448 -686q42 -35 94 -54.5t117 -19.5z M845 1321q-74 -25 -150 -53q-33 -12 -69 -26t-73 -30t-74.5 -32.5t-71.5 -34.5l-22 37q65 43 129.5 94t118.5 96q62 52 120 105z"/>
    <glyph glyph-name="dotlessj" unicode="ȷ" horiz-adv-x="485" d="M156 633q0 85 -2.5 148.5t-6 109.5t-9 77t-11.5 52v4h231v-4q-6 -21 -11 -52t-9 -77t-6 -109.5t-2 -148.5v-529q0 -135 -29.5 -234t-81 -175t-121 -136.5t-149.5 -117.5l-19 24q69 63 113 131t69 145.5t34.5 167t9.5 195.5v529z"/>
    <glyph glyph-name="circumflex" unicode="ˆ" d="M512 1477q58 -53 120 -105q54 -45 119 -96t130 -94l-23 -37q-43 21 -90 43.5t-92.5 43.5t-87.5 38.5t-76 29.5q-34 -12 -75.5 -29.5t-87 -38t-92.5 -43t-91 -44.5l-23 37q65 43 130 94t119 96q62 52 120 105z"/>
    <glyph glyph-name="caron" unicode="ˇ" d="M512 1145q-58 52 -120 104q-54 45 -119 96t-130 95l23 37q44 -23 91 -45.5t92.5 -43t87 -38t75.5 -29.5q34 12 76 30t87.5 38.5t92.5 43t90 44.5l23 -37q-65 -44 -130 -95t-119 -96q-62 -52 -120 -104z"/>
    <glyph glyph-name="breve" unicode="˘" d="M512 1186q-67 0 -117.5 23t-88.5 64.5t-64.5 99t-44.5 126.5l39 10q11 -30 28.5 -63.5t48.5 -62t79 -47.5t120 -19t120 19t79 47.5t48.5 62t28.5 63.5l39 -10q-18 -69 -44.5 -126.5t-64.5 -99t-88.5 -64.5t-117.5 -23z"/>
    <glyph glyph-name="dotaccent" unicode="˙" d="M410 1313q0 21 8 40t21.5 32.5t31.5 21.5t39 8q43 0 72.5 -29.5t29.5 -72.5q0 -21 -8 -39.5t-21.5 -32t-32.5 -21.5t-40 -8t-39 8t-31.5 21.5t-21.5 32t-8 39.5z"/>
    <glyph glyph-name="ring" unicode="˚" d="M375 1356q0 -29 10.5 -53.5t29.5 -43.5t43.5 -29.5t53.5 -10.5q28 0 53 10.5t44 29.5t29.5 43.5t10.5 53.5q0 28 -10.5 53t-29.5 44t-44 29.5t-53 10.5q-29 0 -53.5 -10.5t-43.5 -29.5t-29.5 -44t-10.5 -53zM283 1356q0 48 18 89.5t49 72.5t72.5 49t89.5 18t89.5 -18 t72.5 -49t49 -72.5t18 -89.5t-18 -89.5t-49 -73t-72.5 -49.5t-89.5 -18t-89.5 18t-72.5 49.5t-49 73t-18 89.5z"/>
    <glyph glyph-name="ogonek" unicode="˛" d="M735 -346q-24 -16 -53 -31t-62 -27t-69.5 -19t-75.5 -7q-38 0 -75.5 8t-66.5 26.5t-47 48t-18 71.5q0 43 23.5 80t65.5 70.5t99.5 64.5t125.5 61h65q-48 -26 -91.5 -55.5t-75.5 -61t-51 -66t-19 -71.5q0 -54 32.5 -83.5t98.5 -29.5q26 0 51.5 5t48.5 12.5t43 16.5t35 18z "/>
    <glyph glyph-name="tilde" unicode="˜" d="M805 1395q-23 -43 -43 -74.5t-41 -52.5t-45.5 -31t-54.5 -10q-26 0 -62 11.5t-74 25t-72 25t-55 11.5q-35 0 -61 -18t-51 -61l-29 16q22 43 42 74.5t41.5 52.5t45.5 31t55 10q25 0 61.5 -11.5t74.5 -25.5t72 -25.5t55 -11.5q35 0 61 18.5t51 61.5l29 -16v0z"/>
    <glyph glyph-name="hungarumlaut" unicode="˝" d="M539 1327q-63 -26 -128 -56q-56 -26 -121.5 -58.5t-125.5 -67.5l-25 37q56 43 109 94.5t95 96.5q49 53 93 106zM887 1327q-63 -26 -128 -56q-56 -26 -121.5 -58.5t-125.5 -67.5l-25 37q56 43 109 94.5t95 96.5q49 53 93 106z"/>
    <glyph glyph-name="mu" unicode="μ" horiz-adv-x="1169" d="M573 109q50 0 98.5 14.5t86.5 45t61 77.5t23 112v275q0 85 -2.5 148.5t-6 109.5t-9 77t-11.5 52v4h231v-4q-6 -21 -11 -52t-9 -77t-6 -109.5t-2 -148.5v-242q0 -85 2 -148.5t6 -109.5t9 -77t11 -52v-4h-231v4q6 22 11.5 57t9.5 89q-36 -82 -102 -131.5t-159 -49.5 q-48 0 -86 13t-68 35.5t-52.5 52t-38.5 61.5v-88q0 -85 2 -148.5t6 -109.5t9 -77t11 -52v-4h-231v4q6 21 11.5 52t9 77t6 109.5t2.5 148.5v590q0 85 -2.5 148.5t-6 109.5t-9 77t-11.5 52v4h231v-4q-6 -21 -11 -52t-9 -77t-6 -109.5t-2 -148.5v-268q0 -65 18.5 -113 t51.5 -79.5t78 -47.5t97 -16z"/>
    <glyph glyph-name="Wgrave" unicode="Ẁ" horiz-adv-x="2077" d="M1079 1245l400 -971l389 953q23 59 34 100t11 70q0 9 -1 18.5t-3 14.5v4h198v-4q-20 -22 -43.5 -70t-54.5 -119l-534 -1272h-76l-389 944l-355 -944h-75l-490 1223q-18 43 -36.5 83t-35 72t-30 54t-19.5 29v4h277v-4q-2 -11 -2 -17v-14q0 -34 7.5 -72t29.5 -92l376 -950 l359 956zM899 1887q57 -53 119 -105q53 -45 118.5 -96t130.5 -94l-22 -37q-35 18 -72 34.5t-74.5 32.5t-73.5 30t-68 26q-77 28 -150 53z"/>
    <glyph glyph-name="wgrave" unicode="ẁ" horiz-adv-x="1538" d="M829 932l267 -672l223 557q7 18 16 40.5t16 46t12 45t5 38.5q0 13 -2 21.5t-4 11.5v4h180v-4q-18 -19 -43.5 -62.5t-60.5 -126.5l-355 -845h-57l-258 626l-258 -626h-57l-328 796q-18 44 -38.5 84.5t-39 72.5t-32.5 53.5t-19 27.5v4h266v-4q-2 -5 -3 -15t-1 -18 q0 -31 9.5 -68.5t31.5 -93.5l223 -565l269 672h38zM631 1477q57 -53 119 -105q53 -45 118.5 -96t130.5 -94l-22 -37q-35 18 -72 34.5t-74.5 32.5t-73.5 30t-68 26q-77 28 -150 53z"/>
    <glyph glyph-name="Wacute" unicode="Ẃ" horiz-adv-x="2077" d="M1079 1245l400 -971l389 953q23 59 34 100t11 70q0 9 -1 18.5t-3 14.5v4h198v-4q-20 -22 -43.5 -70t-54.5 -119l-534 -1272h-76l-389 944l-355 -944h-75l-490 1223q-18 43 -36.5 83t-35 72t-30 54t-19.5 29v4h277v-4q-2 -11 -2 -17v-14q0 -34 7.5 -72t29.5 -92l376 -950 l359 956zM1267 1731q-74 -25 -150 -53q-33 -12 -69 -26t-73 -30t-74.5 -32.5t-71.5 -34.5l-22 37q65 43 129.5 94t118.5 96q62 52 120 105z"/>
    <glyph glyph-name="wacute" unicode="ẃ" horiz-adv-x="1538" d="M829 932l267 -672l223 557q7 18 16 40.5t16 46t12 45t5 38.5q0 13 -2 21.5t-4 11.5v4h180v-4q-18 -19 -43.5 -62.5t-60.5 -126.5l-355 -845h-57l-258 626l-258 -626h-57l-328 796q-18 44 -38.5 84.5t-39 72.5t-32.5 53.5t-19 27.5v4h266v-4q-2 -5 -3 -15t-1 -18 q0 -31 9.5 -68.5t31.5 -93.5l223 -565l269 672h38zM1040 1321q-74 -25 -150 -53q-33 -12 -69 -26t-73 -30t-74.5 -32.5t-71.5 -34.5l-22 37q65 43 129.5 94t118.5 96q62 52 120 105z"/>
    <glyph glyph-name="Wdieresis" unicode="Ẅ" horiz-adv-x="2077" d="M1079 1245l400 -971l389 953q23 59 34 100t11 70q0 9 -1 18.5t-3 14.5v4h198v-4q-20 -22 -43.5 -70t-54.5 -119l-534 -1272h-76l-389 944l-355 -944h-75l-490 1223q-18 43 -36.5 83t-35 72t-30 54t-19.5 29v4h277v-4q-2 -11 -2 -17v-14q0 -34 7.5 -72t29.5 -92l376 -950 l359 956zM762 1723q0 19 7 36t19.5 29.5t29 19.5t36.5 7q19 0 36 -7t29.5 -19.5t19.5 -29.5t7 -36t-7 -36t-19.5 -29.5t-29.5 -19.5t-36 -7q-20 0 -36.5 7t-29 19.5t-19.5 29.5t-7 36zM1130 1723q0 19 7 36t19.5 29.5t29.5 19.5t36 7t36 -7t29.5 -19.5t19.5 -29.5t7 -36 t-7 -36t-19.5 -29.5t-29.5 -19.5t-36 -7t-36 7t-29.5 19.5t-19.5 29.5t-7 36z"/>
    <glyph glyph-name="wdieresis" unicode="ẅ" horiz-adv-x="1538" d="M829 932l267 -672l223 557q7 18 16 40.5t16 46t12 45t5 38.5q0 13 -2 21.5t-4 11.5v4h180v-4q-18 -19 -43.5 -62.5t-60.5 -126.5l-355 -845h-57l-258 626l-258 -626h-57l-328 796q-18 44 -38.5 84.5t-39 72.5t-32.5 53.5t-19 27.5v4h266v-4q-2 -5 -3 -15t-1 -18 q0 -31 9.5 -68.5t31.5 -93.5l223 -565l269 672h38zM533 1313q0 19 7 36t19.5 29.5t29 19.5t36.5 7q19 0 36 -7t29.5 -19.5t19.5 -29.5t7 -36t-7 -36t-19.5 -29.5t-29.5 -19.5t-36 -7q-20 0 -36.5 7t-29 19.5t-19.5 29.5t-7 36zM901 1313q0 19 7 36t19.5 29.5t29.5 19.5t36 7 t36 -7t29.5 -19.5t19.5 -29.5t7 -36t-7 -36t-19.5 -29.5t-29.5 -19.5t-36 -7t-36 7t-29.5 19.5t-19.5 29.5t-7 36z"/>
    <glyph glyph-name="Ygrave" unicode="Ỳ" horiz-adv-x="1272" d="M727 688v-297q0 -85 2 -148.5t6 -109.5t9.5 -77t11.5 -52v-4h-240v4q6 21 11.5 52t9 77t6 109.5t2.5 148.5v277l-447 608q-23 31 -45.5 57t-42.5 45.5t-36 32.5t-25 19v4h303q0 -23 19.5 -75.5t70.5 -123.5l328 -449l321 469q17 25 34 51t31 50t22.5 44t8.5 34h195v-4 q-22 -19 -59 -56.5t-80 -99.5zM498 1887q57 -53 119 -105q53 -45 118.5 -96t130.5 -94l-22 -37q-35 18 -72 34.5t-74.5 32.5t-73.5 30t-68 26q-77 28 -150 53z"/>
    <glyph glyph-name="ygrave" unicode="ỳ" horiz-adv-x="1006" d="M456 12l-352 770q-19 44 -41 84.5t-41.5 72.5t-34.5 53.5t-20 27.5v4h262v-4q-2 -5 -3 -15t-1 -18q0 -31 9.5 -68.5t35.5 -93.5l276 -600l252 592q16 37 32.5 81t16.5 89q0 13 -2 21.5t-4 11.5v4h180v-4q-18 -19 -45.5 -67.5t-58.5 -121.5l-477 -1136q-16 -37 -32.5 -81 t-16.5 -89q0 -13 2 -21.5t4 -11.5v-4h-187v4q19 19 46.5 66.5t58.5 119.5zM366 1477q57 -53 119 -105q53 -45 118.5 -96t130.5 -94l-22 -37q-35 18 -72 34.5t-74.5 32.5t-73.5 30t-68 26q-77 28 -150 53z"/>
    <glyph glyph-name="endash" unicode="–" d="M61 477v103h902v-103h-902z"/>
    <glyph glyph-name="emdash" unicode="—" horiz-adv-x="2048" d="M0 477v103h2048v-103h-2048z"/>
    <glyph glyph-name="quoteleft" unicode="‘" horiz-adv-x="356" d="M276 1124q0 -40 -28 -67t-70 -27q-40 0 -68 31t-28 78q0 34 15.5 75t41 83t58 83.5t65.5 77.5l27 -22q-45 -53 -75 -107t-36 -106q40 -3 69 -30t29 -69z"/>
    <glyph glyph-name="quoteright" unicode="’" horiz-adv-x="356" d="M70 1364q0 40 28 67t70 27q40 0 68 -31t28 -77q0 -35 -16 -76t-41.5 -83t-57.5 -83.5t-65 -77.5l-27 23q45 52 75 106t36 107q-40 3 -69 29.5t-29 68.5z"/>
    <glyph glyph-name="quotesinglbase" unicode="‚" horiz-adv-x="356" d="M86 100q0 41 28 68t70 27q20 0 38 -8.5t31 -23t20.5 -34.5t7.5 -43q0 -35 -16 -75.5t-41.5 -82.5t-58 -83.5t-65.5 -77.5l-26 22q45 53 74.5 106.5t35.5 106.5q-40 3 -69 29.5t-29 68.5z"/>
    <glyph glyph-name="quotedblleft" unicode="“" horiz-adv-x="643" d="M276 1124q0 -40 -28 -67t-70 -27q-40 0 -68 31t-28 78q0 34 15.5 75t41 83t58 83.5t65.5 77.5l27 -22q-45 -53 -75 -107t-36 -106q40 -3 69 -30t29 -69zM563 1124q0 -40 -28 -67t-70 -27q-40 0 -68 31t-28 78q0 34 15.5 75t41 83t58 83.5t65.5 77.5l26 -22 q-45 -53 -74.5 -107t-35.5 -106q40 -3 69 -30t29 -69z"/>
    <glyph glyph-name="quotedblright" unicode="”" horiz-adv-x="643" d="M356 1364q0 40 28.5 67t70.5 27q40 0 68 -31t28 -77q0 -35 -16 -76t-41.5 -83t-57.5 -83.5t-65 -77.5l-27 23q45 52 74.5 106t36.5 107q-41 3 -70 29.5t-29 68.5zM70 1364q0 40 28 67t70 27q40 0 68 -31t28 -77q0 -35 -16 -76t-41.5 -83t-57.5 -83.5t-65 -77.5l-27 23 q45 52 75 106t36 107q-40 3 -69 29.5t-29 68.5z"/>
    <glyph glyph-name="quotedblbase" unicode="„" horiz-adv-x="643" d="M373 100q0 41 28 68t70 27q20 0 37.5 -8.5t30.5 -23t20.5 -34.5t7.5 -43q0 -35 -16 -75.5t-41.5 -82.5t-57.5 -83.5t-65 -77.5l-27 22q45 53 75 106.5t36 106.5q-40 3 -69 29.5t-29 68.5zM86 100q0 41 28 68t70 27q20 0 38 -8.5t31 -23t20.5 -34.5t7.5 -43 q0 -35 -16 -75.5t-41.5 -82.5t-58 -83.5t-65.5 -77.5l-26 22q45 53 74.5 106.5t35.5 106.5q-40 3 -69 29.5t-29 68.5z"/>
    <glyph glyph-name="dagger" unicode="†" d="M492 -205q-11 349 -16.5 644t-8.5 515h-6q-109 0 -195.5 -1.5t-142.5 -4.5l22 80q28 -1 56 -1.5t60.5 -1t71.5 -1t87 -0.5h45q-2 176 -4.5 281.5t-7.5 124.5v4h114v-4q-6 -19 -8.5 -124.5t-5.5 -281.5q82 1 140 2.5t98.5 3.5t66 4.5t43.5 5.5l-33 -94q-23 1 -64 3 q-36 2 -96.5 3t-154.5 2q-3 -220 -8.5 -515t-16.5 -644h-36z"/>
    <glyph glyph-name="daggerdbl" unicode="‡" d="M145 639q28 -1 56 -1.5t60.5 -1t71.5 -1t87 -0.5h51q-2 88 -3 168t-1 151h-6q-109 0 -195.5 -1.5t-142.5 -4.5l22 80q28 -1 56 -1.5t60.5 -1t71.5 -1t87 -0.5h45q-2 176 -4.5 281.5t-7.5 124.5v4h114v-4q-6 -19 -8.5 -124.5t-5.5 -281.5q82 1 140 2.5t98.5 3.5t66 4.5 t43.5 5.5l-33 -94q-23 1 -64 3q-36 2 -96.5 3t-154.5 2l-6 -319q84 1 143 2.5t100 3.5t67 4.5t44 5.5l-33 -94q-23 1 -65 3q-37 2 -98.5 3t-157.5 2q-3 -171 -7.5 -363.5t-11.5 -406.5h-36q-8 214 -13 406.5t-8 363.5h-10q-109 0 -195.5 -1.5t-142.5 -4.5z"/>
    <glyph glyph-name="bullet" unicode="•" horiz-adv-x="1133" d="M307 766q0 54 21 101t56.5 82t82.5 55t100 20q52 0 99 -21t82.5 -56t56 -82t20.5 -99t-20 -99t-55 -83t-82.5 -57t-102.5 -21q-54 0 -101.5 21t-82 56.5t-54.5 82.5t-20 100z"/>
    <glyph glyph-name="ellipsis" unicode="…" horiz-adv-x="1260" d="M102 88q0 22 8.5 41.5t23 34t34 23t41.5 8.5q23 0 42.5 -8.5t34 -23t23 -34t8.5 -41.5q0 -46 -31 -77t-77 -31q-22 0 -41.5 8.5t-34 23t-23 34t-8.5 42.5zM522 88q0 22 8.5 41.5t22.5 34t33.5 23t42.5 8.5t42.5 -8.5t34 -23t23 -34t8.5 -41.5q0 -46 -31 -77t-77 -31 q-23 0 -42.5 8.5t-33.5 23t-22.5 34t-8.5 42.5zM942 88q0 22 8.5 41.5t22.5 34t33.5 23t42.5 8.5t42.5 -8.5t34 -23t23 -34t8.5 -41.5q0 -46 -31 -77t-77 -31q-23 0 -42.5 8.5t-33.5 23t-22.5 34t-8.5 42.5z"/>
    <glyph glyph-name="perthousand" unicode="‰" horiz-adv-x="2634" d="M223 1077q0 -54 20 -101t54.5 -82.5t81 -56t100.5 -20.5q55 0 101.5 20.5t81 56t54 82.5t19.5 101q0 55 -19.5 103t-54 84t-81 56.5t-101.5 20.5q-54 0 -100.5 -20.5t-81 -56.5t-54.5 -84t-20 -103zM102 1079q0 78 30 147t81 120.5t119.5 81.5t146.5 30t147 -30 t120.5 -81.5t81.5 -120.5t30 -147t-30 -146.5t-81.5 -119.5t-120.5 -81t-147 -30t-146.5 30t-119.5 81t-81 119.5t-30 146.5zM1321 1470l82 -53l-963 -1470l-82 53zM1042 344q0 -54 20 -101t54.5 -82.5t81 -56t100.5 -20.5q55 0 101.5 20.5t81 56t54 82.5t19.5 101 t-19.5 102t-54 84t-81 57t-101.5 21q-54 0 -100.5 -21t-81 -57t-54.5 -84t-20 -102zM922 346q0 78 30 147t81 120.5t119.5 81.5t145.5 30q78 0 147 -30t120.5 -81.5t81.5 -120.5t30 -147t-30 -146.5t-81.5 -119.5t-120.5 -81t-147 -30q-77 0 -145.5 30t-119.5 81t-81 119.5 t-30 146.5zM1896 344q0 -54 20 -101t54.5 -82.5t81 -56t100.5 -20.5q55 0 101.5 20.5t81 56t54 82.5t19.5 101t-19.5 102t-54 84t-81 57t-101.5 21q-54 0 -100.5 -21t-81 -57t-54.5 -84t-20 -102zM1776 346q0 78 30 147t81 120.5t119.5 81.5t145.5 30q78 0 147 -30 t120.5 -81.5t81.5 -120.5t30 -147t-30 -146.5t-81.5 -119.5t-120.5 -81t-147 -30q-77 0 -145.5 30t-119.5 81t-81 119.5t-30 146.5z"/>
    <glyph glyph-name="guilsinglleft" unicode="‹" horiz-adv-x="563" d="M82 537q8 6 28.5 24.5t49 45.5t63.5 61.5t72 73t74 79t69 80.5l37 -27q-30 -43 -59 -89t-55 -91t-48 -86.5t-39 -75.5q17 -34 39 -75t47.5 -86t54.5 -91t60 -90l-37 -26q-32 39 -69 80t-74 79t-72 72.5t-63.5 61.5t-49 45.5t-28.5 25.5v9z"/>
    <glyph glyph-name="guilsinglright" unicode="›" horiz-adv-x="563" d="M481 528q-8 -7 -28 -25t-49 -45t-64 -61.5t-72 -73t-74 -79t-69 -80.5l-37 26q30 43 59 89t55 91t48 86.5t39 75.5q-17 34 -39 75.5t-47.5 86t-54.5 90.5t-60 90l37 27q32 -40 69 -80.5t74 -78.5t72 -72.5t64 -61.5t49 -46t28 -25v-9z"/>
    <glyph glyph-name="fraction" unicode="⁄" horiz-adv-x="340" d="M598 1458l82 -53l-938 -1436l-82 54z"/>
    <glyph glyph-name="Euro" unicode="€" horiz-adv-x="1503" d="M20 895q35 -2 80.5 -3t98.5 -1q29 116 94.5 219t164.5 180.5t228.5 122.5t286.5 45q195 0 358 -59l68 -185l-8 -4q-79 72 -188 115t-240 43q-114 0 -210.5 -32t-170 -93t-121.5 -149.5t-64 -202.5q127 0 241 1.5t204 3.5t151.5 5t83.5 6l-33 -88q-80 2 -179 4 q-85 2 -199.5 3t-251.5 1h-23v-45q0 -62 6 -116q111 0 209 1.5t175.5 3.5t130.5 5t73 6l-33 -88q-70 2 -155 4q-73 2 -173 3t-218 1q21 -119 70 -218.5t126 -171.5t182.5 -112.5t239.5 -40.5q58 0 114.5 12t109 35.5t99.5 57t85 76.5l10 -7l-80 -204q-74 -29 -164.5 -44.5 t-183.5 -15.5q-168 0 -311 44.5t-251 127t-177 199t-89 260.5q-58 0 -107.5 -1t-80.5 -3l22 74l160 -4q-1 10 -1 20q-1 8 -1 16v13q0 28 1.5 55t6.5 55q-58 0 -107.5 -1t-80.5 -3z"/>
    <glyph glyph-name="trademark" unicode="™" horiz-adv-x="1540" d="M279 1386q-45 0 -81 -3.5t-62 -8.5q-30 -5 -54 -12l10 76q7 -1 23 -1.5t34 -1t34 -1t22 -0.5h246q5 0 20.5 0.5t33 1t33.5 1t23 1.5l12 -76q-24 7 -54 12q-26 5 -62 8.5t-80 3.5v-344q0 -32 0.5 -55.5t2 -40.5t3.5 -28t4 -19v-4h-121v4q4 16 8.5 47t4.5 96v344zM594 899 q5 6 10 16.5t8 28.5q6 35 13 81t14 96l14 100t13 92.5t10 74.5t6 46h92l230 -424l223 424h86l61 -447q6 -42 12 -60.5t11 -27.5v-4h-125v4q2 3 4 11.5t2 21.5q0 5 -1 10.5t-1 11.5l-47 361l-223 -418l-58 2l-223 420q-13 -90 -23 -166q-4 -32 -8 -64.5t-7 -60.5t-5 -49 t-2 -31q0 -14 0.5 -23.5t1.5 -16.5q1 -8 2 -13h-90v4z"/>
    <glyph glyph-name="partialdiff" unicode="∂" horiz-adv-x="1219" d="M70 477q0 105 42 195t115.5 156t173.5 103.5t215 37.5q26 0 57 -3t61.5 -8.5t58 -11.5t47.5 -12q-42 103 -92 183t-108.5 144.5t-126.5 117t-144 100.5l18 32q93 -41 185.5 -98.5t177 -129t156.5 -156.5t125.5 -181t83.5 -203t30 -223q0 -111 -33.5 -208.5t-100.5 -171 t-166 -116t-231 -42.5q-112 0 -211 34.5t-173 98.5t-117 156t-43 206zM637 55q71 0 130.5 26t102.5 74.5t67 118.5t24 158q0 48 -6 97.5t-16.5 97.5t-23.5 92t-28 82q-18 13 -44 28.5t-61 28.5t-81.5 22t-106.5 9q-71 0 -130 -24t-102.5 -71t-67.5 -115.5t-24 -156.5 q0 -100 23.5 -185.5t69.5 -148t114.5 -98t159.5 -35.5z"/>
    <glyph glyph-name="minus" unicode="−" horiz-adv-x="1331" d="M143 651v103h1045v-103h-1045z"/>
    <glyph glyph-name="uni2215" unicode="∕" horiz-adv-x="340" d="M598 1458l82 -53l-938 -1436l-82 54z"/>
    <glyph glyph-name="approxequal" unicode="≈" horiz-adv-x="1331" d="M915 868q41 0 72 11t55 29t41 40t29 43l72 -49q-45 -87 -114.5 -129.5t-160.5 -42.5q-55 0 -120 19t-131 42.5t-128.5 42.5t-113.5 19q-41 0 -72 -11t-55 -29t-41 -40t-29 -43l-72 49q45 87 114.5 129.5t160.5 42.5q55 0 120 -19t131 -42.5t128.5 -42.5t113.5 -19z M915 512q41 0 72 11t55 29t41 40t29 43l72 -49q-45 -87 -114.5 -129.5t-160.5 -42.5q-55 0 -120 19t-131 42.5t-128.5 42.5t-113.5 19q-41 0 -72 -11t-55 -29t-41 -40t-29 -43l-72 49q45 87 114.5 129.5t160.5 42.5q55 0 120 -19t131 -42.5t128.5 -42.5t113.5 -19z"/>
    <glyph glyph-name="notequal" unicode="≠" horiz-adv-x="1331" d="M496 457h-332v102h381l135 287h-516v102h565l215 455l86 -41l-196 -414h333v-102h-381l-137 -287h518v-102h-565l-221 -467l-86 41z"/>
    <glyph glyph-name="lessequal" unicode="≤" horiz-adv-x="1331" d="M1106 1145l37 -90l-807 -353l807 -352l-37 -90l-924 404v77zM143 37v102h1045v-102h-1045z"/>
    <glyph glyph-name="greaterequal" unicode="≥" horiz-adv-x="1331" d="M143 37v102h1045v-102h-1045zM1149 739v-73l-924 -406l-37 90l807 352l-807 353l37 90z"/>
    <glyph glyph-name="commaaccent" d="M414 -248q0 40 28 67t70 27q40 0 68 -31t28 -77q0 -27 -11 -59.5t-29 -65.5t-41 -65.5t-48 -59.5l-26 18q53 76 59 148q-42 0 -70 28t-28 70z"/>
    </font>
</defs>
</svg>
